<?xml version="1.0" standalone="no"?>
<!DOCTYPE svg PUBLIC "-//W3C//DTD SVG 20010904//EN"
 "http://www.w3.org/TR/2001/REC-SVG-20010904/DTD/svg10.dtd">
<svg version="1.0" xmlns="http://www.w3.org/2000/svg"
 width="1024.000000pt" height="1024.000000pt" viewBox="0 0 1024.000000 1024.000000"
 preserveAspectRatio="xMidYMid meet">
<metadata>
Created by potrace 1.16, written by Peter Selinger 2001-2019
</metadata>
<g transform="translate(0.000000,1024.000000) scale(0.100000,-0.100000)"
fill="#4d371f" stroke="none">
<path d="M4810 9314 c-385 -36 -684 -96 -1005 -201 -482 -158 -932 -405 -1358
-746 -132 -106 -438 -410 -559 -557 -380 -461 -652 -972 -806 -1520 -72 -253
-129 -576 -153 -866 -15 -181 -7 -605 15 -784 90 -734 323 -1352 731 -1937
452 -650 1084 -1157 1836 -1474 799 -336 1777 -408 2634 -193 889 223 1688
737 2262 1456 439 550 733 1202 847 1880 49 285 60 426 61 718 0 695 -133
1285 -425 1885 -305 625 -779 1182 -1340 1575 -498 349 -1032 579 -1602 690
-309 59 -434 72 -778 75 -173 1 -335 1 -360 -1z m785 -88 c72 -8 155 -20 185
-26 547 -101 950 -243 1370 -483 683 -391 1189 -899 1574 -1579 193 -341 368
-808 436 -1163 6 -33 15 -76 20 -95 9 -37 26 -146 35 -220 21 -177 26 -263 31
-470 5 -225 -6 -431 -36 -650 -5 -36 -12 -90 -15 -120 -4 -30 -10 -64 -15 -75
-5 -11 -11 -38 -13 -60 -6 -60 -82 -343 -133 -493 -144 -427 -345 -809 -608
-1157 -403 -533 -882 -930 -1476 -1225 -264 -131 -501 -221 -765 -289 -66 -17
-136 -36 -155 -41 -136 -36 -424 -75 -667 -91 -276 -17 -516 -6 -882 41 -195
24 -727 164 -766 201 -5 5 -19 9 -30 9 -29 0 -181 65 -410 176 -195 94 -471
265 -660 408 -439 333 -811 760 -1103 1268 -158 273 -322 685 -391 978 -18 74
-36 151 -41 170 -24 93 -57 288 -72 425 -14 131 -18 736 -5 820 4 28 12 95 17
150 6 55 13 107 16 117 5 15 13 61 35 193 5 33 14 74 20 90 5 17 20 77 34 135
54 228 170 541 293 788 330 660 827 1220 1435 1615 382 249 736 409 1162 527
83 23 164 45 180 50 17 5 50 11 75 15 25 3 77 12 115 20 117 23 213 36 365 50
190 18 666 13 845 -9z"/>
<path d="M4705 9190 c-177 -20 -222 -27 -390 -59 -423 -80 -881 -254 -1248
-473 -67 -40 -126 -75 -132 -78 -25 -13 -210 -141 -300 -209 -278 -208 -604
-540 -812 -826 -308 -424 -534 -898 -657 -1379 -109 -421 -141 -711 -133
-1176 5 -280 8 -311 53 -575 127 -748 477 -1473 983 -2034 77 -85 296 -303
361 -358 226 -193 520 -392 779 -528 458 -241 912 -381 1461 -451 171 -21 585
-30 752 -15 887 80 1620 377 2328 945 106 84 409 391 511 516 359 440 603 887
762 1400 93 301 136 522 175 905 4 39 6 192 6 340 -2 325 -11 421 -84 840 -32
188 -155 568 -266 818 -100 228 -294 559 -459 782 -481 650 -1213 1175 -1995
1432 -138 45 -469 127 -595 147 -272 44 -332 49 -630 52 -242 2 -333 -1 -470
-16z m635 -379 c0 -282 -2 -320 -16 -325 -9 -3 -108 -6 -220 -6 l-204 0 0 325
0 325 220 0 220 0 0 -319z m-691 -328 c-1 -38 -3 -60 -6 -50 -2 9 -9 17 -14
17 -14 0 -11 28 4 33 6 2 -4 3 -23 3 -35 -1 -35 -2 -31 -40 2 -27 0 -36 -8
-32 -14 9 -15 116 -1 116 6 0 13 -7 16 -15 10 -25 34 -17 34 10 0 16 6 25 15
25 12 0 15 -14 14 -67z m984 7 c3 -13 0 -20 -9 -20 -8 0 -14 10 -14 26 0 28
15 25 23 -6z m-1249 -11 c9 -46 7 -79 -4 -79 -5 0 -10 9 -10 19 0 15 -5 18
-21 14 -12 -4 -25 0 -29 8 -5 7 -6 -5 -3 -29 4 -28 2 -42 -6 -42 -6 0 -12 14
-12 30 -1 17 -2 44 -3 60 -1 23 1 27 9 16 6 -8 20 -16 30 -18 15 -2 21 3 23
25 4 36 18 34 26 -4z m1460 9 c-1 -13 -3 -24 -3 -25 -1 -2 -10 5 -21 15 l-21
17 23 7 c13 3 23 6 24 7 0 1 0 -9 -2 -21z m-26 -36 c2 -7 -3 -12 -12 -12 -9 0
-16 7 -16 16 0 17 22 14 28 -4z m-204 -8 c4 -10 13 -13 26 -9 11 4 20 2 20 -4
0 -12 -40 -15 -55 -3 -13 9 -17 32 -6 32 5 0 12 -7 15 -16z m-479 -14 c0 -7
-6 -15 -12 -17 -8 -3 -13 4 -13 17 0 13 5 20 13 18 6 -3 12 -11 12 -18z m695
-20 c0 -5 -12 -10 -26 -10 -14 0 -23 4 -19 10 3 6 15 10 26 10 10 0 19 -4 19
-10z m-580 -25 c0 -11 12 -15 50 -15 38 0 50 -4 50 -15 0 -11 -12 -15 -50 -15
-38 0 -50 4 -50 15 0 17 -20 19 -157 16 -78 -2 -93 1 -93 14 0 13 19 15 125
15 104 0 125 -2 125 -15z m-260 -31 c0 -10 -14 -14 -45 -14 -33 0 -45 4 -45
15 0 10 12 14 45 13 31 0 45 -5 45 -14z m-1164 -49 c-1 -19 -6 -35 -12 -35 -7
0 -14 -9 -17 -20 -3 -11 -2 -18 2 -16 4 3 13 1 21 -5 12 -7 10 -9 -7 -9 -15 0
-23 -6 -23 -17 0 -14 -2 -15 -9 -5 -14 22 -6 87 10 86 11 -1 14 7 11 27 -3 21
0 29 10 29 10 0 14 -11 14 -35z m1064 20 c0 -8 -9 -15 -20 -15 -11 0 -20 7
-20 15 0 8 9 15 20 15 11 0 20 -7 20 -15z m184 9 c30 -12 16 -25 -24 -22 -25
1 -40 7 -40 15 0 14 37 17 64 7z m176 -15 c0 -5 -20 -9 -45 -9 -52 0 -61 17
-12 22 37 4 57 -1 57 -13z m150 6 c0 -9 -9 -15 -25 -15 -31 0 -33 17 -2 23 12
2 23 5 25 6 1 0 2 -6 2 -14z m-560 -30 c0 -8 -6 -15 -14 -15 -8 0 -16 -6 -19
-12 -4 -10 -7 -10 -18 0 -11 10 -10 12 5 12 12 0 16 5 12 15 -4 10 1 15 14 15
11 0 20 -7 20 -15z m300 -36 c0 -32 3 -39 20 -39 11 0 20 -4 20 -9 0 -5 -9
-11 -20 -14 -16 -4 -20 -14 -20 -51 0 -34 4 -46 15 -46 10 0 15 -11 15 -35 0
-19 4 -35 9 -35 6 0 9 -8 9 -17 0 -10 3 -26 7 -35 5 -12 3 -18 -6 -18 -8 0
-23 -19 -34 -42 l-20 -42 -6 64 c-4 36 -7 106 -8 156 -1 86 -2 92 -23 98 -22
6 -22 7 -5 20 9 7 17 21 17 30 0 9 6 16 13 17 10 0 10 2 0 6 -7 2 -13 13 -13
24 0 12 5 16 15 13 10 -4 15 -20 15 -45z m-154 26 c-11 -8 -35 -15 -53 -15
-23 0 -33 -5 -33 -15 0 -10 -10 -15 -30 -15 -20 0 -30 5 -30 15 0 10 10 15 30
15 20 0 30 5 30 15 0 11 12 15 53 15 48 -1 50 -2 33 -15z m360 0 c-4 -11 2
-15 24 -15 43 0 38 -25 -5 -26 -22 0 -35 4 -35 12 0 7 -14 14 -32 16 -53 5
-47 28 7 28 38 0 46 -3 41 -15z m94 5 c0 -5 -6 -10 -14 -10 -8 0 -18 5 -21 10
-3 6 3 10 14 10 12 0 21 -4 21 -10z m900 -16 c0 -20 -4 -25 -16 -20 -9 3 -23
6 -31 6 -12 0 -10 5 7 20 31 27 40 25 40 -6z m-860 -14 c0 -5 -7 -10 -15 -10
-8 0 -15 5 -15 10 0 6 7 10 15 10 8 0 15 -4 15 -10z m-700 -16 c0 -8 -4 -12
-10 -9 -5 3 -10 10 -10 16 0 5 5 9 10 9 6 0 10 -7 10 -16z m49 -33 c-15 -5
-22 6 -14 19 6 9 10 9 16 -1 5 -8 4 -15 -2 -18z m592 22 c-11 -5 -11 -7 0 -14
11 -7 10 -9 -3 -9 -18 0 -23 11 -11 23 3 4 11 7 17 6 6 0 5 -3 -3 -6z m89 -8
c0 -8 7 -15 15 -15 8 0 15 -5 15 -11 0 -6 7 -17 15 -25 21 -21 19 -34 -5 -34
-14 0 -20 -6 -18 -17 2 -10 -4 -19 -14 -21 -13 -2 -18 3 -18 17 0 12 -6 21
-15 21 -8 0 -15 7 -15 15 0 8 9 15 20 15 12 0 20 -7 20 -16 0 -20 24 -13 28 9
2 10 -3 17 -12 17 -9 0 -16 7 -16 15 0 8 -8 15 -17 16 -13 0 -14 2 -4 6 11 5
11 7 0 14 -11 7 -10 9 4 9 9 0 17 -7 17 -15z m-760 -10 c0 -8 -7 -15 -15 -15
-8 0 -15 -7 -15 -15 0 -9 -7 -18 -15 -21 -8 -4 -15 -12 -15 -20 0 -8 -7 -14
-15 -14 -8 0 -15 5 -15 10 0 6 5 10 10 10 6 0 10 6 10 14 0 8 7 17 16 20 8 3
12 11 8 17 -4 8 -3 9 5 5 6 -4 14 0 17 8 8 20 24 21 24 1z m54 -26 c-8 -13
-24 -1 -24 18 0 13 3 13 15 3 8 -7 12 -16 9 -21z m666 9 c0 -4 -7 -8 -15 -8
-8 0 -15 4 -15 8 0 5 7 9 15 9 8 0 15 -4 15 -9z m-1922 -51 c14 -31 5 -60 -10
-33 -5 9 -16 16 -25 16 -11 0 -13 4 -5 13 5 6 8 22 6 35 -3 19 -2 21 9 10 7
-7 18 -26 25 -41z m1222 24 c0 -10 -7 -21 -15 -25 -8 -3 -15 -15 -15 -26 0
-11 -6 -20 -12 -20 -7 0 -18 -11 -25 -25 -6 -14 -7 -25 -2 -25 5 0 9 -7 9 -15
0 -8 -4 -15 -10 -15 -5 0 -10 -7 -10 -15 0 -8 -4 -15 -10 -15 -5 0 -10 18 -10
40 0 38 4 48 38 85 6 7 12 21 12 29 0 9 7 16 15 16 8 0 15 7 15 15 0 8 5 15
10 15 6 0 10 -9 10 -19z m1981 -47 c-7 -23 -10 -26 -16 -12 -4 10 -1 23 7 31
17 20 19 17 9 -19z m-1162 -11 c0 -35 -1 -36 -10 -14 -5 14 -7 31 -5 38 10 24
16 13 15 -24z m-2109 17 c0 -5 -2 -10 -4 -10 -3 0 -8 5 -11 10 -3 6 -1 10 4
10 6 0 11 -4 11 -10z m1090 -15 c0 -19 -25 -31 -85 -40 -87 -12 -402 -108
-505 -152 -418 -182 -736 -396 -1030 -692 -453 -456 -751 -1049 -852 -1696
-29 -186 -35 -530 -14 -732 32 -299 71 -468 179 -768 14 -38 27 -79 29 -90 1
-11 8 -23 13 -27 6 -5 2 -8 -7 -8 -66 0 -228 587 -253 915 -4 44 -8 86 -10 93
-3 9 -47 12 -175 12 l-170 0 0 178 0 178 33 -3 c17 -2 96 0 175 3 l142 6 0 42
c0 23 7 91 15 152 80 600 321 1144 710 1604 132 155 262 279 471 449 79 64
336 224 479 297 232 120 406 186 655 249 203 51 200 51 200 30z m510 0 c0 -8
-4 -15 -10 -15 -5 0 -10 7 -10 15 0 8 5 15 10 15 6 0 10 -7 10 -15z m759 -21
c381 -99 721 -249 981 -432 36 -25 89 -61 117 -81 29 -20 53 -42 53 -49 0 -7
4 -11 9 -8 24 16 367 -306 510 -479 237 -287 454 -688 554 -1025 78 -261 136
-560 137 -708 l0 -33 175 3 175 3 0 -177 0 -178 -172 -2 -173 -3 -7 -70 c-35
-345 -108 -648 -224 -934 -61 -149 -79 -181 -101 -181 -19 0 -16 8 37 130 106
239 208 609 242 880 20 161 17 595 -5 744 -142 941 -659 1721 -1472 2216 -262
160 -602 297 -899 361 -101 22 -106 25 -106 45 0 20 16 18 169 -22z m-2332 -7
c1 -26 0 -28 -7 -12 -5 12 -9 14 -9 6 -1 -8 -4 -12 -7 -8 -7 7 5 47 14 47 4 0
8 -15 9 -33z m1153 13 c0 -11 -6 -20 -14 -20 -11 0 -14 -11 -11 -45 4 -35 1
-45 -10 -45 -21 0 -21 86 0 94 8 3 15 12 15 21 0 8 5 15 10 15 6 0 10 -9 10
-20z m1547 -2 c-3 -8 -6 -5 -6 6 -1 11 2 17 5 13 3 -3 4 -12 1 -19z m53 12 c0
-5 -5 -10 -11 -10 -5 0 -7 5 -4 10 3 6 8 10 11 10 2 0 4 -4 4 -10z m-2803 -11
c-9 -6 -17 -17 -17 -24 0 -8 -5 -15 -11 -15 -6 0 -9 7 -5 15 3 10 -1 15 -12
15 -27 0 2 15 34 17 23 1 25 -1 11 -8z m284 -22 c-10 -9 -11 -8 -5 6 3 10 9
15 12 12 3 -3 0 -11 -7 -18z m1883 -14 c9 -58 7 -73 -9 -73 -11 0 -15 -12 -15
-50 0 -27 -4 -50 -10 -50 -5 0 -10 12 -10 28 0 15 -3 37 -6 50 -5 16 -2 22 10
22 13 0 16 11 16 55 0 63 14 73 24 18z m1186 27 c0 -5 -2 -10 -4 -10 -3 0 -8
5 -11 10 -3 6 -1 10 4 10 6 0 11 -4 11 -10z m-1866 -25 c4 -14 13 -25 21 -25
8 0 15 -7 15 -15 0 -8 5 -15 10 -15 14 0 50 -37 43 -44 -4 -3 -1 -6 5 -6 7 0
12 -4 12 -10 0 -5 -9 -10 -20 -10 -11 0 -20 5 -20 10 0 6 -9 10 -20 10 -13 0
-20 7 -20 20 0 13 -7 20 -20 20 -11 0 -20 6 -20 14 0 8 -10 16 -22 18 -17 2
-24 11 -26 31 -3 24 0 27 26 27 23 0 31 -5 36 -25z m422 3 c4 -14 2 -24 -5
-26 -6 -2 -18 -10 -25 -18 -8 -8 -19 -14 -24 -14 -6 0 -12 -7 -16 -15 -3 -8
-12 -15 -20 -15 -7 0 -16 -8 -19 -18 -4 -19 -47 -38 -47 -21 0 5 4 9 9 9 5 0
14 14 20 30 5 17 15 30 20 30 6 0 11 6 11 13 0 7 9 18 20 25 11 7 20 19 20 27
0 25 47 19 56 -7z m200 -29 c-1 -57 -26 -52 -26 6 0 33 3 43 14 39 8 -3 13
-20 12 -45z m-2106 -4 c0 -8 -4 -15 -10 -15 -5 0 -7 7 -4 15 4 8 8 15 10 15 2
0 4 -7 4 -15z m1140 -185 c0 -118 2 -140 15 -140 9 0 15 -9 15 -22 0 -39 12
-68 26 -68 10 0 14 13 14 45 0 33 4 45 15 45 11 0 15 -12 15 -45 0 -33 4 -45
15 -45 9 0 15 -9 15 -25 0 -16 6 -25 15 -25 8 0 15 -9 15 -20 0 -11 -5 -20
-11 -20 -6 0 -13 9 -16 20 -3 11 -12 20 -19 20 -8 0 -14 10 -14 25 0 16 -6 25
-15 25 -10 0 -15 -10 -15 -30 0 -20 5 -30 15 -30 8 0 15 -7 15 -15 0 -8 -7
-15 -16 -15 -8 0 -12 5 -9 10 3 6 -1 13 -9 16 -9 3 -16 14 -16 23 0 9 -9 24
-20 34 -11 9 -20 28 -20 41 0 14 -7 31 -15 40 -10 10 -15 35 -15 80 0 64 -1
66 -25 66 -14 0 -25 5 -25 10 0 6 11 10 25 10 24 0 25 2 25 65 0 37 4 65 10
65 6 0 10 -53 10 -140z m1060 79 c0 -52 3 -62 20 -66 24 -6 26 -20 3 -25 -14
-2 -16 -14 -14 -66 2 -51 0 -62 -13 -62 -14 0 -16 19 -16 140 0 87 4 140 10
140 6 0 10 -27 10 -61z m-991 1 c-2 -34 -7 -50 -16 -50 -9 0 -13 15 -13 50 0
38 4 50 15 50 13 0 16 -11 14 -50z m1751 40 c0 -5 -5 -10 -11 -10 -5 0 -7 5
-4 10 3 6 8 10 11 10 2 0 4 -4 4 -10z m-1330 -65 l0 -45 -155 0 c-135 0 -155
-2 -155 -16 0 -12 -6 -14 -32 -8 -18 4 -46 6 -61 5 -20 -1 -27 3 -25 11 3 7
16 13 29 14 60 2 69 5 69 19 0 8 5 15 10 15 6 0 10 -7 10 -15 0 -17 75 -22 85
-5 3 6 23 10 45 10 26 0 40 5 44 16 5 14 16 16 62 10 47 -5 55 -4 51 8 -5 12
1 19 21 25 1 1 2 -19 2 -44z m180 25 c0 -5 -5 -10 -11 -10 -5 0 -7 5 -4 10 3
6 8 10 11 10 2 0 4 -4 4 -10z m205 -41 c-5 -15 -4 -19 4 -15 6 4 11 2 11 -3 0
-6 21 -11 50 -11 28 0 50 -4 50 -10 0 -5 -25 -10 -56 -10 -34 0 -53 4 -49 10
3 6 2 10 -3 10 -6 0 -12 -7 -16 -15 -3 -8 -1 -15 5 -15 6 0 7 -5 3 -12 -6 -9
-9 -9 -12 0 -4 14 -102 17 -102 2 0 -5 -17 -12 -37 -15 -21 -4 -48 -10 -60
-15 -15 -6 -23 -6 -23 0 0 6 -16 10 -35 10 -31 0 -35 -3 -35 -25 0 -14 -4 -25
-10 -25 -5 0 -10 23 -10 50 l0 50 156 0 157 0 -6 30 c-5 23 -3 30 9 30 11 0
13 -6 9 -21z m-255 1 c0 -5 -16 -10 -35 -10 -19 0 -35 5 -35 10 0 6 16 10 35
10 19 0 35 -4 35 -10z m-730 -40 c0 -13 -7 -20 -20 -20 -13 0 -20 7 -20 20 0
13 7 20 20 20 13 0 20 -7 20 -20z m1298 3 c-5 -26 -38 -29 -38 -4 0 15 6 21
21 21 14 0 19 -5 17 -17z m1112 -3 c0 -5 -8 -10 -17 -10 -15 0 -16 2 -3 10 19
12 20 12 20 0z m-2850 -20 c0 -5 9 -10 20 -10 11 0 20 -7 20 -15 0 -8 6 -15
14 -15 12 0 13 -10 8 -72 -1 -10 -9 -18 -17 -18 -8 0 -15 -7 -15 -15 0 -8 -7
-15 -15 -15 -10 0 -15 -11 -15 -35 0 -22 5 -35 13 -35 7 0 13 -10 14 -22 2
-21 1 -22 -11 -5 -7 9 -18 17 -23 17 -12 0 -23 33 -23 68 0 12 -5 22 -11 22
-18 0 -41 30 -35 45 5 13 9 12 26 -5 11 -11 27 -20 35 -20 25 0 51 34 50 65
-2 28 -5 30 -44 33 -36 3 -43 0 -48 -17 -7 -27 -30 -34 -36 -10 -6 21 9 27 16
7 2 -7 7 2 11 20 4 18 11 30 16 27 5 -3 11 -1 15 5 8 13 35 13 35 0z m2777 -5
c0 -8 -4 -12 -9 -9 -4 3 -8 9 -8 15 0 5 4 9 8 9 5 0 9 -7 9 -15z m-1719 -162
c-2 -122 -6 -167 -15 -171 -7 -2 -13 1 -13 8 0 6 5 8 10 5 6 -4 10 13 10 45 0
36 -4 52 -15 56 -8 4 -15 17 -15 30 0 13 -4 24 -10 24 -5 0 -10 12 -10 28 0
24 -19 71 -20 48 0 -5 -7 -3 -15 4 -13 11 -15 8 -15 -18 0 -24 -4 -30 -15 -26
-10 4 -15 0 -15 -10 0 -9 -7 -19 -15 -22 -8 -4 -15 -15 -15 -25 0 -14 -7 -19
-30 -19 -25 0 -30 4 -30 24 0 17 7 26 25 30 14 4 23 11 20 16 -3 6 -1 10 5 10
18 0 51 36 47 51 -2 8 -2 11 0 7 7 -11 33 3 33 18 0 8 5 14 10 14 6 0 10 -9
10 -20 0 -13 7 -20 20 -20 13 0 20 7 20 20 0 11 -7 20 -15 20 -8 0 -15 9 -15
20 0 16 7 20 35 20 l35 0 -2 -167z m-443 104 c0 -65 -19 -64 -23 2 -2 40 0 52
10 49 8 -3 13 -22 13 -51z m935 -2 c0 -40 -4 -55 -14 -55 -10 0 -14 14 -14 55
1 39 5 55 14 55 10 0 14 -15 14 -55z m680 51 c0 -9 -40 -13 -46 -5 -3 5 6 9
20 9 14 0 26 -2 26 -4z m580 -6 c0 -5 -4 -10 -10 -10 -5 0 -10 5 -10 10 0 6 5
10 10 10 6 0 10 -4 10 -10z m-540 -58 c0 -61 -1 -62 -72 -86 -11 -3 -18 -15
-18 -31 0 -14 -4 -25 -10 -25 -5 0 -10 20 -10 45 0 25 -4 45 -9 45 -24 0 -18
89 7 98 8 2 12 -11 12 -42 l0 -46 41 0 41 0 -5 44 c-3 24 -3 47 0 50 16 16 23
1 23 -52z m-2036 33 c-4 -9 -19 -15 -40 -15 -33 0 -34 -1 -34 -40 l0 -40 40 0
c37 0 40 2 41 28 1 15 1 32 0 38 -1 7 5 14 14 18 12 4 15 -5 15 -49 0 -42 -3
-55 -15 -55 -9 0 -15 -9 -15 -25 0 -16 6 -25 15 -25 8 0 15 -4 15 -9 0 -14
335 -351 349 -351 7 0 11 28 11 80 0 64 3 80 15 80 13 0 15 -36 15 -265 0
-229 -2 -265 -15 -265 -13 0 -15 25 -15 165 0 140 -2 165 -15 165 -8 0 -15 7
-15 15 0 8 -7 15 -15 15 -8 0 -15 6 -15 13 0 8 -11 20 -25 27 -14 7 -25 19
-25 27 0 7 -7 13 -15 13 -8 0 -15 5 -15 10 0 12 -109 120 -121 120 -5 0 -9 7
-9 15 0 8 -7 15 -15 15 -8 0 -15 5 -15 12 0 6 -27 37 -60 69 -33 31 -60 65
-60 73 0 11 -10 16 -34 16 -30 0 -34 3 -40 34 -4 18 -1 46 5 62 7 16 12 32 11
37 -1 4 18 7 43 7 35 0 43 -3 39 -15z m1756 0 c0 -8 5 -15 10 -15 6 0 10 -22
10 -50 0 -40 -3 -48 -15 -44 -8 4 -15 1 -15 -5 0 -6 -11 -11 -25 -11 -14 0
-25 -6 -25 -13 0 -7 -9 -23 -20 -35 -11 -12 -20 -26 -20 -32 0 -5 -7 -10 -15
-10 -8 0 -15 -7 -15 -15 0 -8 -7 -15 -15 -15 -8 0 -15 -7 -15 -15 0 -8 -7 -15
-15 -15 -8 0 -15 -7 -15 -15 0 -8 -7 -15 -15 -15 -28 0 -15 22 50 86 62 62 83
104 50 104 -12 0 -15 13 -15 56 0 67 23 72 28 5 l3 -42 42 3 c41 3 42 4 40 37
-1 37 -15 50 -53 52 -23 1 -23 2 5 9 47 12 55 11 55 -5z m800 -7 c0 -6 -6 -5
-15 2 -8 7 -15 14 -15 16 0 2 7 1 15 -2 8 -4 15 -11 15 -16z m-1600 -23 c0 -8
6 -15 13 -15 7 0 18 -9 25 -20 7 -12 17 -18 22 -15 6 4 13 -1 16 -9 3 -8 14
-18 25 -21 12 -4 19 -16 19 -31 0 -20 -5 -24 -30 -24 -23 0 -30 4 -30 20 0 11
-7 20 -15 20 -8 0 -15 7 -15 15 0 8 -7 15 -15 15 -8 0 -15 7 -15 15 0 8 -7 15
-15 15 -8 0 -15 4 -15 9 0 5 -3 16 -6 25 -4 12 0 16 15 16 12 0 21 -6 21 -15z
m-2311 -38 c7 -10 22 -22 33 -26 17 -6 18 -9 5 -20 -12 -10 -17 -9 -26 1 -42
51 -61 77 -61 83 0 10 31 -15 49 -38z m4444 -3 c3 -20 0 -24 -19 -24 -19 0
-24 -5 -24 -25 0 -15 -6 -25 -14 -25 -34 0 -29 39 7 55 13 6 22 18 21 32 -1
29 23 19 29 -13z m-1745 -59 c-2 -45 -6 -55 -20 -55 -12 0 -18 -8 -18 -25 0
-18 -4 -23 -15 -19 -11 5 -15 -1 -15 -21 0 -16 -5 -25 -12 -23 -20 7 -20 26 1
47 12 12 21 28 21 36 0 8 7 15 15 15 13 0 21 33 16 64 -3 15 8 36 19 36 6 0 9
-21 8 -55z m-58 5 c0 -29 -4 -40 -15 -40 -9 0 -15 -9 -15 -25 0 -16 -6 -25
-15 -25 -8 0 -15 -7 -15 -15 0 -8 -4 -15 -10 -15 -5 0 -10 9 -10 20 0 11 5 20
10 20 6 0 10 9 10 20 0 11 7 20 15 20 8 0 15 9 15 20 0 11 6 20 13 21 10 0 10
2 0 6 -18 7 -16 33 2 33 11 0 15 -11 15 -40z m1710 20 c0 -5 -2 -10 -4 -10 -3
0 -8 5 -11 10 -3 6 -1 10 4 10 6 0 11 -4 11 -10z m-1080 -85 c0 -8 -7 -15 -15
-15 -8 0 -15 -6 -15 -13 0 -7 -11 -21 -25 -31 -13 -10 -23 -22 -20 -26 2 -4
-7 -13 -20 -20 -14 -7 -25 -19 -25 -27 0 -7 -7 -13 -15 -13 -8 0 -15 -7 -15
-15 0 -8 -9 -15 -20 -15 -11 0 -20 -7 -20 -15 0 -8 -7 -15 -15 -15 -12 0 -15
-14 -15 -70 0 -56 -3 -70 -15 -70 -12 0 -15 14 -15 70 0 43 4 70 11 70 13 0
44 30 32 31 -4 0 2 4 15 9 12 5 22 16 22 25 0 8 3 14 8 13 7 -3 52 38 52 48 0
10 28 34 39 34 6 0 11 7 11 15 0 8 6 15 14 15 8 0 16 7 20 15 3 8 10 15 16 15
5 0 10 -7 10 -15z m-1020 -30 c0 -8 -4 -15 -10 -15 -5 0 -10 7 -10 15 0 8 5
15 10 15 6 0 10 -7 10 -15z m-1054 -30 c13 -14 28 -25 34 -25 5 0 10 -4 10
-10 0 -10 64 -80 74 -80 3 0 15 -9 26 -20 16 -16 20 -33 20 -80 0 -61 19 -100
47 -100 7 0 13 -7 13 -15 0 -8 7 -15 15 -15 8 0 15 -7 15 -15 0 -8 7 -15 15
-15 8 0 15 -7 15 -15 0 -8 7 -15 15 -15 8 0 15 -7 15 -15 0 -8 5 -15 10 -15
16 0 9 -332 -7 -338 -10 -3 -13 35 -13 167 0 145 -2 171 -15 171 -8 0 -15 7
-15 15 0 8 -7 15 -15 15 -8 0 -15 5 -15 11 0 6 -18 29 -40 50 -22 22 -40 43
-40 49 0 5 -7 10 -15 10 -12 0 -15 14 -15 70 0 42 -4 70 -10 70 -13 0 -160
149 -160 161 0 15 12 10 36 -16z m1357 -12 c-7 -3 -13 -11 -13 -19 0 -8 -7
-14 -15 -14 -8 0 -15 7 -15 15 0 8 7 15 15 15 8 0 15 8 15 17 0 14 2 15 13 4
10 -11 10 -14 0 -18z m974 1 c7 -7 13 -35 13 -63 l0 -50 -47 -3 c-41 -3 -48
-6 -51 -25 -2 -13 -8 -23 -13 -23 -5 0 -9 -5 -9 -11 0 -13 -218 -229 -231
-229 -5 0 -9 7 -9 15 0 8 7 15 15 15 8 0 15 6 15 13 0 8 11 20 25 27 14 7 25
20 25 29 0 13 2 13 9 2 7 -11 10 -9 16 8 3 11 11 21 16 21 5 0 9 7 9 15 0 8 7
15 15 15 8 0 15 7 15 15 0 8 5 15 11 15 16 0 65 52 71 78 3 12 2 22 -3 22 -13
0 -11 109 2 123 15 15 88 9 106 -9z m-2977 -184 l0 -200 24 0 c13 0 24 -6 23
-12 0 -7 1 -32 1 -55 2 -36 5 -43 22 -43 16 0 20 -7 20 -35 0 -23 5 -35 14
-35 8 0 17 -11 20 -25 4 -14 13 -25 21 -25 9 0 15 -10 15 -26 0 -14 3 -23 8
-20 10 6 37 -15 45 -36 3 -10 16 -18 27 -18 11 0 20 -7 20 -15 0 -8 14 -17 34
-20 22 -5 36 -14 39 -26 4 -14 14 -19 36 -19 21 0 31 -5 31 -15 0 -12 13 -15
55 -15 48 0 55 -2 55 -20 0 -17 7 -20 45 -20 33 0 45 -4 45 -15 0 -9 9 -15 25
-15 24 0 25 -3 25 -55 0 -42 -3 -55 -15 -55 -9 0 -15 -9 -15 -25 0 -14 -4 -25
-10 -25 -5 0 -10 10 -10 23 0 17 -6 23 -22 23 -84 1 -98 4 -98 24 0 18 -7 20
-65 20 -59 0 -65 2 -65 21 0 18 -5 21 -35 17 -29 -3 -35 -1 -35 14 0 14 -8 18
-35 18 -29 0 -37 5 -45 26 -8 20 -15 25 -31 21 -15 -4 -22 1 -29 17 -5 13 -16
26 -24 29 -9 4 -16 13 -16 22 0 8 -7 15 -16 15 -9 0 -18 9 -21 20 -3 11 -10
20 -17 19 -29 -3 -55 14 -58 40 -2 18 -10 27 -25 29 -15 2 -23 10 -23 23 0 13
-7 19 -21 19 -19 0 -21 4 -16 30 8 36 0 60 -19 60 -11 0 -14 21 -14 103 0 61
4 97 9 88 13 -21 24 5 11 28 -7 13 -7 22 0 26 5 3 10 33 10 66 l0 59 30 0 c31
0 31 0 29 53 -4 98 -1 117 21 117 19 0 20 -7 20 -200z m400 190 c0 -5 7 -10
15 -10 11 0 15 -12 15 -50 0 -27 -4 -50 -10 -50 -5 0 -10 -13 -10 -30 0 -16 4
-30 10 -30 12 0 270 -259 270 -271 0 -5 4 -9 10 -9 5 0 30 -20 55 -44 l45 -44
0 -141 c0 -119 -2 -141 -15 -141 -13 0 -15 23 -15 145 0 122 -2 145 -15 145
-8 0 -15 7 -15 15 0 8 -7 15 -15 15 -8 0 -14 4 -13 8 4 10 -59 72 -72 72 -6 0
-10 4 -10 9 0 5 -25 33 -56 62 -123 119 -154 150 -154 155 0 3 -7 12 -15 20
-8 9 -15 24 -15 35 0 15 -7 19 -36 19 -19 0 -42 6 -50 14 -17 18 -18 82 -1
101 14 16 97 20 97 5z m2918 -17 c1 -15 8 -30 15 -35 9 -6 9 -8 0 -8 -9 0 -13
-16 -13 -44 0 -41 2 -45 28 -48 25 -3 27 -6 32 -63 4 -44 9 -60 20 -60 12 0
15 -18 17 -90 4 -127 -4 -175 -27 -175 -10 0 -20 -7 -24 -15 -3 -8 -1 -15 4
-15 6 0 10 -11 10 -25 0 -16 -6 -25 -16 -25 -9 0 -18 -9 -21 -20 -3 -11 -14
-20 -24 -20 -12 0 -16 -5 -13 -15 4 -8 1 -15 -5 -15 -6 0 -11 -6 -11 -14 0 -8
-11 -17 -25 -20 -26 -7 -95 -70 -95 -87 0 -5 -7 -9 -15 -9 -8 0 -15 -7 -15
-15 0 -10 -10 -15 -30 -15 -25 0 -30 -4 -30 -25 0 -25 -14 -31 -62 -27 -12 1
-18 -5 -18 -18 0 -16 -7 -20 -30 -20 -20 0 -30 -5 -30 -15 0 -12 -14 -15 -69
-15 -65 0 -70 -2 -73 -22 -3 -20 -10 -23 -53 -26 -27 -2 -65 -1 -82 3 -32 6
-33 7 -33 60 0 54 0 55 30 55 20 0 30 5 30 15 0 11 11 15 40 15 29 0 40 4 40
15 0 11 12 15 51 15 42 0 52 3 56 20 4 15 14 20 39 20 27 0 34 4 34 20 0 16 7
20 30 20 20 0 30 5 30 15 0 8 11 17 25 21 14 3 25 12 25 20 0 8 7 14 15 14 8
0 15 6 15 14 0 7 9 16 20 19 11 3 20 12 20 21 0 9 7 16 15 16 8 0 15 9 15 20
0 11 7 23 15 26 9 4 15 19 15 39 0 27 4 34 23 37 19 3 22 10 25 56 3 44 6 52
23 52 18 0 19 8 19 200 0 185 1 200 18 200 12 0 18 -9 20 -27z m-2008 -4 c0
-5 -4 -9 -10 -9 -5 0 -10 7 -10 16 0 8 5 12 10 9 6 -3 10 -10 10 -16z m-60 -4
c0 -8 7 -15 15 -15 8 0 15 -7 15 -15 0 -8 -7 -15 -15 -15 -8 0 -15 7 -15 15 0
8 -7 15 -15 15 -8 0 -15 7 -15 15 0 8 7 15 15 15 8 0 15 -7 15 -15z m800 -9
c0 -8 -9 -16 -20 -19 -11 -3 -18 -2 -17 1 2 4 7 15 10 25 7 20 27 14 27 -7z
m-690 -20 c0 -16 34 -31 50 -21 5 3 10 -1 10 -9 0 -12 11 -16 50 -16 38 0 50
-4 50 -15 0 -12 -13 -15 -55 -15 -42 0 -55 3 -55 15 0 9 -9 15 -25 15 -16 0
-25 6 -25 15 0 8 -9 15 -20 15 -11 0 -20 7 -20 15 0 8 9 15 20 15 11 0 20 -6
20 -14z m590 2 c0 -21 -47 -59 -64 -52 -25 10 -19 34 9 34 16 0 25 6 25 15 0
8 7 15 15 15 8 0 15 -6 15 -12z m-304 -47 c1 -27 -3 -40 -10 -38 -6 2 -11 23
-12 46 0 25 3 40 10 38 6 -2 11 -22 12 -46z m358 21 c-8 -2 -14 -10 -14 -18 0
-8 -9 -14 -20 -14 -11 0 -20 -7 -20 -15 0 -8 -7 -15 -15 -15 -8 0 -15 -7 -15
-15 0 -9 -9 -15 -25 -15 -16 0 -25 6 -25 15 0 9 9 15 25 15 16 0 25 6 25 15 0
8 6 15 14 15 8 0 16 7 20 15 3 8 12 15 21 15 8 0 15 7 15 15 0 13 2 14 14 3
12 -11 12 -13 0 -16z m336 7 c0 -5 -7 -9 -15 -9 -8 0 -15 -7 -15 -15 0 -8 -7
-15 -15 -15 -8 0 -15 -5 -15 -10 0 -15 -47 -60 -54 -53 -3 4 -6 2 -6 -4 0 -14
-86 -103 -99 -103 -6 0 -11 -6 -11 -14 0 -8 -7 -16 -15 -20 -12 -4 -15 -33
-15 -167 0 -124 -3 -160 -12 -157 -10 4 -14 67 -16 260 -2 221 0 257 13 262
13 4 15 -7 15 -74 0 -43 4 -81 9 -84 4 -3 16 3 26 14 10 11 22 17 26 14 5 -3
9 4 9 15 0 12 7 21 15 21 8 0 15 4 15 9 0 12 78 91 90 91 5 0 10 7 10 15 0 8
7 15 15 15 8 0 15 7 15 15 0 9 6 12 15 9 8 -4 15 -10 15 -15z m-1036 -21 c-3
-4 -9 -8 -15 -8 -5 0 -9 4 -9 8 0 5 7 9 15 9 8 0 12 -4 9 -9z m566 -23 c0 -11
-12 -15 -50 -15 -79 0 -60 25 23 29 18 1 27 -4 27 -14z m580 0 c0 -8 -9 -15
-20 -15 -20 0 -26 11 -13 23 12 13 33 7 33 -8z m-3404 -10 c-3 -8 -2 -14 2
-14 26 4 42 -5 56 -31 14 -30 14 -30 -15 -30 -21 0 -29 -5 -29 -18 0 -10 -7
-19 -15 -19 -11 0 -15 11 -15 39 0 23 5 38 12 38 9 0 9 3 0 12 -15 15 -16 38
-1 38 6 0 9 -7 5 -15z m2314 5 c0 -5 -9 -10 -20 -10 -11 0 -20 5 -20 10 0 6 9
10 20 10 11 0 20 -4 20 -10z m50 -30 c0 -5 -11 -10 -25 -10 -14 0 -25 5 -25
10 0 6 11 10 25 10 14 0 25 -4 25 -10z m190 -6 c0 -12 -6 -15 -22 -10 -13 3
-31 6 -40 6 -10 0 -18 5 -18 10 0 6 18 10 40 10 30 0 40 -4 40 -16z m170 6 c0
-5 -20 -10 -45 -10 -25 0 -45 5 -45 10 0 6 20 10 45 10 25 0 45 -4 45 -10z
m2495 -42 c5 -4 21 -8 35 -9 22 -1 22 -2 -6 -8 -17 -4 -36 -11 -43 -15 -6 -4
-18 -2 -26 4 -8 7 -21 10 -29 7 -8 -3 -17 1 -20 9 -4 10 3 14 24 14 26 0 30 4
31 28 l0 27 12 -25 c6 -14 16 -28 22 -32z m-2755 7 c0 -11 -12 -15 -50 -15
-38 0 -50 4 -50 15 0 11 12 15 50 15 38 0 50 -4 50 -15z m350 0 c0 -11 -12
-15 -45 -15 -33 0 -45 4 -45 15 0 11 12 15 45 15 33 0 45 -4 45 -15z m-97 -30
c1 -6 -45 -11 -120 -13 -106 -2 -123 0 -123 13 0 13 17 15 120 13 69 -2 121
-7 123 -13z m637 0 c0 -8 -7 -15 -15 -15 -8 0 -15 7 -15 15 0 8 7 15 15 15 8
0 15 -7 15 -15z m-1480 -12 c0 -7 7 -13 15 -13 8 0 15 -7 15 -15 0 -8 7 -15
15 -15 8 0 15 -4 15 -9 0 -13 76 -91 89 -91 6 0 11 -7 11 -15 0 -8 5 -15 10
-15 6 0 10 -58 10 -155 0 -131 -2 -155 -15 -155 -13 0 -15 24 -15 155 0 131
-2 155 -15 155 -8 0 -15 7 -15 15 0 9 -7 18 -15 21 -8 4 -15 12 -15 20 0 8 -4
14 -10 14 -13 0 -50 37 -50 50 0 6 -7 10 -15 10 -8 0 -15 7 -15 15 0 8 -7 15
-15 15 -8 0 -15 6 -15 13 0 8 7 14 15 14 8 0 15 -6 15 -14z m-1710 -23 c0 -5
-10 -10 -22 -9 -22 0 -22 1 -3 9 11 5 21 9 23 9 1 1 2 -3 2 -9z m2170 -160 c0
-144 -2 -170 -15 -170 -13 0 -15 26 -15 170 0 144 2 170 15 170 13 0 15 -26
15 -170z m550 0 c0 -144 -2 -170 -15 -170 -13 0 -15 26 -15 170 0 144 2 170
15 170 13 0 15 -26 15 -170z m430 155 c0 -8 -4 -15 -10 -15 -5 0 -10 7 -10 15
0 8 5 15 10 15 6 0 10 -7 10 -15z m-30 -25 c0 -5 -20 -30 -45 -54 -25 -25 -45
-50 -45 -56 0 -5 -7 -10 -15 -10 -12 0 -15 -26 -17 -152 -2 -110 -6 -152 -15
-156 -10 -3 -13 32 -13 152 0 132 2 156 15 156 8 0 15 4 15 9 0 11 102 120
113 121 4 0 7 -4 7 -10z m-810 -110 c0 -82 -3 -100 -15 -100 -12 0 -15 18 -15
100 0 82 3 100 15 100 12 0 15 -18 15 -100z m270 -1 c0 -76 -3 -100 -12 -97
-9 3 -14 35 -16 101 -2 82 0 97 13 97 12 0 15 -17 15 -101z m668 89 c-2 -7
-24 -34 -50 -61 -27 -26 -48 -52 -48 -57 0 -6 -7 -10 -15 -10 -13 0 -15 -26
-15 -170 0 -144 -2 -170 -15 -170 -13 0 -15 25 -15 165 l0 164 60 61 c33 33
65 60 70 60 6 0 10 7 10 15 0 8 5 15 10 15 6 0 9 -5 8 -12z m-808 -48 c0 -27
-4 -50 -10 -50 -5 0 -10 23 -10 50 0 28 5 50 10 50 6 0 10 -22 10 -50z m977
-86 c-3 -3 -12 -4 -19 -1 -8 3 -5 6 6 6 11 1 17 -2 13 -5z m-957 -26 c0 -13
125 -138 138 -138 4 0 5 -238 3 -530 -3 -511 -2 -530 15 -531 11 0 182 -1 380
0 351 0 362 -1 367 -19 5 -18 14 -20 86 -20 65 0 81 -3 81 -15 0 -13 44 -22
82 -16 13 1 20 -62 16 -164 -3 -92 -5 -105 -20 -105 -10 0 -18 6 -18 14 0 10
-16 17 -47 22 -27 5 -51 7 -55 6 -5 -1 -8 2 -8 8 0 6 -26 10 -59 10 -38 0 -61
4 -63 12 -4 10 -59 14 -217 16 -207 3 -213 2 -218 -18 -5 -19 -13 -20 -164
-20 l-159 0 0 -144 0 -144 -30 -7 c-21 -5 -30 -13 -30 -26 0 -12 -7 -19 -20
-19 -11 0 -20 -6 -20 -14 0 -7 -9 -16 -20 -19 -11 -3 -20 -12 -20 -21 0 -11
-9 -16 -30 -16 -19 0 -30 5 -30 14 0 8 -9 17 -19 21 -11 3 -22 12 -25 20 -3 8
-12 15 -21 15 -8 0 -15 9 -15 19 0 13 -9 21 -30 26 l-30 7 0 144 0 144 -160 0
c-130 0 -160 3 -160 14 0 24 -29 27 -232 25 -152 -2 -198 -5 -198 -15 0 -8
-20 -12 -67 -13 -50 0 -71 -4 -80 -16 -6 -9 -22 -16 -35 -15 -45 4 -58 0 -52
-15 5 -11 -1 -15 -21 -15 l-28 0 7 77 c3 42 6 102 6 135 l0 58 41 0 c43 0 52
-22 11 -28 -21 -3 -22 -9 -22 -93 l0 -89 40 0 c29 0 40 4 40 15 0 12 15 15 74
15 51 0 77 4 85 14 6 8 36 17 66 21 45 5 55 10 55 26 0 17 8 19 93 19 105 0
137 -6 137 -26 0 -15 8 -16 145 -19 135 -2 145 -3 145 -20 0 -18 -2 -17 71
-20 31 -1 61 -5 68 -9 7 -5 11 -50 11 -132 0 -117 1 -124 20 -124 11 0 20 -7
20 -15 0 -8 7 -15 15 -15 8 0 15 -7 15 -15 0 -8 7 -15 15 -15 8 0 15 -7 15
-15 0 -10 10 -15 30 -15 17 0 30 5 30 10 0 6 7 10 15 10 8 0 15 9 15 20 0 13
7 20 20 20 11 0 20 7 20 15 0 8 7 15 15 15 12 0 15 20 15 119 0 132 9 154 59
151 70 -5 103 0 98 14 -9 22 10 24 131 21 122 -4 152 0 152 21 0 11 24 14 120
14 113 0 120 -1 120 -20 0 -18 7 -20 60 -20 33 0 60 -4 60 -9 0 -5 34 -12 75
-16 41 -4 75 -11 75 -16 0 -5 17 -9 39 -9 l38 0 6 65 c7 72 2 95 -19 95 -8 0
-14 6 -14 14 0 19 -32 26 -117 26 -53 0 -72 3 -70 13 1 9 -85 13 -400 15
l-403 2 0 485 c0 478 0 485 -20 485 -13 0 -20 7 -20 20 0 11 -7 20 -15 20 -8
0 -15 5 -15 10 0 6 -5 10 -11 10 -13 0 -39 25 -39 38 0 5 -8 9 -17 9 -20 0
-43 -20 -43 -36 0 -6 -11 -11 -25 -11 -18 0 -25 -5 -25 -20 0 -11 -5 -20 -11
-20 -6 0 -17 -6 -25 -14 -12 -12 -14 -92 -14 -495 l0 -481 -395 0 c-386 0
-395 0 -395 20 0 19 8 19 248 19 136 -1 307 -1 380 0 l133 1 -3 528 -3 527 24
23 c13 12 28 22 32 22 5 0 9 7 9 15 0 8 7 15 15 15 9 0 18 7 21 15 3 8 14 17
24 20 10 3 20 15 23 25 6 22 57 29 57 8z m918 -9 c-10 -5 -18 -17 -18 -24 0
-8 -7 -15 -15 -15 -8 0 -15 -7 -15 -15 0 -8 -7 -15 -15 -15 -13 0 -15 -22 -15
-140 0 -118 -2 -140 -15 -140 -13 0 -15 23 -15 145 0 122 2 145 15 145 8 0 15
8 15 17 0 9 3 13 7 10 3 -4 13 2 20 13 8 11 19 18 24 15 5 -4 9 -1 9 4 0 6 8
11 18 11 16 -1 16 -1 0 -11z m-2928 -34 c0 -8 -9 -15 -20 -15 -11 0 -20 7 -20
15 0 8 9 15 20 15 11 0 20 -7 20 -15z m868 -2 c6 -6 12 -34 12 -62 0 -41 -4
-51 -20 -56 -32 -10 -23 -44 24 -90 25 -23 49 -44 54 -46 6 -3 6 -14 -1 -29
l-10 -25 -5 24 c-2 13 -12 26 -23 28 -10 3 -19 12 -19 19 0 8 -7 14 -15 14 -8
0 -15 7 -15 15 0 8 -7 15 -15 15 -10 0 -15 11 -15 35 0 33 -2 35 -35 35 l-35
0 0 50 c0 30 6 57 15 67 18 21 83 24 103 6z m2338 3 c19 -20 18 -91 -2 -110
-8 -9 -29 -16 -45 -16 -26 0 -29 -3 -29 -30 0 -16 -4 -30 -9 -30 -5 0 -11 -9
-14 -20 -3 -11 -12 -20 -21 -20 -9 0 -16 -7 -16 -15 0 -8 -7 -15 -15 -15 -8 0
-15 -9 -15 -20 0 -11 -7 -20 -15 -20 -9 0 -15 9 -15 25 0 15 6 25 14 25 8 0
16 7 20 15 3 8 12 15 21 15 8 0 15 7 15 15 0 8 7 15 15 15 10 0 15 11 15 35 0
24 -5 35 -15 35 -12 0 -15 13 -15 58 l0 59 47 2 c26 1 49 3 51 6 8 8 12 6 28
-9z m154 -11 c0 -20 -5 -25 -25 -25 -20 0 -25 5 -25 25 0 20 5 25 25 25 20 0
25 -5 25 -25z m640 4 c0 -25 -33 -22 -38 4 -2 12 3 17 17 17 15 0 21 -6 21
-21z m-3350 -9 c0 -13 -7 -20 -20 -20 -13 0 -20 7 -20 20 0 13 7 20 20 20 13
0 20 -7 20 -20z m-660 -65 c0 -11 -12 -15 -45 -15 -43 0 -45 -1 -45 -29 0 -50
9 -61 51 -61 l39 0 0 44 c0 25 4 47 9 50 9 6 21 -40 21 -80 0 -13 3 -24 8 -24
15 0 34 -42 24 -52 -7 -7 -15 -3 -24 11 -10 17 -23 21 -66 21 -65 0 -82 14
-82 70 0 51 15 67 66 73 21 2 40 4 42 5 1 1 2 -5 2 -13z m4088 -53 c3 -42 0
-62 -8 -62 -6 0 -8 -4 -5 -10 4 -6 -18 -10 -59 -10 -36 0 -66 -4 -66 -9 0 -14
-29 -21 -36 -9 -5 7 -2 8 6 3 10 -6 12 -3 8 13 -4 15 -2 22 8 22 10 0 14 14
14 55 0 44 3 53 15 49 10 -4 15 -20 15 -50 l0 -44 45 0 45 0 0 45 0 45 -45 0
c-34 0 -45 4 -45 16 0 13 10 15 53 12 l52 -3 3 -63z m-1070 36 c-5 -34 -38
-37 -38 -4 0 20 5 26 21 26 15 0 20 -5 17 -22z m-721 -78 c12 -13 30 -20 55
-20 27 0 38 -4 38 -15 0 -10 11 -15 35 -15 24 0 35 -5 35 -15 0 -11 11 -15 40
-15 33 0 40 -3 40 -20 0 -15 7 -20 25 -20 15 0 25 -6 25 -15 0 -10 14 -17 40
-21 23 -4 40 -12 40 -20 0 -7 10 -14 23 -16 20 -3 22 -9 25 -75 2 -72 2 -73
-23 -73 -14 0 -25 6 -25 13 0 16 -36 47 -55 47 -8 0 -15 5 -15 11 0 17 -40 49
-60 49 -10 0 -20 10 -23 21 -5 17 -12 21 -36 17 -21 -3 -31 0 -31 8 0 16 -50
43 -67 37 -6 -2 -14 1 -18 6 -3 6 -26 11 -51 11 -27 0 -52 6 -61 15 -8 8 -19
13 -24 10 -5 -4 -9 -1 -9 4 0 6 7 11 15 11 8 0 15 5 15 11 0 6 -7 9 -15 5 -12
-4 -15 3 -15 33 0 21 3 41 7 44 13 14 54 6 70 -13z m-537 -35 c0 -34 -3 -43
-14 -39 -8 3 -16 -4 -20 -20 -6 -23 -12 -26 -46 -26 -22 0 -48 -4 -58 -9 -9
-6 -34 -13 -54 -16 -29 -4 -38 -11 -38 -25 0 -16 -7 -20 -35 -20 -28 0 -35 -4
-35 -19 0 -14 -10 -21 -35 -25 -26 -5 -35 -12 -35 -26 0 -16 -7 -20 -35 -20
-34 0 -43 -12 -36 -52 0 -5 -10 -8 -23 -8 -22 0 -24 5 -28 54 -4 71 0 86 22
86 12 0 20 8 22 23 2 18 10 23 46 25 28 2 42 8 42 18 0 8 9 14 21 14 12 0 23
8 26 20 4 16 14 20 44 20 28 0 39 4 39 15 0 10 11 15 35 15 24 0 35 5 35 15 0
11 11 15 35 15 22 0 38 6 41 15 4 10 20 15 45 15 l39 0 0 -45z m-2782 -13 c2
-15 -2 -22 -12 -22 -11 0 -16 9 -16 26 0 31 23 28 28 -4z m5992 -3 c0 -5 5 -7
12 -3 7 5 8 3 3 -5 -4 -7 -16 -11 -26 -8 -11 3 -19 1 -19 -4 0 -5 -7 -9 -16
-9 -12 0 -11 5 7 20 27 22 39 25 39 9z m-5950 -13 c0 -8 9 -18 20 -21 11 -3
20 -13 20 -20 0 -8 -9 -13 -20 -12 -11 1 -20 5 -20 11 0 5 -7 14 -17 21 -9 7
-13 17 -9 23 10 17 26 15 26 -2z m1070 -26 c0 -5 -4 -10 -10 -10 -5 0 -10 5
-10 10 0 6 5 10 10 10 6 0 10 -4 10 -10z m-290 -70 c0 -5 7 -7 15 -4 12 5 15
-5 15 -57 l0 -62 249 -249 248 -248 156 0 c128 0 156 -3 161 -15 5 -13 -17
-15 -159 -15 l-164 0 -236 237 c-129 131 -235 241 -235 245 0 4 -7 8 -15 8 -8
0 -15 7 -15 15 0 12 -13 15 -61 15 -50 0 -60 3 -56 15 4 8 2 17 -3 20 -17 10
-12 65 5 65 10 0 15 -11 15 -35 0 -34 1 -35 40 -35 l40 0 0 40 c0 39 -1 40
-35 40 -24 0 -35 5 -35 15 0 10 11 15 35 15 19 0 35 -4 35 -10z m1910 -16 c0
-20 -4 -25 -16 -20 -9 3 -22 6 -30 6 -8 0 -14 9 -14 20 0 16 7 20 30 20 26 0
30 -4 30 -26z m620 6 c0 -16 -7 -20 -35 -20 -28 0 -35 4 -35 20 0 16 7 20 35
20 28 0 35 -4 35 -20z m1960 -27 c0 -88 -4 -93 -71 -93 l-59 0 0 64 c0 73 1
74 78 75 l52 1 0 -47z m-5402 -35 c7 -29 14 -34 48 -39 33 -5 36 -7 17 -14
-18 -6 -21 -12 -16 -36 7 -38 -2 -37 -22 2 -14 25 -21 30 -41 25 -26 -7 -34 8
-10 17 11 4 13 16 9 41 -7 45 4 47 15 4z m2292 -18 c0 -5 7 -10 15 -10 12 0
15 -14 15 -70 l0 -70 -31 0 c-22 0 -32 5 -36 20 -3 11 -12 20 -20 20 -13 0
-15 -14 -11 -87 2 -49 2 -81 0 -72 -1 10 -12 19 -23 22 -19 5 -20 12 -17 101
2 53 0 96 -4 96 -5 0 -8 14 -8 30 l0 30 60 0 c33 0 60 -4 60 -10z m1731 -2 c7
-59 -5 -244 -16 -254 -7 -7 -15 -10 -19 -7 -3 4 -6 -1 -6 -10 0 -9 -7 -17 -15
-17 -8 0 -15 9 -15 20 0 11 -7 20 -15 20 -18 0 -20 20 -2 21 6 1 19 2 27 3 11
1 16 16 17 61 1 33 0 54 -3 48 -4 -9 -11 -10 -25 -3 -18 10 -24 4 -21 -21 1
-4 -10 -6 -23 -5 -24 1 -25 4 -25 69 0 53 3 67 15 67 8 0 15 5 15 10 0 15 110
13 111 -2z m2193 0 c-3 -4 -14 -8 -25 -8 -11 0 -18 4 -14 9 3 6 14 9 25 8 10
-1 16 -5 14 -9z m-72 -40 c-7 -7 -10 -5 -7 8 5 29 6 30 12 16 3 -8 1 -18 -5
-24z m-5922 6 c0 -8 -4 -12 -10 -9 -5 3 -10 10 -10 16 0 5 5 9 10 9 6 0 10 -7
10 -16z m5989 0 c2 -2 2 -6 0 -9 -8 -7 -49 7 -49 17 0 8 38 2 49 -8z m31 -9
c-7 -9 -15 -13 -17 -11 -7 7 7 26 19 26 6 0 6 -6 -2 -15z m-996 -38 c-19 -18
-34 -38 -34 -44 0 -7 -5 -13 -11 -13 -14 0 -75 -61 -71 -72 1 -4 -3 -8 -8 -8
-6 0 -87 -76 -179 -170 l-169 -170 -161 0 c-136 0 -161 2 -161 15 0 13 24 15
160 15 100 0 160 4 160 10 0 6 5 10 10 10 13 0 100 88 100 101 0 5 7 9 15 9 8
0 15 7 15 16 0 8 5 12 10 9 6 -3 10 1 10 9 0 9 7 16 15 16 8 0 15 5 15 10 0
13 57 70 70 70 6 0 10 7 10 15 0 8 7 15 15 15 8 0 15 4 15 9 0 6 34 43 76 83
42 40 83 80 91 90 9 9 22 14 29 11 9 -3 1 -15 -22 -36z m-5024 13 c0 -5 -4
-10 -9 -10 -6 0 -13 5 -16 10 -3 6 1 10 9 10 9 0 16 -4 16 -10z m5387 -25 c18
-18 17 -103 -1 -121 -17 -16 -79 -19 -106 -4 -17 9 -52 -22 -265 -235 -135
-135 -250 -245 -255 -245 -6 0 -10 -7 -10 -15 0 -8 -7 -15 -15 -15 -8 0 -15
-7 -15 -15 0 -14 -39 -15 -315 -15 -268 1 -315 3 -315 16 0 12 32 14 203 14
198 0 203 1 222 23 11 12 19 25 17 30 -1 4 5 7 13 7 8 0 15 7 15 15 0 8 7 15
15 15 8 0 15 7 15 15 0 8 7 15 15 15 8 0 15 6 15 14 0 7 9 16 20 19 11 3 19
11 18 17 -5 22 19 22 25 0 4 -15 0 -20 -14 -20 -10 0 -19 -5 -19 -11 0 -14
-96 -109 -110 -109 -6 0 -10 -7 -10 -15 0 -12 16 -15 86 -15 l86 0 80 80 c44
44 83 80 89 80 5 0 9 5 9 10 0 10 36 50 44 50 3 0 31 27 64 60 33 32 62 56 66
53 3 -4 6 1 6 9 0 9 7 19 16 22 8 3 12 10 9 16 -3 5 -1 10 4 10 13 0 165 151
167 165 1 6 2 20 3 33 1 15 7 22 21 22 13 0 20 7 20 19 0 15 7 19 37 19 20 0
42 -6 50 -13z m-4921 -10 c4 -8 12 -15 20 -15 8 0 15 -6 15 -12 1 -7 2 -17 4
-23 1 -5 3 -18 3 -27 1 -10 9 -18 17 -18 8 0 15 -5 15 -10 0 -13 57 -70 70
-70 6 0 10 -5 10 -10 0 -14 57 -69 64 -62 3 3 6 -2 6 -11 0 -9 7 -17 15 -17 8
0 15 -7 15 -15 0 -8 7 -15 16 -15 8 0 12 -4 9 -10 -3 -5 1 -10 9 -10 9 0 16
-6 16 -13 0 -8 11 -19 24 -26 13 -7 30 -24 37 -37 7 -13 16 -24 20 -24 4 0 46
-38 93 -85 46 -47 89 -85 95 -85 6 0 11 -7 11 -15 0 -12 17 -15 90 -15 66 0
90 3 90 13 0 14 -35 47 -50 47 -6 0 -10 7 -10 15 0 8 -7 15 -15 15 -8 0 -15 7
-15 15 0 8 -7 15 -15 15 -9 0 -18 7 -21 15 -4 10 -13 13 -25 10 -11 -4 -19 -2
-19 5 0 6 5 8 10 5 6 -3 10 1 10 9 0 29 20 17 95 -59 41 -41 79 -75 84 -75 6
0 11 -7 11 -15 0 -13 29 -15 200 -15 181 0 230 -6 184 -24 -9 -3 -148 -6 -310
-6 l-293 0 -275 275 c-247 247 -306 298 -306 265 0 -16 -89 -12 -106 4 -20 20
-18 85 4 107 22 23 90 25 98 4z m-751 -24 c-3 -6 -11 -8 -17 -5 -6 4 -5 9 3
15 16 10 23 4 14 -10z m35 9 c0 -5 -5 -10 -11 -10 -5 0 -7 5 -4 10 3 6 8 10
11 10 2 0 4 -4 4 -10z m6077 -26 c-3 -3 -12 -4 -19 -1 -8 3 -5 6 6 6 11 1 17
-2 13 -5z m234 -8 c5 3 9 -2 9 -10 0 -9 -7 -16 -15 -16 -9 0 -15 9 -14 23 0
12 3 16 6 9 2 -6 9 -10 14 -6z m-6363 -8 c17 -17 15 -38 -3 -38 -9 0 -12 6 -9
15 4 8 1 15 -5 15 -6 0 -11 5 -11 10 0 14 13 13 28 -2z m6327 -28 c3 -5 1 -10
-4 -10 -6 0 -11 5 -11 10 0 6 2 10 4 10 3 0 8 -4 11 -10z m-6265 -22 c0 -6 -7
-7 -16 -4 -9 3 -18 6 -20 6 -3 0 -3 4 1 10 7 11 35 2 35 -12z m6341 -22 c-9
-11 -9 -15 1 -19 8 -4 7 -6 -4 -6 -12 -1 -18 6 -18 19 0 12 7 20 16 20 13 0
14 -3 5 -14z m-6396 -36 c25 6 35 4 39 -6 4 -11 -5 -14 -38 -14 -45 0 -58 11
-47 40 4 11 7 10 9 -6 3 -19 7 -21 37 -14z m6362 14 c-3 -3 -12 -4 -19 -1 -8
3 -5 6 6 6 11 1 17 -2 13 -5z m-40 -10 c-3 -3 -12 -4 -19 -1 -8 3 -5 6 6 6 11
1 17 -2 13 -5z m38 -24 c-3 -5 -15 -10 -26 -10 -10 0 -19 5 -19 10 0 6 12 10
26 10 14 0 23 -4 19 -10z m-6405 -20 c0 -5 -6 -10 -14 -10 -8 0 -18 5 -21 10
-3 6 3 10 14 10 12 0 21 -4 21 -10z m4170 -17 c0 -14 -3 -23 -7 -19 -10 10
-11 46 -1 46 4 0 8 -12 8 -27z m-4135 -3 c4 -6 -5 -10 -20 -10 -15 0 -24 4
-20 10 3 6 12 10 20 10 8 0 17 -4 20 -10z m2255 -10 c0 -11 -7 -20 -15 -20
-27 0 -18 30 13 39 1 1 2 -8 2 -19z m-2170 -92 c0 -19 -18 -44 -25 -36 -4 3 0
15 7 27 15 24 18 26 18 9z m34 -3 c-4 -8 -7 -15 -9 -15 -2 0 -5 7 -9 15 -3 9
0 15 9 15 9 0 12 -6 9 -15z m549 -25 c9 -11 17 -26 17 -34 0 -16 21 -26 56
-26 13 0 24 -4 24 -10 0 -13 377 -390 390 -390 5 0 10 -5 10 -11 0 -6 16 -26
35 -45 19 -18 35 -31 35 -28 0 4 9 -4 19 -17 l19 -24 323 0 c249 0 323 -3 326
-12 4 -10 -66 -13 -326 -13 l-331 0 -60 60 c-33 33 -64 60 -70 60 -5 0 -10 4
-10 10 0 5 -88 97 -194 205 -152 152 -201 195 -220 195 -16 0 -26 -6 -26 -15
0 -12 -13 -15 -60 -15 -47 0 -60 3 -60 15 0 8 -4 15 -10 15 -5 0 -10 18 -10
40 0 29 4 40 15 40 8 0 15 5 15 10 0 19 75 11 93 -10z m5148 1 c3 -38 -4 -76
-13 -82 -6 -4 -7 -12 -4 -18 4 -6 0 -11 -11 -11 -10 0 -35 -3 -55 -6 -31 -5
-38 -4 -38 10 0 12 -10 16 -40 16 -22 0 -40 -4 -40 -10 0 -5 -6 -10 -14 -10
-8 0 -18 -9 -21 -20 -3 -11 -13 -20 -21 -20 -8 0 -14 -5 -14 -11 0 -13 -408
-419 -421 -419 -5 0 -9 -7 -9 -15 0 -13 -44 -15 -335 -15 -293 0 -334 2 -329
15 5 13 51 15 330 15 209 0 324 4 324 10 0 6 7 10 15 10 8 0 15 7 15 15 0 8 7
15 15 15 8 0 15 7 15 15 0 8 7 15 15 15 8 0 15 7 15 15 0 8 7 15 15 15 8 0 15
7 15 15 0 8 7 15 15 15 8 0 15 5 15 10 0 6 11 22 25 35 13 14 29 25 35 25 5 0
10 7 10 15 0 8 7 15 15 15 8 0 15 7 15 15 0 8 5 15 11 15 15 0 59 42 59 58 0
6 5 12 11 12 6 0 17 7 25 15 9 8 13 15 10 15 -3 0 3 9 14 20 11 11 22 20 24
20 9 0 66 59 66 69 0 6 7 11 15 11 8 0 15 7 15 15 0 10 10 15 28 15 36 0 48
10 46 38 -1 13 4 22 13 22 8 0 12 4 9 9 -3 5 21 9 54 9 48 0 60 -4 61 -17z
m-4431 -61 c0 -5 -9 -10 -19 -10 -11 0 -21 -6 -23 -12 -3 -7 -7 -2 -10 10 -5
19 -2 22 23 22 16 0 29 -4 29 -10z m3660 -5 c0 -10 -9 -14 -25 -13 -14 1 -25
8 -25 15 0 7 11 13 25 13 15 0 25 -6 25 -15z m-4899 -58 c-10 -9 -11 -8 -5 6
3 10 9 15 12 12 3 -3 0 -11 -7 -18z m219 -16 c0 -19 -23 -35 -34 -24 -14 15
-5 43 14 43 13 0 20 -7 20 -19z m6175 -9 c-3 -3 -11 0 -18 7 -9 10 -8 11 6 5
10 -3 15 -9 12 -12z m-55 -12 c0 -5 5 -9 11 -7 6 1 14 -4 17 -12 3 -11 0 -12
-14 -6 -11 4 -32 10 -48 13 -20 3 -24 7 -15 13 19 12 49 11 49 -1z m5 -60 c3
-5 -1 -10 -10 -10 -9 0 -13 5 -10 10 3 6 8 10 10 10 2 0 7 -4 10 -10z m-6485
-26 c0 -8 -5 -12 -10 -9 -6 4 -8 11 -5 16 9 14 15 11 15 -7z m6030 -34 c0 -13
-7 -20 -20 -20 -11 0 -20 5 -20 11 0 5 5 7 10 4 6 -3 10 -2 10 4 0 5 -6 12
-12 14 -7 3 -3 6 10 6 16 1 22 -5 22 -19z m-5458 -37 l3 -28 128 -3 c104 -2
127 -5 127 -17 0 -8 4 -15 8 -15 8 0 49 -39 96 -92 14 -16 30 -28 36 -28 5 0
10 -5 10 -11 0 -14 25 -39 39 -39 6 0 11 -7 11 -15 0 -8 6 -15 13 -15 8 0 19
-10 26 -23 6 -12 25 -31 41 -42 17 -11 30 -24 30 -28 0 -12 27 -37 39 -37 6 0
11 -7 11 -15 0 -8 6 -15 14 -15 8 0 16 -7 20 -15 5 -13 57 -15 391 -15 301 0
385 -3 385 -12 0 -10 -83 -12 -388 -10 l-389 2 -210 209 -210 209 -114 -2
c-113 -1 -114 -1 -119 -26 -5 -24 -9 -26 -65 -25 l-60 0 -3 68 -3 67 65 0 c63
0 65 -1 68 -27z m5349 5 c1 -30 -2 -112 -5 -115 -1 -1 -28 1 -60 4 -46 5 -60
10 -64 25 -5 21 2 20 -136 18 l-109 -2 -175 -174 c-96 -96 -178 -174 -183
-174 -5 0 -9 -4 -9 -10 0 -5 -9 -19 -20 -30 -19 -19 -33 -20 -404 -20 -246 0
-387 4 -391 10 -4 7 125 10 380 10 333 0 386 2 391 15 4 8 9 13 14 10 4 -2 13
7 20 20 7 14 19 25 27 25 7 0 13 7 13 15 0 8 6 15 14 15 8 0 18 9 21 20 3 11
13 20 21 20 8 0 14 7 14 15 0 8 7 15 15 15 8 0 15 4 15 10 0 12 148 160 160
160 6 0 10 7 10 15 0 8 5 15 11 15 14 0 39 25 39 39 0 7 44 11 129 11 l129 0
7 30 c6 29 8 30 66 30 54 0 59 -2 60 -22z m-3683 -10 c-7 -20 -148 -22 -148
-3 0 12 16 15 76 15 56 0 75 -3 72 -12z m711 -24 c32 -28 0 -78 -46 -72 -22 2
-27 9 -30 36 -3 24 0 32 11 32 9 0 16 5 16 10 0 15 28 12 49 -6z m-1343 -9 c4
-8 10 -15 16 -15 5 0 19 -11 32 -25 22 -24 28 -25 145 -25 101 0 121 -2 121
-15 0 -13 -20 -15 -120 -15 l-121 0 -49 48 c-28 27 -50 52 -50 55 0 13 21 7
26 -8z m1870 1 c23 -23 17 -53 -11 -60 -27 -7 -43 4 -63 41 -10 18 -9 22 6 26
34 9 54 7 68 -7z m1255 -45 c-17 -16 -31 -34 -31 -40 0 -7 -42 -11 -130 -11
-109 0 -130 2 -130 15 0 13 20 15 120 15 127 0 123 -1 180 56 9 9 16 10 18 4
2 -6 -10 -23 -27 -39z m-4961 -161 c0 -5 6 -10 13 -10 7 0 13 -11 12 -27 0
-20 6 -29 20 -31 11 -2 25 -8 30 -13 6 -7 -13 -9 -55 -7 l-65 3 -3 48 c-3 45
-2 47 22 47 15 0 26 -4 26 -10z m273 -10 c3 -11 1 -20 -4 -20 -5 0 -9 9 -9 20
0 11 2 20 4 20 2 0 6 -9 9 -20z m-193 -19 c0 -24 -1 -24 -15 -5 -18 24 -19 31
0 31 9 0 15 -10 15 -26z m2202 -13 c-7 -7 -12 -8 -12 -2 0 14 12 26 19 19 2
-3 -1 -11 -7 -17z m-2015 -20 c-3 -8 -6 -5 -6 6 -1 11 2 17 5 13 3 -3 4 -12 1
-19z m3890 16 c-3 -3 -12 -4 -19 -1 -8 3 -5 6 6 6 11 1 17 -2 13 -5z m-3413
-50 c3 -9 6 -24 6 -35 0 -20 12 -23 78 -19 17 1 32 -3 32 -9 0 -14 137 -151
150 -151 6 0 10 -7 10 -15 0 -8 7 -15 15 -15 8 0 15 -7 15 -15 0 -13 73 -15
600 -15 527 0 600 -2 600 -15 0 -13 -74 -15 -605 -15 -427 0 -605 3 -605 11 0
14 -165 179 -179 179 -6 0 -11 7 -11 15 0 11 -12 15 -50 15 -38 0 -50 -4 -50
-15 0 -12 -14 -15 -65 -15 l-65 0 0 58 c0 32 3 62 7 65 3 4 30 7 59 7 38 0 53
-4 58 -16z m2222 -2 c-15 -3 -16 -6 -5 -13 9 -6 -5 -9 -41 -9 -30 0 -62 5 -70
10 -26 17 3 25 71 21 35 -2 55 -6 45 -9z m3234 -47 l0 -65 -59 0 c-43 0 -60 4
-65 15 -6 17 -116 22 -116 5 0 -5 -27 -36 -60 -68 -33 -33 -60 -64 -60 -70 0
-7 -7 -12 -15 -12 -8 0 -15 -7 -15 -15 0 -8 -7 -15 -15 -15 -8 0 -15 -7 -15
-15 0 -13 -72 -15 -607 -13 -474 2 -607 6 -611 16 -3 9 121 12 599 12 l602 0
39 40 c21 23 38 45 38 50 0 6 5 10 11 10 6 0 24 13 40 29 16 16 29 34 29 40 0
6 7 11 15 11 8 0 15 6 15 14 0 13 43 29 66 25 32 -6 54 3 54 20 0 44 10 51 71
51 l59 0 0 -65z m-3097 24 c7 -1 20 -1 30 0 13 2 17 -5 17 -34 0 -36 -1 -37
-32 -31 -18 3 -49 8 -68 11 -38 7 -54 23 -40 41 6 6 7 14 3 17 -3 4 10 7 30 7
22 0 37 5 38 13 1 6 3 4 6 -5 2 -10 10 -19 16 -19z m822 22 c-3 -5 3 -12 12
-14 10 -3 -7 -5 -37 -4 -34 0 -44 2 -25 5 l30 5 -25 7 c-22 7 -20 8 13 9 21 1
36 -3 32 -8z m-1357 -8 c-10 -2 -28 -2 -40 0 -13 2 -5 4 17 4 22 1 32 -1 23
-4z m1742 -3 c0 -5 -2 -10 -4 -10 -3 0 -8 5 -11 10 -3 6 -1 10 4 10 6 0 11 -4
11 -10z m-4130 -15 c7 -9 11 -17 8 -20 -2 -2 -12 4 -21 15 -9 11 -13 20 -8 20
5 0 14 -7 21 -15z m3807 9 c-3 -3 -12 -4 -19 -1 -8 3 -5 6 6 6 11 1 17 -2 13
-5z m2640 -16 c-3 -8 -6 -5 -6 6 -1 11 2 17 5 13 3 -3 4 -12 1 -19z m-4074
-10 c-19 -24 -32 -77 -22 -84 7 -4 7 -10 0 -17 -15 -15 -14 -47 2 -47 7 -1 5
-6 -5 -14 -22 -16 -23 -36 -3 -36 12 0 15 -15 15 -75 0 -68 2 -75 20 -75 17 0
20 -7 20 -41 0 -36 2 -40 20 -34 13 4 22 1 26 -9 3 -9 12 -16 20 -16 8 0 14
-7 14 -15 0 -8 9 -15 20 -15 11 0 20 -4 20 -10 0 -5 9 -10 20 -10 13 0 20 -7
20 -20 0 -19 7 -20 90 -20 83 0 90 1 90 20 0 15 7 20 28 20 42 0 72 11 72 26
0 8 9 14 20 14 11 0 20 7 20 15 0 9 9 15 25 15 21 0 25 -5 25 -30 0 -20 -5
-30 -15 -30 -9 0 -15 -9 -15 -25 0 -23 -3 -25 -49 -25 -49 0 -70 -17 -54 -43
4 -7 0 -8 -12 -4 -9 4 -39 4 -66 1 -35 -5 -50 -12 -54 -25 -7 -22 -21 -24 -58
-6 -17 8 -27 20 -27 35 0 15 -6 22 -20 22 -11 0 -20 -7 -20 -15 0 -11 -11 -15
-37 -16 -45 -1 -68 -9 -69 -26 -1 -7 -2 -22 -2 -33 -2 -23 -41 -42 -58 -29 -6
5 -13 7 -16 4 -14 -14 -32 34 -36 97 -3 62 -2 70 12 65 9 -4 16 -2 16 3 0 6
-9 10 -20 10 -11 0 -20 -4 -20 -10 0 -5 -5 -10 -11 -10 -5 0 -7 6 -3 13 5 7
-2 5 -16 -4 -14 -9 -25 -21 -25 -27 0 -6 -3 -13 -6 -17 -4 -3 -6 17 -6 44 0
46 1 49 28 55 23 4 28 10 26 33 -2 21 2 28 16 27 16 -2 17 7 15 100 -3 87 -5
101 -20 101 -9 0 -20 4 -25 8 -4 5 -3 8 2 7 21 -5 36 0 30 10 -4 6 -10 8 -15
5 -5 -3 -11 -1 -14 4 -7 11 22 23 35 15 5 -3 9 20 9 50 0 38 4 56 13 57 10 0
10 2 0 6 -19 7 -16 31 5 36 30 8 35 7 25 -5z m1199 -11 c6 -29 -8 -41 -49 -45
-31 -2 -33 0 -33 33 0 34 1 35 39 35 32 0 39 -4 43 -23z m568 -57 c0 -38 -3
-70 -7 -70 -17 0 -35 18 -29 29 4 6 2 9 -6 6 -10 -4 -14 9 -15 50 -2 55 -2 55
28 55 l29 0 0 -70z m2307 28 c-3 -8 -6 -5 -6 6 -1 11 2 17 5 13 3 -3 4 -12 1
-19z m-4140 -84 c-3 -3 -12 -4 -19 -1 -8 3 -5 6 6 6 11 1 17 -2 13 -5z m-1917
-55 c0 -25 -33 -22 -38 4 -2 12 3 17 17 17 15 0 21 -6 21 -21z m178 -7 c3 -17
-2 -22 -17 -22 -14 0 -21 6 -21 18 0 38 33 41 38 4z m5370 0 c3 -16 -2 -22
-17 -22 -24 0 -35 15 -27 36 9 23 40 13 44 -14z m172 8 c0 -13 -7 -20 -20 -20
-13 0 -20 7 -20 20 0 13 7 20 20 20 13 0 20 -7 20 -20z m-6422 -222 l-3 -233
-232 -3 -233 -2 0 235 0 235 235 0 235 0 -2 -232z m7552 95 c0 -76 -3 -182 -7
-235 l-6 -98 -229 0 -228 0 0 235 0 235 235 0 235 0 0 -137z m-3104 7 c-3 -65
-1 -102 6 -106 7 -4 8 -2 4 4 -4 7 -1 12 7 12 9 0 12 -9 9 -30 -4 -25 -1 -30
17 -30 12 0 24 -7 27 -15 4 -8 10 -13 14 -10 11 7 24 -14 26 -40 1 -21 -30
-55 -53 -55 -7 0 -13 11 -13 25 0 18 -5 25 -20 25 -11 0 -20 -4 -20 -10 0 -5
-11 -10 -25 -10 -14 0 -25 -5 -25 -10 0 -6 11 -8 25 -6 14 3 25 3 25 1 0 -9
-40 -89 -40 -80 0 6 -8 -1 -18 -15 -9 -14 -25 -26 -34 -26 -15 -2 -18 6 -18
42 l0 44 -55 0 c-42 0 -55 3 -55 15 0 28 -35 12 -41 -19 -3 -12 -13 -20 -29
-21 -14 -1 -36 -5 -50 -9 -17 -5 -21 -4 -11 2 27 19 0 32 -66 32 -54 0 -64 3
-59 15 3 9 0 15 -10 15 -8 0 -17 7 -20 15 -4 10 -20 15 -44 15 -41 0 -46 7
-49 63 -1 23 3 27 25 27 19 0 25 -4 20 -15 -4 -11 2 -15 22 -15 19 0 23 -3 14
-9 -19 -12 8 -21 64 -21 31 0 44 -4 44 -14 0 -8 -6 -17 -12 -19 -7 -3 29 -6
80 -6 75 -1 92 2 92 14 0 8 9 15 20 15 11 0 20 4 20 9 0 5 13 14 30 19 19 7
28 16 24 25 -5 15 27 30 59 27 16 -1 23 20 18 58 -1 7 8 16 21 21 13 4 22 11
21 15 -2 3 -3 35 -3 71 0 59 2 65 20 65 20 0 20 -5 16 -100z m44 80 c0 -5 -5
-10 -11 -10 -5 0 -7 5 -4 10 3 6 8 10 11 10 2 0 4 -4 4 -10z m-3716 -125 c4
-15 14 -25 24 -25 9 0 365 -1 789 -2 608 -2 773 -6 773 -15 0 -10 -168 -13
-787 -15 -624 -2 -787 -6 -785 -15 1 -7 -2 -13 -8 -13 -5 0 -10 -7 -10 -15 0
-12 -13 -15 -59 -15 -52 0 -59 2 -65 23 -8 30 -8 102 1 110 3 4 32 7 64 7 52
0 57 -2 63 -25z m5664 -14 c2 -19 1 -50 -3 -68 -6 -33 -6 -33 -63 -33 -54 0
-58 2 -70 30 l-14 30 -784 0 c-711 0 -784 1 -784 16 0 14 71 16 781 12 825 -5
809 -6 809 38 0 12 13 14 63 12 l62 -3 3 -34z m-2789 -43 c5 -13 6 -29 4 -35
-3 -8 3 -13 16 -13 22 0 30 -29 9 -31 -10 0 -10 -2 0 -6 6 -2 12 -18 12 -34 0
-22 4 -27 16 -22 10 4 17 -1 21 -15 3 -12 14 -24 24 -27 22 -7 25 -21 7 -28
-9 -4 -10 -8 -2 -14 6 -4 13 -16 17 -26 4 -10 11 -15 17 -12 5 3 15 -5 22 -19
11 -25 23 -31 60 -28 14 1 16 -9 15 -71 l-2 -72 33 -3 c29 -3 32 -6 26 -30 -9
-38 -14 -44 -30 -38 -11 4 -14 -11 -14 -78 0 -66 -3 -85 -15 -90 -19 -7 -29
15 -23 49 7 32 -10 32 -22 0 -5 -14 -16 -25 -25 -25 -9 0 -15 -9 -15 -21 0
-15 -5 -19 -15 -15 -8 3 -15 0 -15 -7 0 -8 -4 -6 -10 3 -5 8 -10 36 -10 63 0
43 -2 47 -24 47 -23 0 -25 -4 -28 -52 -3 -49 -5 -53 -30 -56 -27 -3 -28 -2
-28 42 0 46 0 46 -35 46 l-35 0 0 -70 0 -70 -30 0 -30 0 0 70 c0 39 -2 70 -4
70 -2 0 -11 2 -18 5 -16 6 -58 -26 -58 -44 0 -6 7 -11 15 -11 8 0 15 -9 15
-20 0 -16 -7 -20 -35 -20 -30 0 -35 3 -35 24 0 58 -12 86 -36 86 -22 0 -24 -4
-24 -55 0 -42 -4 -55 -15 -56 -8 -1 -21 -2 -27 -3 -7 -1 -12 7 -10 17 2 11 -4
17 -15 18 -11 0 -13 3 -5 6 19 8 14 23 -8 23 -11 0 -20 -7 -20 -15 0 -8 -2
-15 -4 -15 -2 0 -11 -3 -20 -6 -13 -5 -16 7 -18 78 -3 82 -3 83 -30 86 -25 3
-28 8 -28 38 0 19 3 33 8 33 4 -1 17 -1 30 0 21 1 23 5 22 49 -3 96 -4 95 33
89 45 -7 64 5 43 26 -19 19 -21 34 -3 20 15 -13 47 -13 47 -1 0 5 5 6 10 3 6
-3 10 -2 10 4 0 5 -4 11 -9 13 -9 3 -14 29 -12 63 1 15 3 17 10 6 7 -11 10 -9
16 8 3 11 10 21 15 21 4 0 10 9 13 20 3 11 10 20 17 20 7 0 9 -8 5 -22 -5 -18
-4 -20 4 -8 6 8 11 36 11 62 0 38 4 48 21 53 11 4 18 13 15 20 -8 22 4 25 106
25 93 0 99 -1 107 -22z m-1259 -143 c0 -13 -65 -15 -525 -15 -413 0 -525 -3
-525 -12 0 -7 -12 -21 -28 -32 -15 -10 -40 -36 -57 -57 -16 -21 -36 -38 -42
-39 -7 0 -13 -7 -13 -15 0 -8 -7 -15 -15 -15 -8 0 -15 -4 -15 -10 0 -6 -46
-10 -119 -10 l-120 0 -3 -27 c-3 -27 -6 -28 -60 -31 -52 -3 -58 -1 -58 17 0
10 -5 21 -11 23 -8 3 -9 18 -4 46 l7 42 59 0 c45 0 59 -3 59 -14 0 -24 18 -29
125 -33 l102 -5 104 101 103 101 518 0 c454 0 518 -2 518 -15z m197 -7 c-3 -8
-6 -5 -6 6 -1 11 2 17 5 13 3 -3 4 -12 1 -19z m3185 -20 c20 -24 38 -46 38
-50 0 -5 5 -8 10 -8 6 0 33 -23 59 -50 l49 -51 114 3 113 3 3 27 c3 23 7 26
30 23 15 -1 44 -3 65 -4 l37 -1 0 -65 0 -65 -64 0 c-63 0 -64 0 -69 30 l-6 30
-118 0 -117 0 -77 80 c-43 44 -82 80 -88 80 -6 0 -11 7 -11 15 0 13 -65 15
-525 15 -460 0 -525 2 -525 15 0 13 65 15 522 15 l522 0 38 -42z m-5444 -3
c-3 -29 -18 -34 -18 -7 0 17 8 32 17 32 1 0 2 -11 1 -25z m6442 -5 c0 -11 -4
-20 -9 -20 -5 0 -7 9 -4 20 3 11 7 20 9 20 2 0 4 -9 4 -20z m-55 -30 c3 -5 1
-10 -4 -10 -6 0 -11 5 -11 10 0 6 2 10 4 10 3 0 8 -4 11 -10z m95 -20 c0 -5
-4 -10 -10 -10 -5 0 -10 5 -10 10 0 6 5 10 10 10 6 0 10 -4 10 -10z m110 -35
c0 -8 -4 -15 -9 -15 -13 0 -22 16 -14 24 11 11 23 6 23 -9z m77 -5 c-1 -11 -5
-20 -9 -20 -10 0 -10 4 -2 24 8 22 13 20 11 -4z m-57 -26 c0 -8 -5 -12 -10 -9
-6 4 -8 11 -5 16 9 14 15 11 15 -7z m-4400 -19 c0 -13 -46 -15 -355 -15 -245
0 -355 -3 -355 -11 0 -13 -116 -129 -130 -129 -5 0 -10 -7 -10 -15 0 -8 -7
-15 -15 -15 -8 0 -15 -4 -15 -10 0 -5 -9 -19 -20 -30 -19 -19 -33 -20 -250
-20 -198 0 -230 -2 -230 -15 0 -8 -4 -15 -10 -15 -5 0 -10 -7 -10 -15 0 -11
-13 -15 -54 -15 -60 0 -63 4 -66 70 -4 72 -6 70 64 70 59 0 65 -2 68 -22 l3
-23 243 -3 c133 -1 241 1 240 5 -4 13 26 53 39 53 7 0 13 7 13 15 0 8 7 15 15
15 8 0 15 7 15 15 0 8 5 15 11 15 14 0 39 25 39 39 0 6 7 11 15 11 8 0 15 7
15 15 0 8 7 15 15 15 8 0 15 7 15 15 0 13 46 15 355 15 309 0 355 -2 355 -15z
m2710 4 c0 -13 137 -149 150 -149 6 0 10 -5 10 -11 0 -14 26 -39 40 -39 6 0 8
-4 5 -10 -4 -7 77 -10 234 -10 l241 0 0 25 c0 24 2 25 65 25 l65 0 0 -56 c0
-31 -5 -61 -12 -68 -17 -16 -108 -15 -108 2 0 6 -4 12 -10 12 -5 0 -10 7 -10
15 0 13 -32 15 -230 15 l-229 0 -116 115 -116 115 -339 0 c-296 0 -340 2 -340
15 0 13 46 15 350 15 246 0 350 -3 350 -11z m1720 -9 c-6 -11 -15 -18 -21 -14
-6 4 -6 11 2 20 17 21 31 17 19 -6z m-4390 -40 c0 -5 -5 -10 -11 -10 -5 0 -7
5 -4 10 3 6 8 10 11 10 2 0 4 -4 4 -10z m4170 -1 c0 -4 -7 -9 -15 -13 -9 -3
-15 0 -15 8 0 7 7 13 15 13 8 0 15 -4 15 -8z m230 -1 c0 -4 -18 -8 -40 -8 -22
0 -40 4 -40 10 0 5 18 9 40 8 22 -1 40 -5 40 -10z m-6620 -38 c0 -5 -2 -10 -4
-10 -3 0 -8 5 -11 10 -3 6 -1 10 4 10 6 0 11 -4 11 -10z m2280 -60 c0 -5 -3
-10 -7 -10 -5 0 -154 -1 -332 -1 l-325 0 -104 -105 c-57 -57 -108 -104 -113
-104 -5 0 -9 -7 -9 -15 0 -8 -4 -15 -10 -15 -5 0 -10 -7 -10 -15 0 -8 -5 -15
-11 -15 -14 0 -145 -131 -141 -142 1 -4 -5 -8 -13 -8 -8 0 -15 -7 -15 -15 0
-13 -28 -15 -190 -15 -162 0 -190 2 -190 15 0 13 27 15 184 15 l184 0 23 29
c13 16 27 27 31 25 4 -3 8 0 8 6 0 14 205 220 219 220 6 0 11 7 11 15 0 8 5
15 10 15 6 0 10 7 10 15 0 8 7 15 15 15 8 0 15 7 15 16 0 8 4 13 8 10 5 -3 22
13 38 34 l29 40 343 0 c221 0 342 -4 342 -10z m2480 0 c0 -5 7 -10 15 -10 8 0
15 -7 15 -15 0 -8 7 -15 15 -15 8 0 15 -5 15 -11 0 -13 276 -289 290 -289 5 0
10 -7 10 -15 0 -8 5 -15 10 -15 6 0 10 -6 10 -14 0 -8 9 -18 20 -21 11 -3 20
-11 20 -16 0 -5 77 -9 184 -9 154 0 185 -2 190 -15 5 -13 -19 -15 -179 -15
l-185 0 -222 223 -221 222 -329 -4 c-296 -3 -328 -2 -328 13 0 14 34 16 335
16 217 0 335 -4 335 -10z m-4750 -31 c0 -11 -4 -17 -10 -14 -5 3 -10 13 -10
21 0 8 5 14 10 14 6 0 10 -9 10 -21z m2320 1 c0 -5 -7 -7 -15 -4 -8 4 -15 8
-15 10 0 2 7 4 15 4 8 0 15 -4 15 -10z m1720 -5 c0 -8 -4 -15 -10 -15 -5 0
-10 7 -10 15 0 8 5 15 10 15 6 0 10 -7 10 -15z m-2070 -335 c0 -170 -4 -310
-8 -310 -9 0 -69 -57 -97 -93 -24 -32 -35 -34 -35 -7 0 11 5 20 10 20 12 0 50
37 50 49 0 9 30 25 43 23 4 -1 7 140 7 313 0 273 2 315 15 315 13 0 15 -41 15
-310z m160 -75 c0 -250 -4 -385 -10 -385 -6 0 -10 135 -10 385 0 250 4 385 10
385 6 0 10 -135 10 -385z m2100 -5 c0 -253 -4 -390 -10 -390 -6 0 -10 137 -10
390 0 253 4 390 10 390 6 0 10 -137 10 -390z m170 89 l0 -300 36 -35 c20 -19
41 -34 46 -34 5 0 6 -5 3 -10 -3 -6 1 -13 9 -16 18 -7 11 -24 -10 -24 -8 0
-14 7 -14 15 0 8 -7 15 -15 15 -8 0 -15 7 -15 15 0 8 -4 15 -10 15 -5 0 -10 7
-10 15 0 8 -5 15 -11 15 -6 0 -17 6 -25 14 -22 22 -21 616 1 616 13 0 15 -40
15 -301z m-2040 191 c0 -82 -3 -100 -15 -100 -8 0 -15 -7 -15 -15 0 -8 -7 -15
-15 -15 -13 0 -15 -36 -15 -265 0 -229 -2 -265 -15 -265 -13 0 -15 36 -15 265
0 223 2 265 14 265 8 0 18 9 21 20 3 11 11 20 16 20 5 0 9 43 9 95 0 78 3 95
15 95 12 0 15 -18 15 -100z m1650 0 c0 -82 3 -100 15 -100 8 0 15 -7 15 -15 0
-8 7 -15 15 -15 13 0 15 -36 15 -260 0 -223 -2 -260 -15 -260 -13 0 -15 38
-17 263 -2 203 -6 261 -15 260 -7 -2 -13 4 -13 12 0 8 -7 15 -15 15 -12 0 -15
18 -15 100 0 82 3 100 15 100 12 0 15 -18 15 -100z m-2176 64 c9 -22 -1 -33
-24 -27 -26 7 -27 43 -1 43 10 0 22 -7 25 -16z m656 -375 c0 -226 -4 -349 -10
-349 -6 0 -10 125 -10 356 0 234 3 353 10 349 6 -4 10 -133 10 -356z m1388 48
c2 -269 0 -307 -13 -307 -13 0 -15 40 -15 311 0 244 3 310 13 307 9 -4 13 -77
15 -311z m-1250 210 c2 -55 0 -67 -13 -67 -12 0 -15 14 -15 71 0 52 3 70 13
67 7 -3 13 -29 15 -71z m1112 -3 c0 -50 -3 -64 -15 -64 -12 0 -15 14 -15 70 0
58 3 68 15 64 11 -5 15 -22 15 -70z m-3693 20 c-3 -3 -12 -4 -19 -1 -8 3 -5 6
6 6 11 1 17 -2 13 -5z m-137 -120 c0 -8 -4 -12 -10 -9 -5 3 -10 10 -10 16 0 5
5 9 10 9 6 0 10 -7 10 -16z m3830 -150 c0 -128 -3 -165 -12 -162 -19 7 -24
293 -6 313 7 8 14 14 16 15 1 0 2 -75 2 -166z m-3895 146 c3 -5 1 -10 -4 -10
-6 0 -11 5 -11 10 0 6 2 10 4 10 3 0 8 -4 11 -10z m275 0 c0 -5 -4 -10 -9 -10
-6 0 -13 5 -16 10 -3 6 1 10 9 10 9 0 16 -4 16 -10z m730 -5 c0 -8 -9 -15 -20
-15 -11 0 -20 -7 -20 -15 0 -8 -7 -15 -15 -15 -8 0 -15 -7 -15 -15 0 -8 -6
-15 -14 -15 -8 0 -18 -9 -21 -20 -4 -11 -11 -18 -16 -14 -6 3 -13 -2 -15 -13
-3 -10 -18 -27 -35 -38 -16 -11 -29 -24 -29 -28 0 -4 -11 -18 -25 -31 -14 -13
-25 -28 -25 -35 0 -6 -16 -11 -37 -10 -21 0 -32 3 -24 6 11 5 11 7 0 14 -10 6
-6 9 14 9 26 0 67 30 67 50 0 6 7 10 15 10 8 0 15 7 15 15 0 8 7 15 15 15 8 0
15 7 15 15 0 8 7 15 15 15 8 0 15 7 15 15 0 8 5 15 11 15 13 0 89 78 89 91 0
5 9 9 20 9 11 0 20 -7 20 -15z m2244 -1 c14 -14 17 -22 15 -40 0 -3 8 -13 18
-22 14 -13 17 -29 15 -74 l-3 -58 -39 0 c-30 0 -38 3 -34 14 4 11 0 13 -15 9
-20 -5 -21 -1 -21 66 0 56 3 71 15 71 13 0 20 18 16 43 -2 12 17 8 33 -9z
m2446 1 c0 -8 4 -15 9 -15 5 0 11 -7 15 -15 3 -9 0 -15 -9 -15 -8 0 -15 7 -15
15 0 9 -9 15 -24 15 -13 0 -26 7 -30 15 -4 11 2 15 24 15 20 0 30 -5 30 -15z
m-5716 -10 c3 -8 1 -15 -4 -15 -6 0 -10 7 -10 15 0 8 2 15 4 15 2 0 6 -7 10
-15z m2803 -232 c-2 -187 -5 -247 -14 -250 -10 -4 -13 50 -13 246 0 213 2 251
15 251 12 0 14 -37 12 -247z m655 223 c-3 -14 1 -17 12 -13 14 5 16 -4 16 -63
0 -56 -3 -70 -15 -70 -8 0 -15 -6 -15 -12 0 -8 -15 -13 -41 -13 l-41 0 4 73
c2 50 8 76 18 82 8 5 16 14 16 20 1 5 2 13 3 16 0 3 11 4 24 2 15 -2 21 -9 19
-22z m-322 -55 c0 -63 -11 -93 -28 -77 -3 4 -7 38 -9 76 -2 64 0 70 17 70 18
0 20 -7 20 -69z m3520 65 c0 -11 -19 -15 -25 -6 -3 5 1 10 9 10 9 0 16 -2 16
-4z m30 -12 c0 -8 -5 -12 -10 -9 -6 4 -8 11 -5 16 9 14 15 11 15 -7z m-6587
-15 c-12 -12 -63 -22 -63 -12 0 12 42 30 58 25 7 -3 10 -8 5 -13z m1804 5 c8
-8 10 -30 6 -67 -6 -61 -13 -67 -85 -67 -27 0 -38 4 -38 15 0 8 -7 15 -15 15
-8 0 -15 -4 -15 -10 0 -5 -5 -10 -10 -10 -10 0 -132 -120 -183 -180 l-27 -32
-143 2 c-182 4 -173 5 -180 -30 -6 -28 -9 -30 -56 -30 -75 0 -76 1 -73 75 l4
65 59 0 c54 0 59 -2 65 -25 l6 -25 147 0 c147 0 191 5 191 21 0 5 50 58 110
119 61 61 110 117 110 125 0 8 5 15 10 15 6 0 10 6 10 14 0 22 85 30 107 10z
m3009 -11 c7 -10 14 -27 14 -38 1 -24 23 -55 39 -55 6 0 11 -7 11 -15 0 -8 7
-15 15 -15 8 0 15 -5 15 -11 0 -6 33 -44 74 -85 l73 -74 132 0 c119 0 157 -8
115 -24 -9 -3 -67 -6 -130 -6 l-114 0 -69 70 c-39 39 -75 70 -80 70 -6 0 -11
7 -11 15 0 8 -7 15 -15 15 -8 0 -15 5 -15 11 0 22 -31 43 -49 33 -9 -6 -23 -9
-31 -8 -8 0 -34 2 -57 2 l-43 2 0 65 0 65 56 0 c42 0 60 -4 70 -17z m-4886
-13 c0 -5 -7 -10 -15 -10 -8 0 -15 5 -15 10 0 6 7 10 15 10 8 0 15 -4 15 -10z
m3596 -108 c-14 -13 -17 11 -9 65 l8 58 3 -59 c2 -32 1 -61 -2 -64z m-2856 81
c0 -16 -6 -23 -20 -23 -15 0 -20 7 -20 24 0 19 5 24 20 23 14 -1 20 -8 20 -24z
m5000 17 c0 -5 -4 -10 -10 -10 -5 0 -10 5 -10 10 0 6 5 10 10 10 6 0 10 -4 10
-10z m-660 -20 c0 -15 -7 -20 -25 -20 -18 0 -25 5 -25 20 0 15 7 20 25 20 18
0 25 -5 25 -20z m-4985 1 c3 -5 2 -12 -3 -15 -5 -3 -9 1 -9 9 0 17 3 19 12 6z
m5686 -21 c12 0 79 -69 79 -81 0 -5 7 -9 15 -9 8 0 15 -7 15 -15 0 -10 14 -17
40 -21 22 -4 40 -10 40 -15 0 -5 -18 -9 -40 -9 -29 0 -40 4 -40 15 0 8 -7 15
-15 15 -8 0 -15 7 -15 15 0 8 -7 15 -15 15 -8 0 -15 7 -15 15 0 8 -7 15 -15
15 -8 0 -15 4 -15 10 0 16 -33 50 -48 50 -12 0 -12 2 -1 17 13 15 14 15 17 0
2 -10 8 -17 13 -17z m-2221 -33 c0 -38 -23 -30 -25 9 -1 16 0 33 3 38 7 14 22
-17 22 -47z m-3518 21 c-7 -7 -12 -8 -12 -2 0 14 12 26 19 19 2 -3 -1 -11 -7
-17z m-22 2 c0 -5 -7 -10 -16 -10 -8 0 -12 5 -9 10 3 6 10 10 16 10 5 0 9 -4
9 -10z m267 -12 c-3 -8 -6 -5 -6 6 -1 11 2 17 5 13 3 -3 4 -12 1 -19z m-100
-10 c-3 -8 -6 -5 -6 6 -1 11 2 17 5 13 3 -3 4 -12 1 -19z m6403 -10 c0 -4 -9
-8 -20 -8 -11 0 -20 4 -20 8 0 4 9 8 20 8 11 0 20 -4 20 -8z m-6550 -19 c0 -4
-14 -7 -31 -7 -18 1 -25 4 -18 9 15 9 49 8 49 -2z m3710 1 c-10 -6 -11 -10 -2
-10 8 0 12 -19 12 -60 0 -47 -3 -60 -15 -60 -12 0 -15 14 -15 70 0 60 2 70 18
70 14 0 15 -2 2 -10z m-840 -166 c0 -128 -3 -165 -12 -162 -10 4 -14 48 -16
166 -2 140 0 162 13 162 13 0 15 -24 15 -166z m-2795 143 c-29 -20 -65 -27
-65 -14 0 7 -5 6 -11 -3 -9 -13 -10 -13 -6 0 3 14 38 26 82 29 19 1 19 1 0
-12z m2943 -162 c-2 -88 -7 -145 -13 -145 -6 0 -11 57 -13 145 -2 126 0 145
13 145 13 0 15 -19 13 -145z m550 83 c-2 -38 -8 -63 -15 -66 -10 -3 -13 14
-13 62 0 53 3 66 15 66 13 0 15 -11 13 -62z m-3468 32 c0 -9 -40 -30 -56 -30
-13 0 -1 29 14 33 30 8 42 7 42 -3z m-70 -14 c0 -8 -4 -17 -8 -20 -4 -2 -8 4
-8 15 0 10 4 19 8 19 4 0 8 -6 8 -14z m3130 -111 c0 -104 -2 -125 -15 -125
-13 0 -15 21 -15 125 0 104 2 125 15 125 13 0 15 -21 15 -125z m140 1 c0 -78
-4 -127 -11 -131 -6 -4 -12 -5 -13 -4 -2 2 -6 61 -8 132 -5 119 -4 127 14 127
16 0 18 -10 18 -124z m130 -6 c0 -109 -2 -130 -15 -130 -13 0 -15 21 -15 130
0 109 2 130 15 130 13 0 15 -21 15 -130z m1240 110 c0 -13 -7 -20 -20 -20 -13
0 -20 7 -20 20 0 13 7 20 20 20 13 0 20 -7 20 -20z m1590 -11 c0 -14 -17 -10
-23 5 -4 10 -1 13 9 9 7 -3 14 -9 14 -14z m-5920 -19 c0 -5 -4 -10 -10 -10 -5
0 -10 5 -10 10 0 6 5 10 10 10 6 0 10 -4 10 -10z m5888 -15 c-3 -3 -9 2 -12
12 -6 14 -5 15 5 6 7 -7 10 -15 7 -18z m-5983 -94 c3 -6 -1 -11 -10 -11 -10 0
-15 6 -12 13 3 8 1 20 -3 27 -5 8 -6 19 -2 24 3 6 9 -2 13 -16 4 -15 10 -31
14 -37z m575 -31 c15 -16 31 -30 35 -30 10 0 35 -27 35 -39 0 -6 7 -11 15 -11
13 0 15 -35 15 -251 l0 -251 -52 -49 -52 -49 -121 -2 c-192 -4 -255 -3 -255 1
0 2 14 26 31 53 l31 48 138 0 c116 0 139 2 144 16 3 9 6 115 6 236 0 183 -3
222 -15 235 -12 11 -49 16 -153 20 l-137 6 -22 34 c-42 63 -42 63 153 63 l176
0 28 -30z m3059 -18 c67 -63 67 -81 -4 -121 -30 -17 -59 -31 -64 -31 -6 0 -11
19 -13 43 l-3 42 -72 3 -73 3 0 -251 0 -250 75 0 75 0 0 45 c0 25 2 45 5 45 3
0 32 -7 65 -17 62 -17 77 -34 65 -73 -3 -11 -13 -20 -21 -20 -8 0 -14 -4 -14
-10 0 -5 -16 -25 -35 -45 l-36 -35 -100 0 c-93 0 -103 2 -131 25 -16 14 -27
25 -23 25 4 0 0 7 -9 15 -8 8 -19 15 -25 15 -6 0 -11 7 -11 15 0 8 -4 15 -10
15 -6 0 -10 90 -10 251 l0 251 48 44 c26 24 52 48 57 53 6 6 55 10 111 11
l101 0 52 -48z m1650 -264 c0 -214 3 -314 10 -316 6 -2 11 -24 11 -48 l0 -44
-70 0 -70 0 0 315 c0 271 -2 316 -15 321 -21 9 -19 31 8 59 18 19 32 24 74 24
l53 1 -1 -312z m-899 253 c0 -6 -4 -13 -10 -16 -5 -3 -10 1 -10 9 0 9 5 16 10
16 6 0 10 -4 10 -9z m-2700 -16 c0 -8 -7 -15 -16 -15 -14 0 -14 3 -4 15 7 8
14 15 16 15 2 0 4 -7 4 -15z m2730 -5 c0 -5 -7 -10 -15 -10 -8 0 -15 5 -15 10
0 6 7 10 15 10 8 0 15 -4 15 -10z m-4012 -272 l-3 -223 -67 -3 -68 -3 0 226 0
225 70 0 70 0 -2 -222z m-448 181 c0 -14 -17 -10 -23 5 -4 10 -1 13 9 9 7 -3
14 -9 14 -14z m47 -6 c-3 -3 -11 -2 -17 2 -9 6 -9 10 1 16 14 8 27 -7 16 -18z
m-19 -31 c2 -7 -5 -12 -17 -12 -12 0 -21 5 -21 10 0 6 -6 10 -14 10 -8 0 -17
4 -20 8 -3 5 11 6 31 3 20 -3 38 -12 41 -19z m882 -197 l0 -215 55 0 55 0 0
215 0 215 60 0 60 0 0 -220 c0 -187 2 -222 15 -226 18 -7 19 -24 3 -59 -10
-23 -17 -25 -70 -25 -51 0 -58 2 -58 20 0 11 -7 20 -15 20 -8 0 -20 -9 -27
-20 -11 -16 -24 -20 -73 -20 -57 0 -61 2 -84 35 -13 19 -27 35 -31 35 -4 0 -8
84 -9 187 -2 153 -5 189 -17 198 -13 9 -13 14 5 34 12 13 21 28 21 33 0 4 25
8 55 8 l55 0 0 -215z m424 189 c8 -29 27 -28 41 4 9 19 18 22 77 22 38 0 68
-3 68 -7 0 -5 14 -22 30 -40 l30 -32 0 -188 c0 -119 4 -193 11 -200 5 -5 7
-21 4 -35 -6 -23 -11 -25 -71 -27 l-65 -2 4 196 c3 108 2 205 0 216 -4 16 -15
19 -59 19 l-54 0 0 -210 0 -210 -60 0 -60 0 0 220 c0 189 -2 220 -15 220 -8 0
-15 9 -15 20 0 11 4 20 9 20 5 0 13 9 16 20 5 16 15 20 55 20 43 0 48 -3 54
-26z m687 4 c26 -29 22 -48 -13 -61 -17 -6 -18 -28 -18 -277 0 -157 -4 -270
-9 -270 -5 0 -24 -16 -42 -35 -33 -34 -35 -35 -114 -35 -78 0 -80 1 -96 29
-25 43 -11 55 73 61 l73 5 3 53 c3 51 -11 72 -25 36 -4 -12 -18 -15 -62 -13
-51 3 -59 6 -98 47 l-43 44 0 175 0 174 43 44 42 44 134 0 c125 1 135 0 152
-21z m340 -18 l39 -39 0 -97 c0 -122 -2 -123 -127 -124 l-93 0 0 -65 0 -65 55
0 c42 0 55 4 55 15 0 25 35 36 64 21 14 -7 23 -16 19 -19 -3 -4 1 -7 10 -7 26
0 20 -15 -25 -64 l-41 -46 -78 0 c-78 0 -78 0 -118 40 -22 22 -44 40 -50 40
-17 0 -15 370 2 370 6 0 28 18 47 40 l35 39 83 1 84 0 39 -40z m378 21 c11
-11 17 -22 14 -25 -4 -3 -2 -6 4 -6 5 0 20 -8 31 -19 21 -17 22 -27 22 -190
l0 -171 -47 -45 c-49 -47 -49 -47 -171 -50 -37 -1 -47 4 -82 42 l-40 43 -6
174 -7 173 44 45 44 46 88 1 c73 1 90 -2 106 -18z m251 -1 c0 -12 7 -20 16
-20 9 0 18 9 21 20 5 17 14 20 69 20 61 0 65 -2 99 -37 l34 -38 1 -188 c0
-152 3 -191 15 -203 12 -13 12 -17 -3 -34 -13 -16 -29 -20 -74 -20 l-58 0 0
210 0 210 -55 0 -55 0 -2 -212 -3 -213 -57 -3 -58 -3 0 221 c0 187 -2 222 -15
226 -16 7 -21 44 -6 44 5 0 13 9 16 20 5 17 15 20 61 20 47 0 54 -2 54 -20z
m930 0 c0 -26 36 -27 44 -2 5 14 18 19 51 21 36 1 50 -3 72 -24 15 -14 31 -25
35 -25 4 0 6 -15 4 -32 -3 -18 -5 -39 -5 -47 -1 -8 -4 -11 -8 -8 -3 4 -11 3
-17 -2 -6 -4 -25 -13 -42 -19 -30 -10 -32 -9 -37 18 -6 28 -32 40 -69 32 -16
-3 -18 -21 -18 -208 0 -156 -3 -204 -12 -205 -7 0 -34 -3 -60 -5 l-48 -5 0
225 c0 194 -2 226 -15 226 -8 0 -15 6 -15 14 0 8 7 21 15 30 8 8 15 19 15 25
0 7 23 11 55 11 48 0 55 -2 55 -20z m533 -2 c9 -10 15 -18 12 -18 -3 0 9 -13
25 -29 l30 -28 0 -172 c0 -143 2 -173 15 -177 10 -4 15 -20 15 -45 l0 -39 -70
0 c-63 0 -70 2 -70 20 0 11 -7 20 -15 20 -8 0 -15 -4 -15 -10 0 -5 -7 -10 -15
-10 -8 0 -15 -4 -15 -10 0 -6 -27 -10 -60 -10 -33 0 -60 4 -60 8 0 14 -36 52
-49 52 -6 0 -11 1 -12 3 -16 64 -5 177 17 177 8 0 14 4 14 10 0 5 14 24 32 41
31 29 35 30 99 25 76 -6 79 -3 71 72 l-4 42 -89 0 c-72 0 -89 3 -89 15 0 8 -4
15 -10 15 -5 0 -10 5 -10 11 0 5 5 7 10 4 6 -3 10 -1 10 4 0 6 8 20 18 31 15
19 27 21 107 19 72 -2 93 -6 108 -21z m257 -150 c0 -95 3 -183 6 -196 9 -30
46 -38 73 -16 20 18 21 28 21 201 l0 183 60 0 60 0 0 -193 c0 -180 1 -193 20
-204 20 -13 49 -8 62 11 4 6 8 95 8 198 l0 187 60 0 60 -1 0 -204 c0 -123 -4
-204 -10 -204 -10 0 -60 -47 -60 -58 0 -4 -12 -19 -25 -34 -19 -23 -33 -28
-69 -28 -36 0 -46 4 -51 20 -3 11 -10 20 -14 20 -4 0 -13 11 -19 24 -8 18 -16
23 -31 19 -12 -3 -21 -10 -21 -17 -1 -23 -38 -55 -71 -61 -27 -5 -41 -1 -66
18 -18 13 -30 27 -27 30 3 3 -3 12 -15 19 -12 7 -21 18 -21 25 0 6 -9 15 -20
18 -19 6 -20 15 -20 171 0 139 -2 164 -15 164 -11 0 -15 11 -15 40 l0 40 70 0
70 0 0 -172z m981 130 l38 -43 1 -93 c0 -68 -4 -97 -14 -108 -11 -10 -41 -14
-110 -14 l-96 0 0 -65 c0 -62 1 -65 25 -66 69 -4 85 -1 85 14 0 7 9 20 21 30
19 17 22 17 60 -11 l39 -29 -40 -42 c-22 -23 -40 -46 -40 -51 0 -6 -37 -10
-85 -10 l-84 0 -46 46 -45 46 0 175 0 174 43 44 42 44 83 0 84 1 39 -42z m219
24 c0 -10 3 -22 6 -25 10 -10 44 12 44 28 0 11 13 15 48 15 42 0 53 -5 81 -34
29 -30 33 -39 27 -70 -5 -28 -12 -36 -36 -41 -16 -4 -32 -11 -35 -16 -13 -21
-35 -8 -35 20 0 30 -20 40 -67 33 -23 -3 -23 -3 -23 -208 0 -156 -3 -204 -12
-205 -7 0 -34 -2 -60 -5 l-48 -4 0 225 c0 193 -2 225 -15 225 -8 0 -15 6 -15
14 0 8 7 21 15 30 8 8 15 19 15 25 0 7 23 11 55 11 47 0 55 -3 55 -18z m-1827
-508 c-8 -21 -23 -17 -23 6 0 13 5 18 14 14 8 -3 12 -12 9 -20z m31 -30 c4
-10 1 -14 -6 -12 -15 5 -23 28 -10 28 5 0 13 -7 16 -16z m36 -34 c0 -5 -4 -10
-10 -10 -5 0 -10 5 -10 10 0 6 5 10 10 10 6 0 10 -4 10 -10z m-3206 -146 c80
-78 146 -139 146 -137 0 6 119 -94 142 -119 9 -10 20 -18 23 -18 4 1 49 -28
102 -64 621 -432 1428 -616 2188 -500 307 47 682 172 974 326 211 112 498 321
677 493 112 108 131 124 138 118 4 -5 6 -1 4 7 -2 9 6 16 21 18 20 3 11 -10
-50 -77 -225 -246 -573 -500 -886 -647 -349 -164 -728 -268 -1085 -300 l-78
-6 0 -184 0 -184 -180 0 -180 0 0 189 0 188 -112 7 c-490 30 -1059 240 -1498
553 -182 130 -520 437 -520 473 0 26 34 -1 174 -136z m1866 81 c0 -37 -4 -65
-10 -65 -5 0 -10 -7 -10 -15 0 -8 -7 -15 -15 -15 -8 0 -15 5 -15 10 0 6 7 13
15 16 11 5 15 22 15 70 0 36 4 64 10 64 6 0 10 -28 10 -65z m570 -65 c13 0 50
-37 50 -50 0 -5 5 -10 10 -10 6 0 10 -95 10 -265 l0 -265 24 0 c27 0 36 -21
36 -83 0 -23 -4 -36 -10 -32 -5 3 -10 1 -10 -4 0 -7 -24 -11 -60 -11 l-60 0 0
59 c0 54 2 59 25 65 l25 6 0 266 0 265 -35 33 c-31 29 -35 39 -35 83 0 72 14
75 18 4 2 -34 7 -61 12 -61z m-286 94 c3 -9 6 -173 6 -365 l0 -349 25 0 c24 0
25 -3 25 -55 0 -42 -3 -55 -15 -55 -8 0 -15 -4 -15 -10 0 -5 -21 -10 -46 -10
-27 0 -43 4 -39 10 3 6 -1 10 -9 10 -12 0 -16 11 -16 48 0 44 2 49 30 59 l30
11 0 361 c0 328 5 395 24 345z m1090 0 c3 -8 10 -12 16 -9 5 3 10 -1 10 -9 0
-9 7 -16 15 -16 8 0 15 -7 15 -15 0 -8 8 -15 17 -15 9 0 14 -2 11 -5 -7 -8
109 -125 123 -125 14 0 6 -23 -11 -28 -7 -3 -10 0 -6 7 4 6 4 11 -1 11 -12 0
-83 68 -83 79 0 6 -6 11 -13 11 -7 0 -21 14 -30 30 -10 17 -23 30 -28 30 -11
0 -58 50 -59 63 0 13 18 7 24 -9z m-1914 2 c0 -2 -13 -18 -29 -35 -25 -26 -30
-29 -41 -16 -10 12 -10 15 2 15 7 0 20 9 28 20 12 17 40 28 40 16z m280 -86
c0 -56 -4 -90 -10 -90 -6 0 -78 -68 -160 -151 -135 -135 -150 -154 -150 -185
0 -24 5 -34 15 -34 11 0 15 -12 15 -51 0 -66 -14 -79 -84 -79 l-56 0 0 56 c0
61 14 84 53 84 20 0 25 6 30 35 3 19 19 49 36 67 17 18 31 36 31 41 0 4 4 7 8
7 8 0 122 107 122 115 0 7 62 65 70 65 5 0 12 9 15 20 3 11 13 20 21 20 11 0
14 18 14 85 0 69 3 85 15 85 12 0 15 -17 15 -90z m410 -231 c0 -288 -1 -310
-17 -316 -22 -7 -53 -38 -53 -52 0 -5 -5 -11 -12 -13 -8 -3 -11 -21 -9 -52 2
-37 -1 -47 -11 -44 -21 7 -18 99 4 121 9 9 22 17 28 17 5 0 10 6 10 14 0 8 7
16 15 20 13 5 15 49 15 315 0 267 2 310 14 305 13 -5 15 -55 16 -315z m281
-309 c5 0 20 -11 33 -25 13 -14 28 -25 34 -25 15 0 10 -112 -6 -118 -9 -3 -12
10 -11 47 2 46 -1 54 -34 86 -20 19 -40 35 -46 35 -16 0 -15 617 1 622 10 4
14 -60 16 -309 1 -207 6 -313 13 -313z m399 547 l0 -74 95 -96 c53 -54 100
-97 105 -97 6 0 10 -4 10 -8 0 -12 88 -102 100 -102 5 0 10 -18 10 -40 0 -38
2 -40 30 -40 37 0 50 -23 50 -89 l0 -51 -64 0 c-72 0 -76 4 -76 76 0 32 4 44
15 44 10 0 15 11 16 33 2 49 -1 60 -22 75 -31 22 -119 114 -119 125 0 6 -2 8
-5 5 -3 -3 -43 31 -88 76 l-83 81 -3 78 c-2 64 1 77 13 77 13 0 16 -14 16 -73z
m314 39 c20 -18 36 -38 36 -45 0 -6 5 -11 11 -11 14 0 39 -26 39 -41 0 -7 3
-10 6 -6 3 3 28 -17 54 -43 47 -47 49 -52 52 -112 3 -56 5 -63 26 -68 13 -3
24 -9 25 -15 1 -5 5 -9 10 -7 8 2 9 -24 1 -55 -10 -35 -24 -27 -24 12 0 34 -1
35 -40 35 -39 0 -40 -1 -40 -34 0 -18 -7 -39 -15 -46 -13 -11 -15 -6 -15 34 0
46 16 76 39 76 7 0 11 27 11 70 0 43 -4 70 -11 70 -6 0 -60 50 -120 110 -61
61 -104 110 -95 110 8 0 31 -15 50 -34z m-2579 -12 c-9 -9 -19 -14 -22 -10 -4
3 2 14 13 25 23 22 32 8 9 -15z m3435 4 c0 -17 -38 -7 -43 11 -4 17 -2 18 19
9 13 -6 24 -15 24 -20z m-305 2 c3 -11 13 -20 21 -20 8 0 14 -7 14 -15 0 -8 8
-15 18 -15 14 0 14 -2 3 -9 -10 -6 -24 1 -48 23 -32 32 -43 56 -24 56 5 0 13
-9 16 -20z m-2305 -20 c0 -6 -38 -48 -85 -95 l-86 -84 3 -63 c3 -57 5 -63 26
-66 20 -3 22 -9 22 -58 0 -31 -4 -54 -11 -54 -5 0 -7 -4 -4 -10 10 -16 -94
-12 -111 4 -23 24 -15 130 10 127 30 -4 34 2 38 63 l6 65 88 89 c88 89 104
102 104 82z m2665 -10 c19 0 19 -1 -4 -19 -13 -10 -21 -23 -17 -30 11 -18 26
-13 35 12 9 22 9 22 21 -6 15 -31 13 -34 -15 -37 -48 -5 -55 -1 -55 34 0 19
-5 36 -12 38 -7 3 -8 10 -4 17 6 9 11 10 19 2 6 -6 20 -11 32 -11z m-3525 -16
c0 -14 -3 -14 -15 -4 -8 7 -15 14 -15 16 0 2 7 4 15 4 8 0 15 -7 15 -16z m300
6 c0 -13 -66 -80 -79 -80 -6 0 -11 -7 -11 -15 0 -8 -5 -15 -11 -15 -14 0 -39
-25 -39 -39 0 -6 -9 -11 -20 -11 -11 0 -20 2 -20 4 0 9 120 126 130 126 6 0 8
5 5 10 -5 8 17 23 43 29 1 1 2 -3 2 -9z m-333 -45 c10 -24 9 -25 -18 -25 -24
0 -29 4 -29 23 0 44 27 45 47 2z m3288 5 c3 -5 -3 -10 -14 -10 -12 0 -21 5
-21 10 0 6 6 10 14 10 8 0 18 -4 21 -10z m-1830 -10 c3 -5 -1 -10 -9 -10 -8 0
-18 5 -21 10 -3 6 1 10 9 10 8 0 18 -4 21 -10z m-25 -280 c0 -258 1 -270 19
-270 24 0 31 -19 31 -81 l0 -49 -69 0 -69 0 2 62 c1 57 3 62 26 68 l25 6 3
254 c1 140 4 261 7 268 2 6 9 12 15 12 7 0 10 -91 10 -270z m1888 242 l4 -24
-21 21 c-26 26 -26 34 -3 29 9 -2 18 -14 20 -26z m33 -27 c5 4 9 1 9 -4 0 -6
7 -11 15 -11 8 0 15 -9 15 -20 0 -13 9 -22 25 -26 30 -7 28 -28 -3 -32 -15 -2
-21 3 -24 20 -2 13 -9 22 -15 21 -7 -2 -10 4 -7 12 4 9 0 15 -9 15 -15 0 -28
22 -26 43 1 7 3 4 6 -6 2 -9 9 -15 14 -12z m-2878 -15 c-3 -11 -9 -18 -13 -15
-13 8 -22 -27 -10 -39 11 -11 12 -72 1 -100 -10 -27 -22 -6 -24 44 -1 40 -1
40 -42 40 -39 0 -40 -1 -43 -39 -2 -39 -2 -39 38 -46 52 -9 52 -25 -1 -25 -28
0 -46 6 -55 18 -16 21 -18 68 -3 77 6 4 8 14 5 22 -3 8 -2 11 3 8 5 -3 12 -1
16 5 3 5 17 10 30 10 32 0 56 10 49 21 -3 5 1 9 9 9 8 0 20 7 27 15 17 20 19
19 13 -5z m2707 -42 c0 -4 9 -8 20 -8 18 0 20 -7 20 -65 l0 -65 -35 0 c-24 0
-35 5 -35 15 0 8 9 15 19 15 22 0 41 42 22 48 -6 2 -11 13 -11 23 0 17 -6 20
-32 17 -32 -3 -33 -5 -36 -50 -2 -38 0 -47 15 -51 10 -3 5 -4 -12 -3 -29 3
-30 4 -30 54 0 28 3 48 7 46 5 -3 8 0 8 6 0 12 31 26 60 26 11 0 20 -4 20 -8z
m847 6 c-3 -3 -12 -4 -19 -1 -8 3 -5 6 6 6 11 1 17 -2 13 -5z m-3870 -24 c1
-15 -5 -20 -23 -20 -32 0 -34 35 -1 38 16 1 23 -4 24 -18z m-397 -84 c0 -3 -4
-8 -10 -11 -5 -3 -10 -1 -10 4 0 6 5 11 10 11 6 0 10 -2 10 -4z m4350 -61 c0
-44 -3 -55 -16 -55 -11 0 -14 5 -10 16 5 13 1 14 -24 9 -23 -5 -30 -3 -30 9 0
10 9 16 24 16 18 0 25 7 30 30 9 50 26 34 26 -25z m-4677 6 c-5 -22 25 -37 41
-21 8 8 7 13 -4 20 -23 14 -7 20 18 6 22 -11 22 -14 8 -28 -8 -9 -13 -17 -11
-19 2 -2 -8 -5 -22 -6 -14 0 -29 -7 -34 -15 -6 -9 -9 -7 -9 9 0 12 -5 25 -11
28 -7 5 -4 14 7 26 21 24 23 24 17 0z m337 9 c0 -5 -2 -10 -4 -10 -3 0 -8 5
-11 10 -3 6 -1 10 4 10 6 0 11 -4 11 -10z m4286 -75 c-22 -16 -62 -20 -70 -6
-9 14 6 21 48 21 38 -1 40 -2 22 -15z m-1186 -5 c0 -5 -11 -10 -24 -10 -13 0
-31 -3 -40 -6 -11 -4 -16 -1 -16 10 0 12 10 16 40 16 22 0 40 -4 40 -10z m700
-120 c0 -5 -4 -10 -10 -10 -5 0 -10 5 -10 10 0 6 5 10 10 10 6 0 10 -4 10 -10z
m-3440 -55 c-7 -9 -15 -13 -17 -11 -6 6 20 36 26 30 2 -2 -2 -10 -9 -19z m-63
-17 c-3 -8 -6 -5 -6 6 -1 11 2 17 5 13 3 -3 4 -12 1 -19z m26 -58 c3 -11 1
-20 -4 -20 -5 0 -9 9 -9 20 0 11 2 20 4 20 2 0 6 -9 9 -20z m1067 -11 c0 -5
-9 -9 -20 -9 -19 0 -27 20 -13 33 7 8 33 -11 33 -24z m2295 11 c3 -5 1 -10 -4
-10 -6 0 -11 5 -11 10 0 6 2 10 4 10 3 0 8 -4 11 -10z m67 -82 c-13 -13 -35
-1 -26 14 4 6 10 5 15 -3 7 -11 9 -9 10 6 0 12 3 15 6 7 3 -8 1 -18 -5 -24z
m-3195 0 c-3 -8 -6 -5 -6 6 -1 11 2 17 5 13 3 -3 4 -12 1 -19z m3233 -61 c0
-4 10 -5 21 -2 19 6 20 5 8 -8 -9 -10 -18 -12 -26 -6 -7 7 -13 5 -17 -3 -3 -7
-3 -3 -1 9 3 12 1 24 -5 28 -5 3 -10 12 -10 18 1 13 30 -22 30 -36z m-540 -12
c7 -9 8 -15 2 -15 -5 0 -12 7 -16 15 -3 8 -4 15 -2 15 2 0 9 -7 16 -15z m360
-20 c0 -8 -4 -15 -10 -15 -5 0 -10 7 -10 15 0 8 5 15 10 15 6 0 10 -7 10 -15z
m46 -22 c-1 -21 -5 -41 -11 -45 -18 -13 -31 -8 -32 12 -1 11 4 20 12 20 9 0
12 6 9 15 -4 9 0 15 7 15 11 0 11 3 -1 10 -13 9 -13 10 1 10 11 0 15 -10 15
-37z m55 0 c8 -9 9 -14 2 -10 -6 4 -14 1 -16 -5 -3 -7 -6 -3 -6 10 -1 26 2 27
20 5z m-3125 -47 c8 -8 14 -17 14 -21 0 -4 7 -13 15 -21 21 -21 19 -46 -2 -42
-10 2 -23 -3 -30 -12 -8 -9 -12 -11 -13 -3 0 6 5 15 10 18 12 8 13 55 1 55 -5
0 -11 9 -14 20 -6 24 -1 25 19 6z m624 -11 c0 -8 -7 -15 -15 -15 -13 0 -14 3
-3 15 16 18 18 18 18 0z m-650 -21 c0 -8 -9 -24 -20 -36 -17 -19 -20 -19 -20
-5 0 9 5 17 10 17 6 0 10 6 9 13 -3 25 1 38 11 32 6 -3 10 -13 10 -21z m307 4
c-3 -8 -6 -5 -6 6 -1 11 2 17 5 13 3 -3 4 -12 1 -19z m-197 -28 c0 -5 -4 -10
-10 -10 -5 0 -10 5 -10 10 0 6 5 10 10 10 6 0 10 -4 10 -10z m-24 -56 c-9 -8
-16 -11 -16 -4 0 15 24 40 28 29 2 -5 -4 -16 -12 -25z m2491 -34 c2 -11 -2
-20 -7 -20 -6 0 -10 12 -10 27 0 29 12 24 17 -7z m-62 -50 c-3 -6 -1 -10 4
-10 6 0 11 8 11 17 0 26 13 6 15 -22 0 -14 -3 -25 -8 -25 -15 0 -37 28 -37 49
0 11 -5 23 -10 26 -6 4 -7 11 -4 17 4 6 13 0 21 -16 8 -14 11 -31 8 -36z
m-1872 -56 c-2 -20 0 -25 6 -15 5 8 14 10 21 6 8 -5 18 -1 26 10 18 24 32 10
16 -15 -6 -11 -9 -26 -6 -33 3 -8 -2 -17 -10 -20 -9 -4 -16 -2 -16 4 0 5 -11
14 -25 19 -14 5 -25 16 -25 25 0 8 -6 15 -14 15 -20 0 -29 -17 -14 -23 10 -3
10 -8 -1 -18 -9 -9 -11 -9 -7 -1 4 7 1 12 -8 12 -9 0 -16 7 -16 15 0 8 -6 15
-12 15 -7 0 -4 6 6 12 15 8 21 8 24 -1 3 -9 7 -9 18 0 8 6 14 8 14 5 0 -4 5
-4 11 0 8 4 7 9 -2 16 -11 8 -11 9 1 5 10 -3 14 -15 13 -33z m357 -73 c0 -28
-4 -53 -10 -56 -6 -4 -10 15 -10 49 0 31 5 56 10 56 6 0 10 -22 10 -49z m900
-17 c0 -30 -4 -54 -10 -54 -6 0 -10 27 -10 61 0 37 4 58 10 54 6 -3 10 -31 10
-61z m-840 47 c0 -6 -4 -13 -10 -16 -5 -3 -10 1 -10 9 0 9 5 16 10 16 6 0 10
-4 10 -9z m30 -1 c0 -5 7 -10 15 -10 10 0 15 -10 15 -34 0 -32 -24 -66 -37
-52 -3 3 -1 6 5 6 18 0 15 69 -3 76 -17 7 -20 24 -5 24 6 0 10 -4 10 -10z
m705 -17 c9 15 21 27 26 27 15 0 10 -28 -6 -38 -19 -10 -10 -42 11 -42 17 0
18 -16 3 -26 -7 -4 -16 1 -21 10 -13 22 -38 20 -38 -4 0 -11 -5 -20 -11 -20
-6 0 -9 12 -8 28 2 15 0 33 -5 40 -4 7 -4 22 0 35 7 21 8 21 19 -7 l12 -29 18
26z m-739 -63 c8 0 14 -4 14 -10 0 -5 -9 -10 -20 -10 -14 0 -20 6 -19 23 0 12
3 16 6 10 2 -7 11 -13 19 -13z m573 -106 l31 -6 0 -234 0 -234 -220 0 -220 0
0 240 0 240 189 0 c104 0 203 -3 220 -6z"/>
<path d="M4945 9092 c-7 -4 -10 -109 -10 -292 l0 -285 180 2 c99 1 183 2 188
3 4 0 6 129 5 288 l-3 287 -175 2 c-96 2 -180 0 -185 -5z m192 -167 c3 -45 8
-52 26 -37 8 7 17 9 20 5 4 -3 7 -1 7 5 0 7 7 12 15 12 8 0 15 -4 15 -10 0 -5
-4 -10 -10 -10 -5 0 -10 -6 -10 -13 0 -7 -9 -18 -20 -25 -25 -16 -26 -32 -1
-32 21 0 41 -22 25 -27 -35 -13 -39 -22 -16 -46 12 -13 19 -27 15 -31 -4 -4 3
-9 15 -13 14 -3 22 -13 22 -27 -1 -21 -1 -21 -16 -1 -8 11 -20 19 -25 18 -8
-3 -13 17 -11 38 1 3 -10 4 -23 1 -21 -4 -25 -10 -25 -43 0 -28 -4 -39 -15
-39 -11 0 -15 11 -15 40 0 42 -9 49 -33 26 -9 -9 -19 -11 -28 -5 -8 5 -9 9 -4
9 9 0 35 45 35 61 0 4 -9 9 -20 12 -11 3 -20 10 -20 16 0 6 9 11 20 11 11 0
20 7 20 15 0 8 -9 24 -20 35 -24 24 -26 37 -5 37 8 0 15 -7 15 -14 0 -8 8 -13
18 -11 12 2 18 15 20 46 4 54 26 52 29 -3z m-107 5 c-6 -11 -13 -20 -15 -20
-3 0 -5 9 -5 20 0 11 7 20 15 20 13 0 14 -4 5 -20z m214 11 c3 -5 0 -11 -8
-14 -15 -6 -26 1 -26 15 0 11 27 10 34 -1z m2 -168 c-14 -14 -23 4 -13 27 l10
25 5 -23 c2 -13 1 -26 -2 -29z m-216 13 c0 -7 -7 -13 -15 -13 -8 0 -15 8 -15
18 0 12 5 16 15 13 8 -4 15 -12 15 -18z m10 -106 c0 -11 -7 -20 -15 -20 -8 0
-15 9 -15 20 0 11 7 20 15 20 8 0 15 -9 15 -20z"/>
<path d="M1720 5105 l0 -145 155 0 155 0 0 145 0 145 -155 0 -155 0 0 -145z
m210 91 c0 -9 -8 -12 -25 -8 -13 2 -35 2 -47 -1 -20 -5 -23 -13 -23 -51 0 -28
-4 -47 -12 -50 -7 -3 -13 -16 -13 -30 0 -27 17 -36 68 -34 18 1 35 -2 38 -5
13 -13 -7 -23 -51 -26 -40 -2 -47 1 -52 18 -3 12 -10 21 -15 21 -6 0 -8 7 -4
15 3 8 2 15 -3 15 -4 0 -6 11 -4 25 3 13 10 23 17 22 7 -1 12 18 14 51 l3 52
55 0 c39 0 54 -4 54 -14z m-1 -55 c24 -24 39 -91 21 -91 -7 0 -10 8 -7 20 3
11 2 18 -2 16 -14 -9 -31 11 -35 42 -4 37 -2 38 23 13z"/>
<path d="M8210 5105 l0 -145 155 0 155 0 0 145 0 145 -155 0 -155 0 0 -145z
m240 85 c0 -5 -6 -10 -14 -10 -9 0 -12 -8 -9 -24 3 -15 -1 -25 -11 -29 -9 -4
-16 -2 -16 3 0 6 4 10 9 10 5 0 8 8 6 18 -2 9 -4 21 -4 25 -1 5 -6 5 -13 1 -7
-4 -8 -3 -4 4 9 15 56 16 56 2z m-140 -41 c0 -24 -23 -21 -28 4 -2 10 3 17 12
17 10 0 16 -9 16 -21z m38 -43 c3 -15 6 -16 12 -5 5 7 12 10 16 6 4 -4 2 -13
-5 -20 -10 -9 -15 -9 -25 5 -18 25 -38 6 -40 -36 -2 -60 -26 -45 -26 17 l0 52
32 0 c24 0 34 -5 36 -19z m60 -54 c2 -7 -3 -12 -12 -12 -9 0 -16 7 -16 16 0
17 22 14 28 -4z m36 -34 c6 -5 1 -8 -11 -8 -13 0 -23 6 -23 13 0 20 14 31 19
15 2 -7 9 -16 15 -20z"/>
<path d="M4025 7820 c-3 -5 -1 -10 4 -10 6 0 11 5 11 10 0 6 -2 10 -4 10 -3 0
-8 -4 -11 -10z"/>
<path d="M6364 7506 c-7 -19 -1 -67 9 -66 4 0 23 0 42 0 34 0 35 1 35 40 l0
40 -40 0 c-26 0 -43 -5 -46 -14z"/>
<path d="M3813 7513 c-8 -2 -13 -22 -13 -44 0 -39 0 -39 40 -39 l40 0 0 45 c0
43 -1 45 -27 44 -16 0 -34 -3 -40 -6z"/>
<path d="M3917 7003 c-4 -3 -7 -21 -7 -40 0 -33 1 -33 45 -33 l45 0 0 40 c0
40 0 40 -38 40 -21 0 -42 -3 -45 -7z"/>
<path d="M6250 6970 l0 -40 40 0 40 0 0 40 0 40 -40 0 -40 0 0 -40z"/>
<path d="M7310 6630 c0 -40 0 -40 39 -40 36 0 39 2 44 33 6 43 2 47 -44 47
-39 0 -39 0 -39 -40z"/>
<path d="M7542 6444 c3 -33 6 -37 36 -40 17 -2 33 0 33 4 11 72 11 72 -32 72
-40 0 -40 0 -37 -36z"/>
<path d="M2622 6443 c3 -36 5 -38 38 -38 33 0 35 2 38 38 l3 37 -41 0 -41 0 3
-37z"/>
<path d="M2512 6099 c3 -40 4 -42 41 -46 l37 -4 0 46 0 45 -41 0 -40 0 3 -41z"/>
<path d="M7657 6133 c-4 -3 -7 -24 -7 -45 0 -38 0 -38 38 -36 35 3 37 5 40 41
2 20 0 37 -5 38 -4 0 -20 3 -34 5 -14 2 -29 1 -32 -3z"/>
<path d="M2410 5780 l0 -40 40 0 40 0 0 40 0 40 -40 0 -40 0 0 -40z"/>
<path d="M7753 5783 c3 -37 4 -38 45 -41 l42 -3 0 40 0 41 -44 0 -45 0 2 -37z"/>
<path d="M1682 5538 c5 -32 28 -35 28 -4 0 17 -5 26 -16 26 -10 0 -14 -7 -12
-22z"/>
<path d="M2352 5438 l3 -43 40 0 40 0 0 40 c0 40 0 40 -43 43 l-43 3 3 -43z"/>
<path d="M7817 5473 c-4 -3 -7 -24 -7 -45 0 -38 0 -38 40 -38 l40 0 0 45 c0
44 0 45 -33 45 -19 0 -37 -3 -40 -7z"/>
<path d="M4240 5000 c0 -5 5 -10 10 -10 6 0 10 5 10 10 0 6 -4 10 -10 10 -5 0
-10 -4 -10 -10z"/>
<path d="M4235 4900 c3 -5 8 -10 11 -10 2 0 4 5 4 10 0 6 -5 10 -11 10 -5 0
-7 -4 -4 -10z"/>
<path d="M4355 4900 l-40 -7 43 -2 c23 0 42 4 42 9 0 6 -1 9 -2 9 -2 -1 -21
-5 -43 -9z"/>
<path d="M1147 5233 c-4 -3 -7 -93 -7 -200 l0 -193 200 0 200 0 0 200 0 200
-193 0 c-107 0 -197 -3 -200 -7z m93 -183 c0 -128 2 -136 33 -131 4 0 7 -6 7
-14 0 -10 -11 -15 -35 -15 l-35 0 0 145 c0 122 2 145 15 145 13 0 15 -21 15
-130z m153 99 c7 -25 -11 -57 -35 -65 -10 -3 -18 -10 -18 -15 0 -14 26 -39 39
-39 6 0 10 -4 9 -9 -2 -5 8 -18 20 -29 17 -15 22 -27 17 -41 -6 -21 -35 -18
-35 4 0 7 -15 25 -33 41 -18 16 -36 37 -40 47 -4 10 -11 16 -16 12 -12 -7 -25
31 -16 46 4 6 13 8 21 5 8 -3 14 1 14 9 0 20 31 53 51 54 9 1 19 -9 22 -20z
m2 -229 c3 -5 1 -10 -4 -10 -6 0 -11 -7 -11 -15 0 -17 -9 -19 -29 -6 -12 8
-12 11 0 25 16 18 35 20 44 6z"/>
<path d="M8818 5232 l-128 -3 0 -194 0 -194 43 -6 c23 -4 112 -5 197 -3 l155
3 3 197 2 196 -72 4 c-40 2 -130 2 -200 0z m88 -52 c62 0 55 -18 -8 -22 -38
-2 -53 -7 -55 -18 -1 -8 -5 -68 -8 -132 -5 -88 -10 -118 -20 -118 -11 0 -13
30 -13 140 1 118 3 142 17 150 9 5 22 7 29 5 8 -3 34 -5 58 -5z m122 -8 c2 -7
-6 -12 -17 -12 -21 0 -27 11 -14 24 9 9 26 2 31 -12z m-38 -66 c0 -8 6 -17 13
-20 10 -5 10 -7 0 -12 -7 -3 -13 -13 -13 -22 -1 -16 -2 -16 -14 0 -7 10 -15
15 -18 13 -3 -3 -11 1 -17 9 -10 12 -10 18 1 30 17 19 48 20 48 2z m-60 -86
c29 -27 30 -31 16 -45 -14 -14 -17 -14 -28 5 -7 11 -18 20 -25 20 -7 0 -13 11
-13 25 0 33 11 32 50 -5z m98 -122 c-3 -9 -30 -14 -76 -16 -60 -2 -72 0 -72
13 0 12 14 15 76 15 56 0 75 -3 72 -12z"/>
<path d="M5990 4994 c0 -8 5 -12 10 -9 6 4 8 11 5 16 -9 14 -15 11 -15 -7z"/>
<path d="M6105 4950 c-3 -5 1 -10 10 -10 9 0 13 5 10 10 -3 6 -8 10 -10 10 -2
0 -7 -4 -10 -10z"/>
<path d="M5992 4931 c4 -13 18 -16 19 -4 0 4 -5 9 -11 12 -7 2 -11 -2 -8 -8z"/>
<path d="M5850 4900 c0 -5 1 -10 3 -10 72 -11 77 -11 77 4 0 12 -10 16 -40 16
-22 0 -40 -4 -40 -10z"/>
<path d="M6080 4895 c0 -8 5 -15 10 -15 6 0 10 7 10 15 0 8 -4 15 -10 15 -5 0
-10 -7 -10 -15z"/>
<path d="M2250 5050 l0 -40 40 0 40 0 0 40 0 40 -40 0 -40 0 0 -40z"/>
<path d="M7910 5050 l0 -40 40 0 40 0 0 40 0 40 -40 0 -40 0 0 -40z"/>
<path d="M5070 4990 c0 -11 -6 -20 -14 -20 -7 0 -16 -9 -19 -21 -3 -12 -10
-18 -16 -14 -7 4 -11 -6 -11 -25 0 -24 -4 -31 -14 -27 -10 4 -16 -5 -21 -34
-4 -24 -12 -39 -21 -39 -8 0 -14 -10 -14 -25 0 -16 -6 -25 -15 -25 -12 0 -15
-18 -15 -100 0 -81 3 -100 15 -100 9 0 12 -6 9 -15 -4 -10 0 -15 15 -15 12 0
21 -6 21 -16 0 -8 5 -12 10 -9 6 3 10 2 10 -3 0 -5 14 -12 30 -14 24 -4 30 -1
30 14 0 10 7 18 15 18 8 0 15 7 15 15 0 32 22 63 41 58 10 -3 19 -12 19 -19 0
-8 7 -14 16 -14 11 0 14 -6 9 -20 -4 -11 -2 -20 4 -20 6 0 11 -9 11 -19 0 -16
6 -19 28 -17 15 2 32 4 39 5 7 0 10 8 7 16 -4 9 0 15 10 15 9 0 16 8 16 20 0
14 7 20 24 20 23 0 24 2 25 99 2 81 -1 100 -14 104 -9 4 -15 19 -15 37 0 23
-4 30 -20 30 -11 0 -20 6 -21 13 -2 33 -11 62 -21 69 -7 4 -9 10 -5 14 9 9
-33 45 -44 38 -5 -3 -9 6 -9 20 0 25 -3 26 -55 26 -48 0 -55 -2 -55 -20z m60
-310 c-19 -13 -30 -13 -30 0 0 6 10 10 23 10 18 0 19 -2 7 -10z"/>
<path d="M4829 4568 c0 -2 -2 -23 -3 -48 -4 -61 4 -100 20 -100 11 0 14 18 14
75 0 60 -3 75 -15 75 -8 0 -15 -1 -16 -2z"/>
<path d="M5378 4552 c-9 -33 4 -132 17 -132 16 0 25 32 25 98 0 44 -3 52 -19
52 -10 0 -21 -8 -23 -18z"/>
<path d="M2407 4733 c-4 -3 -7 -21 -7 -40 0 -32 1 -33 40 -33 l40 0 0 40 c0
39 -1 40 -33 40 -19 0 -37 -3 -40 -7z"/>
<path d="M7760 4701 l0 -41 43 0 c42 0 42 0 42 38 0 36 -1 37 -43 40 l-42 3 0
-40z"/>
<path d="M2620 4490 l0 -40 40 0 40 0 0 40 0 40 -40 0 -40 0 0 -40z"/>
<path d="M7537 4525 c-4 -8 -4 -29 0 -45 5 -27 9 -30 45 -30 l39 0 -3 43 c-3
40 -4 42 -39 45 -26 2 -38 -2 -42 -13z"/>
<path d="M3582 4158 c3 -42 4 -43 41 -46 l37 -3 0 45 0 46 -41 0 -40 0 3 -42z"/>
<path d="M2880 3890 l0 -40 45 0 45 0 0 40 0 40 -45 0 -45 0 0 -40z"/>
<path d="M6590 4155 l0 -46 38 3 c36 3 37 4 37 43 0 39 -1 40 -37 43 l-38 3 0
-46z"/>
<path d="M3800 3396 c0 -148 2 -165 18 -170 14 -4 59 -2 95 3 4 0 7 75 7 166
l0 165 -60 0 -60 0 0 -164z"/>
<path d="M4222 3508 l3 -53 50 0 50 0 0 50 0 50 -53 3 -53 3 3 -53z"/>
<path d="M4620 3395 l0 -165 55 0 55 0 0 165 0 165 -55 0 -55 0 0 -165z"/>
<path d="M6347 3352 c-14 -3 -17 -15 -17 -62 0 -57 1 -59 28 -62 15 -2 42 -1
60 1 l32 3 0 58 0 58 -43 3 c-24 2 -51 3 -60 1z"/>
<path d="M7552 3508 l3 -53 50 0 50 0 3 53 3 52 -56 0 -56 0 3 -52z"/>
<path d="M4970 1850 c0 -88 1 -160 3 -161 17 -6 205 -9 245 -4 l52 6 0 160 0
159 -150 0 -150 0 0 -160z m220 95 c0 -8 -5 -15 -11 -15 -7 0 -18 -8 -25 -17
-12 -16 -15 -16 -24 -3 -7 11 -5 16 10 18 11 2 20 10 20 18 0 8 7 14 15 14 8
0 15 -7 15 -15z m-140 -14 c0 -12 -20 -25 -27 -18 -7 7 6 27 18 27 5 0 9 -4 9
-9z m146 -46 c-30 -31 -36 -10 -8 33 17 26 17 26 20 4 2 -12 -3 -29 -12 -37z
m-121 5 c5 -8 12 -7 23 2 14 11 15 10 9 -5 -4 -10 -7 -22 -7 -26 0 -5 -13 -8
-30 -9 -16 0 -30 4 -30 9 0 5 4 9 10 9 5 0 7 7 4 15 -7 17 11 21 21 5z m55
-54 c0 -8 14 -17 31 -21 33 -8 32 -17 -4 -21 -12 -1 -25 -3 -29 -3 -5 -1 -8
-8 -8 -16 0 -8 -7 -15 -15 -15 -20 0 -19 19 1 27 12 4 14 14 10 34 -3 16 -1
29 4 29 6 0 10 -6 10 -14z m70 -71 c7 -9 10 -18 7 -21 -10 -11 -37 5 -37 21 0
19 14 19 30 0z m-116 -27 c-3 -4 -12 -8 -20 -8 -17 0 -19 27 -1 33 14 5 28
-13 21 -25z"/>
<path d="M5458 2322 c-14 -3 -18 -13 -18 -43 0 -39 0 -39 40 -39 40 0 40 0 40
39 0 32 -4 39 -22 43 -13 2 -31 2 -40 0z"/>
<path d="M5080 2260 c0 -40 0 -40 39 -40 46 0 50 4 44 48 -5 30 -8 32 -44 32
-39 0 -39 0 -39 -40z"/>
<path d="M4190 2423 l0 -43 40 0 40 0 0 45 0 45 -40 -2 -40 -1 0 -44z"/>
<path d="M6045 2480 c3 -5 -12 -12 -35 -16 -37 -6 -40 -9 -40 -39 0 -31 2 -33
40 -37 l40 -4 0 37 c0 21 3 44 6 53 3 9 1 16 -6 16 -6 0 -8 -4 -5 -10z"/>
<path d="M4010 2600 l0 -40 46 0 c43 0 46 2 40 23 -3 12 -6 30 -6 40 0 13 -9
17 -40 17 l-40 0 0 -40z"/>
<path d="M4720 2285 l0 -45 40 0 40 0 0 45 0 45 -40 0 -40 0 0 -45z"/>
<path d="M4930 1345 c0 -161 3 -197 14 -201 16 -6 152 -9 284 -6 l82 2 0 200
0 200 -190 0 -190 0 0 -195z m217 110 c4 0 8 -10 9 -22 2 -14 -4 -23 -17 -26
-10 -3 -19 -1 -19 4 0 4 -6 6 -14 3 -21 -8 -27 34 -8 57 16 19 18 19 30 2 7
-10 16 -18 19 -18z m-72 -65 c0 -8 -8 -16 -17 -18 -13 -2 -18 3 -18 18 0 15 5
20 18 18 9 -2 17 -10 17 -18z m135 -5 c0 -8 9 -15 20 -15 17 0 20 -7 20 -45 0
-33 -4 -45 -15 -45 -8 0 -15 -9 -15 -19 0 -14 -5 -18 -20 -14 -23 6 -27 33 -5
33 11 0 15 12 15 45 0 38 -3 45 -20 45 -11 0 -20 7 -20 15 0 8 9 15 20 15 11
0 20 -7 20 -15z m-180 -53 c0 -25 7 -43 20 -55 22 -18 19 -37 -6 -37 -8 0 -14
9 -14 20 0 11 -7 20 -15 20 -11 0 -15 12 -15 45 0 33 4 45 15 45 11 0 15 -11
15 -38z m170 -137 c0 -12 -16 -15 -80 -15 -73 0 -91 6 -73 23 3 4 39 7 80 7
58 0 73 -3 73 -15z"/>
</g>
</svg>
