<?xml version="1.0" standalone="no"?>
<!DOCTYPE svg PUBLIC "-//W3C//DTD SVG 20010904//EN"
 "http://www.w3.org/TR/2001/REC-SVG-20010904/DTD/svg10.dtd">
<svg version="1.0" xmlns="http://www.w3.org/2000/svg"
 width="820.000000pt" height="820.000000pt" viewBox="0 0 820.000000 820.000000"
 preserveAspectRatio="xMidYMid meet">
<metadata>
Created by potrace 1.16, written by Peter Selinger 2001-2019
</metadata>
<g transform="translate(0.000000,820.000000) scale(0.100000,-0.100000)"
fill="#9e9373" stroke="none">
<path d="M0 4100 l0 -4100 4100 0 4100 0 0 4100 0 4100 -4100 0 -4100 0 0
-4100z m4480 3225 c823 -126 1502 -565 1964 -1272 213 -326 358 -715 417
-1123 27 -183 32 -522 10 -680 -48 -353 -128 -620 -272 -910 -169 -340 -371
-602 -668 -867 -680 -607 -1631 -842 -2494 -615 l-108 29 31 -32 c16 -17 30
-33 30 -36 0 -10 -87 -99 -97 -99 -5 0 -26 19 -46 42 l-37 42 42 43 c23 23 40
45 37 47 -3 3 -52 21 -109 41 -235 81 -549 257 -787 441 -132 101 -404 380
-509 519 -283 378 -462 803 -529 1258 -128 871 169 1755 800 2381 381 378 808
617 1336 746 101 24 244 47 414 64 90 9 474 -4 575 -19z m-2115 -5425 c33 -13
90 -25 128 -28 40 -3 67 -9 67 -16 0 -9 -119 -167 -151 -201 -17 -17 -32 10
-18 33 20 32 -1 64 -66 96 -43 22 -71 29 -118 30 l-62 1 -5 -260 c-6 -297 -2
-283 -104 -365 -31 -25 -56 -48 -56 -51 0 -14 76 -73 116 -90 63 -28 150 -35
215 -15 87 25 93 36 97 186 l4 127 -32 36 c-17 20 -47 41 -66 47 -32 11 -39 9
-75 -14 -36 -24 -59 -27 -59 -7 0 4 20 22 44 39 l44 32 171 0 c120 0 172 -3
177 -12 4 -6 2 -14 -5 -16 -7 -2 -24 -14 -39 -27 -26 -23 -27 -25 -30 -169
l-4 -146 27 -10 c15 -6 25 -15 23 -20 -4 -14 -218 -87 -312 -106 -328 -67
-598 186 -548 513 17 108 60 190 138 261 63 58 186 128 204 117 5 -3 -26 -40
-69 -83 -95 -93 -120 -149 -128 -284 -6 -99 7 -186 42 -263 27 -62 41 -73 63
-51 15 14 18 54 22 294 l5 277 55 36 c150 99 216 137 230 134 8 -2 42 -13 75
-25z m2875 -37 l39 -38 -50 -54 -50 -54 -40 39 c-21 21 -39 43 -39 48 0 12 81
96 92 96 5 0 26 -17 48 -37z m-2407 -271 c15 -15 33 -45 40 -66 l13 -39 59 67
c32 36 62 66 67 66 5 0 24 -16 44 -35 19 -19 46 -38 59 -41 14 -3 25 -9 25
-14 0 -14 -85 -91 -108 -97 -18 -4 -32 3 -58 28 l-34 33 -30 -29 -30 -29 0
-157 c0 -140 2 -159 19 -180 17 -21 22 -22 41 -11 12 7 25 11 28 7 10 -10 -11
-36 -72 -89 l-57 -50 -59 59 -59 59 19 32 c18 28 20 50 20 190 0 183 -8 210
-61 199 -47 -11 -35 16 33 73 35 29 65 52 68 52 4 0 18 -13 33 -28z m485 -11
l35 -39 -2 -220 c-2 -191 0 -221 14 -236 19 -18 31 -20 40 -6 9 15 35 12 35
-5 0 -16 -114 -115 -134 -115 -15 0 -48 34 -67 70 -10 18 -15 85 -19 245 l-5
220 -34 0 c-19 0 -35 5 -37 10 -3 10 114 114 130 114 5 1 25 -17 44 -38z m351
-7 c11 -14 23 -41 27 -60 l6 -34 60 52 c104 92 103 91 136 74 48 -25 92 -66
92 -86 0 -36 19 -29 95 35 42 36 80 65 84 65 11 0 83 -53 100 -73 19 -23 34
-21 61 8 26 28 45 32 53 11 3 -7 -12 -30 -34 -52 l-39 -38 0 -176 c0 -96 3
-185 6 -197 7 -25 33 -38 48 -23 15 15 36 12 36 -4 0 -16 -115 -116 -134 -116
-19 0 -53 40 -71 82 -12 29 -15 77 -15 217 l0 179 -40 36 c-22 20 -43 36 -47
36 -4 0 -27 -19 -50 -42 l-43 -42 0 -156 c0 -159 8 -195 42 -195 31 0 13 -33
-40 -73 l-57 -44 -37 42 -38 43 0 202 0 203 -35 31 c-20 17 -38 31 -41 31 -2
0 -25 -19 -49 -41 l-45 -42 0 -163 c0 -152 2 -165 20 -181 11 -10 20 -23 20
-29 0 -6 -25 -31 -56 -54 l-55 -42 -53 51 -54 50 23 21 c21 20 23 33 30 190 8
198 1 227 -52 223 -18 -2 -34 1 -38 6 -3 5 25 34 61 65 73 60 83 61 123 10z
m1137 17 c142 -67 200 -222 143 -378 -17 -46 -38 -74 -103 -138 -104 -103
-140 -123 -194 -107 -166 50 -247 257 -167 425 35 74 197 227 239 227 12 0 48
-13 82 -29z m393 -9 l36 -38 -4 -215 c-3 -203 -2 -216 17 -239 19 -22 23 -24
43 -12 16 10 24 11 33 2 12 -12 -21 -44 -97 -97 l-38 -26 -25 24 c-51 47 -54
63 -54 279 0 120 -4 209 -10 221 -7 12 -21 19 -40 19 -17 0 -30 3 -30 7 0 10
113 112 124 113 5 0 25 -17 45 -38z m325 9 c15 -16 33 -45 40 -66 l13 -37 59
66 c32 36 63 66 67 66 5 0 19 -13 33 -30 14 -16 41 -35 59 -42 19 -6 35 -15
35 -18 0 -13 -60 -76 -88 -93 l-31 -18 -41 37 -41 37 -29 -28 -30 -29 0 -155
c0 -139 3 -159 20 -181 17 -22 22 -23 40 -12 32 19 39 -13 9 -37 -13 -10 -44
-35 -69 -55 l-45 -36 -60 60 -59 59 22 24 c21 22 22 32 22 188 0 188 -8 215
-60 204 -15 -3 -31 -2 -34 3 -4 8 121 121 135 122 3 0 18 -13 33 -29z m684
-55 c45 -46 82 -88 82 -93 0 -5 -65 -62 -145 -127 -80 -65 -145 -122 -145
-128 0 -19 40 -67 74 -87 52 -32 106 -28 159 13 45 35 57 36 57 7 0 -17 -155
-137 -199 -154 -36 -13 -120 23 -165 73 -55 61 -79 138 -74 245 3 79 8 98 37
152 19 35 52 78 75 96 53 43 127 87 147 87 8 0 52 -38 97 -84z"/>
<path d="M3970 7288 c-960 -43 -1847 -623 -2289 -1496 -155 -306 -242 -588
-283 -912 -16 -134 -17 -517 0 -635 39 -275 112 -548 202 -756 253 -583 730
-1083 1309 -1374 536 -268 1149 -350 1736 -230 693 142 1335 579 1739 1188
185 277 328 625 396 959 75 365 63 799 -31 1178 -119 480 -366 916 -719 1271
-560 563 -1274 843 -2060 807z m29 -64 c47 -20 90 -40 95 -45 5 -4 34 5 65 20
78 39 158 64 184 57 13 -3 63 -31 112 -62 l90 -56 102 21 c163 33 160 34 257
-59 l83 -80 121 0 c66 0 127 -3 136 -6 11 -4 150 -170 161 -191 1 -1 47 -9
104 -18 95 -14 152 -33 165 -54 8 -13 -272 -21 -324 -9 -28 7 -71 7 -115 2
-166 -21 -354 24 -485 116 -20 14 -46 18 -130 18 -108 0 -161 10 -259 52 -51
23 -53 23 -121 6 -86 -20 -171 -20 -261 0 l-69 16 -73 -31 c-91 -37 -188 -54
-272 -45 -61 6 -66 5 -117 -28 -29 -20 -67 -43 -85 -52 -42 -21 -148 -46 -199
-46 -22 0 -49 -7 -60 -15 -21 -16 -80 -20 -88 -6 -3 5 -43 12 -88 16 -70 6
-83 5 -94 -9 -13 -19 -50 -31 -142 -47 -68 -12 -75 -19 -146 -141 -26 -47 -45
-61 -47 -35 -1 6 -9 -26 -19 -73 -10 -51 -13 -87 -7 -91 17 -12 -4 -70 -28
-81 -13 -6 -31 -29 -40 -51 -33 -83 -100 -167 -181 -228 -40 -29 -53 -46 -58
-73 -11 -60 -76 -175 -133 -237 -46 -49 -56 -67 -60 -102 -8 -92 -53 -207
-118 -298 -29 -41 -32 -52 -28 -93 7 -57 -11 -152 -42 -222 -22 -49 -23 -59
-13 -124 9 -62 8 -83 -12 -164 l-22 -93 22 -89 c20 -78 22 -104 16 -206 -5
-93 -4 -124 8 -146 33 -65 59 -163 66 -259 8 -95 11 -104 45 -149 53 -69 83
-133 105 -226 18 -75 24 -86 74 -137 58 -59 104 -139 113 -196 4 -25 15 -41
37 -54 53 -34 114 -104 142 -164 22 -50 33 -61 70 -77 34 -15 48 -29 69 -69
14 -28 24 -51 21 -51 -2 0 -25 12 -50 26 -26 15 -49 24 -52 22 -2 -3 3 -40 12
-82 15 -67 20 -76 39 -76 12 0 50 -3 85 -7 62 -6 62 -6 51 15 -15 29 -11 28
46 -8 26 -17 53 -30 60 -30 53 0 192 -77 292 -163 34 -29 68 -49 90 -53 20 -3
56 -11 81 -18 41 -10 45 -15 48 -45 3 -27 0 -32 -12 -28 -33 13 -98 28 -103
24 -6 -7 75 -130 98 -147 15 -12 18 -23 13 -45 l-5 -30 -142 3 c-138 4 -143 4
-170 30 -35 33 -127 156 -127 169 0 6 -46 17 -103 26 -57 9 -115 21 -130 26
-39 15 -148 195 -133 219 3 5 -18 14 -47 21 -68 15 -204 79 -213 100 -3 9 -16
52 -28 96 l-21 79 -64 33 c-35 17 -71 39 -82 48 -18 17 -39 93 -39 145 0 24
-12 36 -80 84 -44 31 -87 67 -95 80 -11 16 -15 51 -16 125 l0 102 -90 87
c-102 100 -101 96 -69 247 l18 89 -64 86 c-36 47 -67 96 -71 109 -4 15 8 65
31 135 l37 111 -40 77 c-69 134 -70 141 -21 238 l42 85 -22 70 c-37 112 -33
147 22 230 l46 70 -15 82 c-8 45 -13 93 -9 107 3 13 40 61 83 106 l76 81 -2
117 c-2 117 -2 117 26 143 36 33 149 109 162 109 6 0 11 1 11 3 1 1 5 49 9
106 7 75 14 110 28 129 10 13 61 47 114 75 l96 51 22 81 c43 153 53 163 209
208 l82 23 48 94 c26 52 58 102 72 112 24 17 109 38 210 52 39 6 48 12 67 44
11 20 47 65 79 100 l57 63 138 -3 c75 -2 133 0 127 3 -9 6 53 70 128 133 41
33 89 34 209 2 l89 -24 31 23 c47 36 178 105 199 105 10 0 58 -16 105 -36z
m502 -373 c112 -20 353 -86 414 -113 29 -12 29 -13 -32 -16 -46 -2 -94 5 -175
27 -234 62 -339 75 -603 75 -257 0 -338 -9 -535 -61 -144 -38 -184 -44 -237
-36 l-48 9 160 47 c286 83 386 97 705 92 185 -2 259 -7 351 -24z m1230 -168
c5 -5 8 -135 7 -309 l-3 -299 -25 4 c-49 7 -79 32 -136 116 -80 115 -94 144
-94 188 l0 37 -50 0 c-41 0 -55 5 -85 31 -19 17 -35 36 -35 43 0 7 -19 17 -42
24 -24 6 -56 22 -71 34 l-28 23 198 -3 c250 -4 237 5 241 -160 l4 -117 -27 25
c-33 30 -55 78 -55 120 0 25 -4 30 -25 30 -37 0 -86 23 -118 55 -32 32 -47 27
-24 -9 19 -28 93 -66 130 -66 25 0 27 -3 27 -40 0 -52 22 -94 59 -116 26 -15
29 -23 33 -80 4 -69 21 -96 69 -113 38 -13 38 3 -1 19 -16 7 -32 22 -36 34 -4
11 -8 98 -8 191 -1 179 -11 222 -53 241 -10 4 -101 9 -203 12 -145 3 -189 7
-202 19 -12 11 -18 11 -24 2 -11 -18 -34 18 -34 53 l0 28 301 -4 c165 -2 305
-8 310 -13z m-2306 -123 c-4 -6 -28 -22 -55 -35 -27 -14 -64 -38 -82 -54 -47
-40 -71 -51 -116 -51 l-39 0 -5 -47 c-3 -33 -17 -68 -44 -110 -21 -34 -50 -80
-64 -102 -13 -23 -28 -41 -32 -41 -4 0 -8 101 -8 225 l0 225 226 0 c150 0 223
-3 219 -10z m1722 -5 c2 -7 -284 -10 -846 -10 -677 0 -847 3 -844 13 7 16
1684 13 1690 -3z m733 -49 c86 -23 145 -52 164 -80 8 -13 21 -48 29 -77 10
-43 20 -58 45 -74 18 -11 47 -29 65 -40 39 -25 68 -102 70 -186 l2 -56 60 -32
c100 -52 151 -95 159 -131 10 -55 7 -208 -5 -212 -6 -2 7 -16 29 -32 59 -41
150 -139 158 -171 4 -16 0 -80 -8 -144 -8 -65 -11 -120 -6 -126 33 -40 80
-109 106 -156 32 -55 32 -56 18 -110 -8 -30 -25 -83 -38 -118 l-23 -63 54
-110 54 -110 -57 -113 -57 -114 20 -66 c30 -95 27 -124 -15 -185 l-35 -51 11
-73 c15 -89 10 -102 -86 -205 l-68 -73 0 -118 c-1 -136 -1 -136 -113 -216 -65
-47 -79 -52 -86 -31 -2 6 -6 -33 -10 -88 -9 -146 -14 -156 -112 -215 -46 -28
-99 -56 -117 -62 -38 -13 -48 -24 -48 -55 0 -46 -51 -183 -73 -197 -12 -8 -62
-26 -111 -41 -70 -20 -91 -23 -98 -13 -6 10 -8 9 -8 -2 0 -22 -67 -159 -95
-196 -28 -37 -83 -51 -245 -61 -72 -5 -93 -9 -67 -13 l37 -5 -35 -52 c-19 -29
-52 -70 -73 -93 l-39 -40 -125 0 c-105 0 -128 -3 -139 -17 -8 -9 -48 -45 -89
-81 l-75 -64 -57 6 c-31 4 -89 16 -129 27 l-72 20 -68 -46 c-38 -25 -89 -55
-114 -66 -52 -23 -80 -18 -191 32 l-67 30 -81 -35 c-137 -58 -144 -58 -270 18
-59 37 -112 66 -117 66 -5 0 -9 23 -9 50 0 47 1 50 19 40 11 -5 22 -14 25 -19
3 -5 41 10 83 32 l78 41 -35 14 c-19 8 -60 19 -90 24 -80 15 -80 15 -80 43 0
22 4 25 33 25 40 0 125 -24 185 -52 41 -20 45 -20 125 -4 102 20 183 20 266 1
62 -15 65 -15 125 9 103 41 149 49 271 44 64 -2 110 -1 103 4 -16 11 6 29 83
68 65 33 143 56 220 65 51 6 63 13 112 59 59 56 136 101 232 136 33 13 64 26
69 31 12 11 229 -1 237 -13 3 -5 15 32 26 82 13 58 16 89 9 86 -6 -2 -18 -7
-27 -11 -12 -4 -18 1 -23 20 -8 33 -3 41 37 54 25 9 40 26 72 83 52 94 237
283 249 254 2 -6 5 -1 5 11 1 34 44 144 71 184 14 20 49 62 78 93 43 48 52 63
52 95 0 73 58 221 113 287 19 23 25 45 31 109 5 64 12 89 36 127 26 42 28 51
18 79 -16 48 -4 167 26 241 26 64 26 67 12 123 -24 89 -30 195 -17 282 12 78
12 78 -20 148 -42 93 -67 190 -75 299 -7 82 -10 94 -41 135 -19 24 -45 65 -58
90 -27 55 -65 174 -65 206 0 15 -24 47 -69 92 -66 66 -113 142 -140 225 -8 24
-24 45 -46 58 -44 27 -79 70 -112 133 -14 28 -33 58 -43 66 -15 14 -16 33 -12
170 4 145 5 153 21 134 9 -11 45 -27 81 -37z m-1709 -16 c-18 -16 -34 -19 -75
-16 -28 2 -41 2 -28 -1 26 -5 30 -23 5 -23 -9 0 -24 -7 -34 -16 -10 -9 -25
-14 -34 -12 -15 3 -15 6 4 30 12 15 17 29 12 33 -16 9 -51 -32 -51 -59 0 -26
-52 -86 -75 -86 -7 0 -20 -3 -28 -6 -8 -3 -27 7 -43 21 l-29 27 35 -19 c43
-24 74 -19 100 14 25 33 25 58 0 83 -26 26 -70 25 -105 -1 -20 -17 -29 -19
-35 -9 -10 16 -74 3 -67 -13 3 -7 8 -19 11 -28 4 -9 -2 -26 -13 -40 l-20 -24
8 32 c10 35 -9 63 -45 63 -10 0 -39 7 -63 16 -24 8 -46 12 -50 8 -3 -4 0 -9 7
-12 8 -2 29 -18 47 -34 49 -42 57 -104 21 -158 -14 -22 -26 -42 -26 -45 0 -10
134 46 184 77 70 42 37 5 -37 -43 -55 -35 -89 -46 -235 -75 -41 -7 -100 -58
-118 -99 -6 -16 -17 -75 -24 -130 -6 -55 -20 -120 -31 -145 -22 -49 -75 -110
-96 -110 -9 0 -12 -9 -8 -27 3 -16 2 -21 -1 -13 -4 8 -13 23 -22 33 -14 16
-13 17 10 17 14 0 32 8 42 18 15 18 15 20 -5 38 -21 19 -22 19 -36 -3 -9 -13
-23 -23 -32 -23 -13 0 -13 2 -2 9 8 5 10 14 6 21 -6 10 -11 9 -21 -4 -12 -17
-31 -5 -20 13 3 5 -1 12 -9 15 -19 7 -29 -16 -21 -49 4 -14 -1 -38 -10 -58
-44 -92 38 -177 98 -103 10 12 18 16 18 10 0 -7 -16 -26 -34 -42 -36 -31 -76
-34 -76 -6 0 19 -16 18 -24 -2 -6 -15 11 -144 20 -153 2 -2 4 23 4 57 0 62 4
69 28 53 11 -6 10 -19 -6 -68 -11 -34 -27 -74 -36 -89 -15 -29 -15 -28 -17 46
-1 41 -3 113 -5 160 -2 47 1 99 6 115 7 20 6 66 -2 135 -15 132 -15 238 1 268
16 30 69 62 104 62 28 0 77 -25 77 -40 0 -10 -49 0 -56 11 -11 19 -56 8 -85
-20 -41 -42 -36 -96 12 -121 16 -9 26 -8 46 5 13 9 27 14 30 12 2 -3 -6 -13
-20 -21 -32 -21 -88 -17 -95 6 -5 19 -22 25 -22 8 0 -6 14 -37 30 -70 17 -33
29 -65 28 -72 -2 -6 7 -16 18 -23 12 -6 28 -16 37 -23 11 -10 17 -9 27 3 19
23 4 48 -26 42 -27 -5 -28 10 -2 26 22 14 81 -29 75 -54 -7 -25 21 -48 34 -28
21 29 37 75 44 123 l8 49 -43 -34 c-33 -26 -51 -34 -84 -34 -42 0 -106 35
-106 58 0 8 3 8 12 -1 16 -16 50 -15 73 2 14 10 26 11 52 3 66 -20 123 36 89
88 -20 30 -32 32 -39 5 -4 -15 -14 -20 -38 -20 -26 0 -30 3 -21 12 7 7 12 21
12 31 0 10 9 21 20 24 24 6 25 16 5 33 -18 15 -19 36 -3 46 7 4 8 3 4 -5 -9
-13 62 -103 75 -95 13 8 -1 84 -22 119 -10 17 -35 46 -55 65 -34 31 -36 32
-21 8 23 -37 21 -50 -8 -78 -20 -19 -27 -21 -40 -10 -20 16 -19 55 1 90 16 26
14 60 -4 60 -14 0 -45 -63 -44 -92 0 -15 -4 -26 -9 -23 -15 10 -11 32 15 83
22 45 24 72 6 72 -5 0 -11 -13 -15 -29 -3 -16 -13 -35 -21 -42 -8 -6 -14 -18
-14 -26 0 -8 -5 -11 -11 -8 -7 5 -3 15 10 29 12 13 25 42 29 66 6 37 11 43 34
46 14 1 40 10 58 19 17 9 34 14 37 12 2 -3 -16 -15 -41 -28 -25 -12 -46 -26
-46 -30 0 -19 19 -15 59 12 39 26 61 35 61 26 0 -2 -20 -18 -45 -37 -35 -26
-42 -36 -33 -47 6 -7 18 -11 27 -8 12 3 27 -9 48 -39 24 -34 42 -47 82 -61 31
-10 63 -14 81 -10 l31 7 -25 19 c-31 25 -76 111 -76 147 0 35 37 87 80 111 33
18 49 20 181 15 89 -3 162 0 192 7 39 9 51 8 70 -4 20 -13 25 -13 42 0 15 11
35 13 80 8 33 -3 71 -2 85 4 43 17 58 12 31 -9z m381 9 c47 11 53 10 74 -10
13 -12 28 -18 34 -14 9 6 9 10 -1 17 -9 6 13 7 61 1 41 -4 143 -8 225 -8 125
0 155 -3 183 -18 40 -22 72 -71 72 -111 0 -36 -32 -88 -65 -106 -14 -7 -25
-17 -25 -21 0 -9 29 -1 48 14 7 5 35 10 62 11 55 2 47 -9 -15 -20 -22 -3 -55
-12 -72 -20 -18 -7 -33 -9 -33 -4 0 4 -3 15 -6 24 -4 11 -1 16 10 16 9 0 16 7
16 15 0 18 -20 20 -21 3 0 -7 -4 -2 -10 10 -14 36 0 46 28 20 l25 -23 19 24
c29 36 25 87 -10 122 -16 16 -36 29 -45 29 -33 0 -67 -24 -73 -52 -7 -34 -18
-36 -27 -5 -4 16 1 28 22 45 l27 24 -45 -8 c-25 -4 -61 -8 -80 -7 -19 0 -29
-2 -22 -4 6 -3 12 -10 12 -15 0 -6 -3 -8 -7 -5 -3 4 -15 -1 -25 -10 -19 -17
-19 -17 4 -34 12 -10 19 -21 15 -26 -5 -4 -13 0 -18 10 -6 9 -19 17 -29 17
-11 0 -20 5 -20 10 0 6 6 10 14 10 16 0 31 34 22 49 -10 15 -66 19 -66 4 0
-18 -7 -16 -30 7 -43 43 -136 12 -123 -42 15 -60 81 -87 131 -52 12 8 22 10
22 5 0 -6 -14 -18 -31 -26 -25 -13 -37 -14 -65 -5 -38 13 -84 66 -84 97 0 36
-24 46 -95 39 -49 -5 -72 -3 -95 9 -41 21 -38 24 15 12 33 -8 60 -7 97 2z
m-1099 -26 c-7 -2 -21 -2 -30 0 -10 3 -4 5 12 5 17 0 24 -2 18 -5z m1792 -3
l30 -8 -30 0 c-16 0 -41 4 -55 8 l-25 8 25 0 c14 0 39 -4 55 -8z m-647 -30
c13 -16 21 -30 19 -30 -2 0 -23 10 -48 21 -38 19 -41 23 -24 30 30 11 29 11
53 -21z m-716 -7 c23 -21 23 -40 -1 -53 -23 -12 -48 -14 -37 -2 4 4 13 7 19 7
5 0 12 6 15 13 2 6 -3 12 -12 12 -18 0 -30 16 -21 30 9 14 16 13 37 -7z m882
-9 c9 -22 -13 -57 -31 -50 -8 3 -17 6 -19 6 -9 0 -3 47 7 57 14 14 35 7 43
-13z m-1400 -9 c18 -27 20 -35 8 -35 -4 0 -16 14 -25 30 -22 36 -6 41 17 5z
m1897 7 c-11 -21 -41 -48 -41 -38 0 11 34 55 43 56 4 0 3 -8 -2 -18z m-937
-66 c17 -62 17 -66 0 -95 -23 -38 -30 -39 -49 -2 -13 27 -13 36 2 95 10 36 20
66 24 66 3 0 14 -29 23 -64z m811 23 c0 -32 -2 -34 -32 -33 -23 1 -33 -3 -33
-13 0 -8 -5 -11 -11 -8 -6 4 -7 14 -3 24 4 9 6 26 5 39 0 12 4 22 10 22 5 0 7
-4 4 -10 -11 -17 5 -32 21 -19 11 9 14 8 14 -7 0 -16 2 -17 10 -4 6 10 6 16 0
18 -6 2 -10 10 -10 19 0 8 6 13 13 11 6 -3 12 -20 12 -39z m-1442 14 c-15 -6
-17 -39 -3 -48 15 -9 12 -25 -4 -19 -32 12 -30 75 2 73 11 0 12 -3 5 -6z
m1317 -46 c16 -11 17 -18 7 -54 -9 -34 -8 -45 6 -67 10 -14 26 -26 37 -26 11
0 40 -5 64 -12 37 -10 51 -9 90 6 49 19 98 67 74 75 -7 2 -28 10 -46 17 -29
12 -32 16 -22 34 15 29 64 26 96 -5 29 -30 40 -31 49 -7 4 11 0 21 -11 27 -33
20 -69 53 -63 60 4 3 19 -5 34 -19 28 -26 65 -35 65 -16 0 6 -8 10 -19 10 -10
0 -25 8 -32 17 -12 15 -12 16 6 8 11 -4 38 -11 60 -14 36 -5 40 -9 45 -42 4
-20 17 -53 29 -75 l23 -39 -26 30 c-14 17 -29 45 -32 63 -3 17 -7 32 -8 32 -1
0 -24 -20 -51 -45 -41 -39 -45 -45 -24 -43 20 3 26 -4 39 -40 10 -31 12 -47 4
-59 -17 -27 -28 -25 -46 8 -21 36 -23 56 -5 62 6 2 9 8 4 12 -11 13 -67 -45
-88 -90 -19 -41 -26 -115 -10 -115 5 0 14 7 22 16 7 8 41 29 76 45 67 31 91
31 127 0 47 -41 55 -97 41 -281 -7 -95 -7 -122 0 -230 3 -41 5 -88 4 -105 -1
-16 -2 -62 -3 -102 -1 -58 -3 -69 -14 -60 -14 11 -12 91 2 162 4 17 2 37 -4
45 -9 13 -12 13 -24 -2 -20 -26 -44 -22 -77 13 -35 38 -39 58 -4 24 29 -30 58
-32 85 -5 24 24 27 96 6 126 -10 13 -11 23 -4 31 14 17 0 53 -21 53 -10 0 -26
-10 -34 -22 l-16 -23 -20 25 c-18 22 -20 23 -26 7 -4 -9 -16 -17 -26 -17 -16
0 -18 5 -13 28 13 61 37 88 69 76 23 -9 18 -24 -9 -24 -29 0 -50 -24 -41 -47
6 -17 7 -17 16 0 9 15 12 16 25 2 22 -21 37 -19 31 5 -6 24 9 36 27 21 10 -8
16 -8 25 2 6 8 8 16 5 20 -3 3 3 31 15 62 25 68 27 82 5 64 -9 -7 -28 -15 -43
-16 -25 -4 -25 -3 6 16 39 24 50 59 31 97 -20 43 -58 60 -105 48 -33 -8 -38
-13 -36 -37 1 -19 -3 -27 -15 -28 -15 -1 -15 -2 1 -6 24 -6 11 -23 -18 -23
-18 0 -23 4 -19 15 6 16 -4 19 -30 9 -24 -9 -21 -67 4 -89 18 -17 26 -17 63
-8 26 7 46 8 52 2 5 -5 24 -9 42 -9 18 0 33 -4 33 -10 0 -5 -9 -10 -20 -10
-11 0 -20 -6 -20 -14 0 -37 -99 -19 -148 27 l-24 22 7 -30 c19 -81 29 -113 47
-150 24 -46 34 -55 66 -55 16 0 21 -4 15 -12 -4 -7 -10 -31 -14 -53 l-6 -40
-2 48 c-1 33 -5 47 -15 47 -22 0 -74 69 -90 120 -9 25 -20 89 -26 143 -11 103
-18 126 -54 165 -31 35 -60 47 -166 71 -86 19 -210 74 -197 87 3 3 27 -4 53
-16 44 -21 122 -50 130 -50 10 0 1 18 -22 45 -23 26 -25 36 -20 78 6 56 19 83
24 50 2 -13 12 -29 22 -36z m-1223 37 c-3 -3 -12 -4 -19 -1 -8 3 -5 6 6 6 11
1 17 -2 13 -5z m1163 -7 c0 -22 -30 -57 -49 -57 -10 0 -25 8 -32 18 -10 13
-10 14 0 6 19 -17 50 -5 57 22 6 25 24 33 24 11z m-1176 -33 c3 -8 0 -25 -6
-37 l-13 -22 -3 22 c-3 19 -7 21 -23 13 -24 -13 -24 -6 -1 19 21 24 38 26 46
5z m1069 -10 c-4 -11 1 -22 12 -30 15 -12 16 -14 3 -14 -8 0 -21 7 -28 15 -13
16 -7 45 9 45 6 0 8 -7 4 -16z m-1453 -9 c13 -16 6 -35 -14 -35 -8 0 -19 -7
-26 -16 -12 -13 -16 -12 -38 11 -19 21 -21 29 -12 40 16 19 74 19 90 0z m797
-7 c59 -33 73 -49 73 -80 0 -26 -3 -29 -22 -22 -13 3 -29 11 -36 17 -14 11
-66 107 -58 107 3 0 22 -10 43 -22z m263 7 c0 -19 -53 -105 -64 -105 -8 0 -21
-3 -30 -6 -13 -5 -16 1 -16 25 0 27 7 36 47 61 45 29 63 36 63 25z m345 -25
c10 -11 16 -20 13 -20 -3 0 -13 9 -23 20 -10 11 -16 20 -13 20 3 0 13 -9 23
-20z m649 -37 c34 -60 26 -67 -13 -10 -25 37 -30 57 -15 57 1 0 14 -21 28 -47z
m-2004 -23 c0 -11 -14 -11 -50 0 -22 7 -21 8 13 9 20 1 37 -3 37 -9z m788 -39
c31 -16 32 -18 16 -32 -23 -18 -118 -17 -164 3 l-35 15 65 16 c82 19 79 19
118 -2z m86 13 c34 -13 12 -62 -26 -56 -12 2 -19 -7 -24 -33 -5 -29 -17 -43
-58 -71 -28 -18 -54 -34 -59 -34 -4 0 6 26 22 58 24 47 36 61 63 68 20 6 34
17 37 29 3 18 19 45 26 45 2 0 10 -3 19 -6z m172 -10 c36 -9 62 -19 59 -22 -9
-10 -97 -31 -127 -32 -31 0 -78 19 -78 32 0 7 54 35 73 37 4 1 37 -6 73 -15z
m974 -14 c0 -5 -4 -10 -10 -10 -5 0 -10 5 -10 10 0 6 5 10 10 10 6 0 10 -4 10
-10z m59 -34 c-24 -41 -30 -45 -26 -16 3 19 37 63 44 56 2 -2 -6 -20 -18 -40z
m-3046 -4 c6 -29 1 -39 -46 -90 -72 -78 -133 -159 -210 -278 -466 -719 -483
-1636 -43 -2385 51 -87 175 -257 253 -345 43 -50 53 -68 53 -98 l0 -36 -68 73
c-252 272 -457 658 -546 1025 -46 190 -60 311 -60 537 0 243 14 356 74 593 89
348 258 661 520 964 36 41 65 75 66 74 1 -1 4 -16 7 -34z m1285 22 c41 -28 20
-104 -29 -104 -25 0 -59 35 -59 60 0 22 33 60 53 60 7 0 23 -7 35 -16z m1162
-4 c24 -24 26 -57 3 -82 -18 -20 -63 -24 -81 -6 -21 21 -15 75 10 92 30 21 44
20 68 -4z m-1820 2 c0 -4 12 -15 28 -24 17 -11 21 -18 11 -18 -8 0 -26 11 -39
25 -13 14 -18 25 -12 25 7 0 12 -3 12 -8z m1277 -28 c21 -6 89 -111 79 -121
-2 -2 -26 10 -53 26 -37 23 -52 40 -60 66 -12 38 -9 40 34 29z m-51 -39 c13
-32 13 -42 -3 -100 -9 -36 -20 -65 -23 -65 -7 0 -30 106 -30 136 0 19 26 64
36 64 3 0 12 -16 20 -35z m1004 27 c0 -5 -9 -17 -20 -27 -23 -21 -26 -14 -8
15 13 20 28 27 28 12z m559 -117 c277 -332 463 -778 512 -1226 17 -150 6 -474
-20 -620 -39 -218 -124 -470 -223 -659 -108 -208 -234 -381 -425 -584 -68 -71
-82 -74 -83 -15 0 33 17 49 55 49 43 0 75 25 75 59 0 17 14 45 35 72 149 185
240 324 321 494 213 442 275 931 178 1412 -71 358 -241 711 -478 996 -53 65
-62 80 -58 107 6 39 11 35 111 -85z m-269 -1186 c0 -1105 -2 -1258 -15 -1269
-13 -11 -15 132 -15 1276 1 1136 2 1287 15 1270 13 -17 15 -187 15 -1277z
m-2600 4 c0 -838 -3 -1264 -10 -1257 -11 11 -15 2497 -5 2515 4 5 8 9 11 9 2
0 4 -570 4 -1267z m-222 1148 c2 -63 -1 -108 -8 -115 -7 -7 -10 -3 -10 12 0
19 -3 20 -24 12 -47 -17 -208 -113 -242 -142 l-34 -30 0 95 0 95 43 37 c48 42
168 117 212 133 57 21 60 17 63 -97z m1277 64 c0 -38 -37 -48 -55 -15 -14 27
4 52 34 48 16 -2 21 -10 21 -33z m513 3 c2 -19 -2 -28 -18 -33 -24 -8 -50 10
-50 35 0 24 10 31 40 28 19 -2 26 -10 28 -30z m-1040 6 c27 -19 28 -45 2 -69
-29 -26 -70 -7 -70 33 0 49 28 64 68 36z m1576 -3 c21 -23 14 -56 -15 -72 -47
-25 -90 32 -54 71 23 25 47 25 69 1z m-1532 -58 c-7 -40 -42 -59 -97 -53 -13
1 -7 6 20 16 48 17 65 37 66 78 1 30 1 30 8 6 4 -14 5 -35 3 -47z m1878 46 c0
-5 -15 -10 -32 -10 -18 -1 -25 -3 -15 -6 19 -5 17 -30 -2 -25 -6 1 -11 -6 -11
-16 0 -26 -10 -33 -31 -21 -23 12 -25 29 -4 29 9 0 15 9 15 25 0 17 7 28 22
34 25 9 58 3 58 -10z m-2255 -8 c3 -10 3 -25 0 -33 -5 -13 -11 -13 -31 -4 -13
6 -22 16 -20 23 3 7 -1 10 -10 6 -7 -3 -14 -1 -14 4 0 29 66 33 75 4z m1831
-52 c10 -11 31 -23 48 -28 l31 -9 -33 -1 c-45 -1 -82 36 -81 81 l1 33 8 -29
c5 -15 17 -37 26 -47z m424 31 c0 -5 -2 -10 -4 -10 -3 0 -8 5 -11 10 -3 6 -1
10 4 10 6 0 11 -4 11 -10z m-1183 -106 c2 -7 -26 -13 -79 -17 -146 -10 -335
-79 -463 -167 -69 -48 -172 -147 -227 -220 -67 -87 -153 -266 -180 -370 -31
-120 -31 -348 -1 -470 56 -224 171 -405 348 -546 353 -283 841 -294 1201 -26
337 250 483 675 373 1081 -104 384 -472 690 -867 718 -53 4 -81 10 -79 17 6
18 54 19 154 1 337 -57 615 -267 763 -577 93 -195 119 -443 70 -664 -42 -187
-154 -380 -301 -519 -347 -327 -853 -372 -1252 -112 -492 321 -612 977 -267
1466 125 177 321 318 524 376 137 40 275 54 283 29z m-799 -66 c21 -18 14 -66
-13 -84 -29 -19 -60 -11 -81 21 -36 54 40 105 94 63z m1727 -39 c0 -26 -6 -37
-26 -48 -24 -13 -29 -13 -53 2 -62 41 -4 130 59 92 14 -9 20 -23 20 -46z m115
51 c0 -5 -4 -10 -10 -10 -5 0 -10 5 -10 10 0 6 5 10 10 10 6 0 10 -4 10 -10z
m-999 -84 c8 4 10 3 5 -4 -5 -8 2 -12 18 -12 30 0 33 -8 9 -26 -15 -10 -16
-15 -5 -25 19 -20 14 -29 -12 -19 -21 8 -25 5 -31 -23 l-7 -32 -11 28 c-10 25
-15 28 -41 23 l-30 -6 23 24 23 25 -21 13 c-28 17 -26 26 5 20 20 -4 26 0 31
18 6 21 7 22 19 5 7 -10 18 -14 25 -9z m-235 -80 c-1 -29 -3 -32 -19 -22 -14
8 -20 8 -27 -4 -8 -12 -10 -11 -10 8 0 12 -4 22 -10 22 -5 0 -2 8 8 18 9 10
26 16 38 14 16 -3 20 -11 20 -36z m469 29 c16 -15 -6 -50 -31 -51 -18 0 -22 5
-22 31 0 25 4 31 22 31 11 0 26 -5 31 -11z m300 -87 c9 -40 -11 -93 -46 -123
-59 -49 -168 -25 -204 44 -21 41 -20 41 24 19 33 -16 45 -18 79 -8 56 14 92
59 92 113 l1 42 24 -30 c13 -16 27 -42 30 -57z m-1030 -45 c43 -41 97 -45 140
-11 l27 21 -7 -24 c-10 -36 -69 -87 -108 -94 -45 -9 -103 18 -129 59 -24 39
-20 116 8 147 l19 21 7 -43 c5 -32 17 -53 43 -76z m-673 95 c-18 -18 -14 -28
9 -25 29 3 47 -26 30 -47 -8 -9 -21 -15 -30 -15 -14 1 -14 2 1 6 9 2 19 10 22
18 7 19 -14 31 -24 15 -11 -18 -40 -5 -40 18 0 20 18 42 34 42 6 0 5 -5 -2
-12z m2283 -28 c5 -8 11 -7 21 1 11 9 14 7 14 -10 0 -22 -24 -29 -36 -10 -4 7
-10 7 -16 1 -14 -14 -1 -32 17 -25 15 5 21 -8 9 -20 -9 -9 -41 9 -48 28 -12
32 22 63 39 35z m-2208 -42 c-3 -8 -6 -5 -6 6 -1 11 2 17 5 13 3 -3 4 -12 1
-19z m1185 -52 c98 -19 173 -48 249 -98 226 -146 346 -427 295 -689 -27 -136
-82 -237 -185 -340 -72 -71 -104 -94 -182 -133 -116 -57 -221 -80 -329 -71
-281 23 -503 185 -601 439 -164 424 160 895 623 905 31 0 89 -5 130 -13z
m1070 -102 c-4 -35 -6 -36 -18 -19 -17 23 -18 52 -1 58 20 7 23 0 19 -39z
m-1795 -26 c0 -17 -6 -28 -14 -28 -7 0 -13 -4 -13 -10 0 -5 -9 -1 -19 9 -27
27 -17 58 18 57 23 -1 28 -5 28 -28z m1273 17 c0 -8 5 -15 12 -15 6 0 0 -10
-13 -23 -18 -16 -26 -19 -32 -10 -4 7 -15 9 -25 6 -13 -5 -14 -3 -5 7 6 7 9
18 6 25 -4 12 12 21 45 24 6 0 12 -6 12 -14z m61 -141 c-51 -65 -8 -160 77
-171 35 -5 49 -1 73 16 41 31 39 2 -4 -45 -78 -85 -227 -31 -227 84 0 50 25
99 62 122 42 26 44 25 19 -6z m-1426 0 c13 -9 31 -35 40 -58 39 -102 -49 -204
-155 -181 -31 7 -90 66 -90 91 0 13 5 12 26 -5 46 -36 120 -23 161 29 17 21
16 75 -2 110 -18 34 -14 36 20 14z m-103 -384 c16 0 18 -3 9 -14 -8 -10 -9
-16 -1 -21 18 -11 11 -23 -10 -18 -11 3 -20 0 -20 -6 0 -20 -15 -11 -32 19
-14 25 -15 30 -3 30 9 0 15 10 15 23 1 20 2 20 11 5 5 -10 19 -18 31 -18z
m1674 -32 c0 -10 -6 -18 -13 -18 -7 0 -13 -8 -13 -17 -1 -17 -1 -17 -11 0 -7
13 -17 16 -32 11 -19 -6 -20 -5 -8 10 11 13 11 19 1 31 -10 13 -9 15 8 15 12
0 23 4 27 10 8 13 40 -21 41 -42z m-2018 30 c39 -39 -17 -100 -58 -63 -24 22
-25 38 -4 59 18 19 45 21 62 4z m2356 -4 c9 -8 16 -22 16 -29 0 -17 -27 -45
-44 -45 -7 0 -21 9 -31 20 -38 42 19 94 59 54z m-1897 -219 c36 -41 46 -96 27
-144 -15 -39 -55 -81 -76 -81 -5 0 0 12 11 26 71 90 -44 214 -144 155 -47 -28
-48 -4 0 43 51 52 138 52 182 1z m1547 14 c27 -21 51 -57 43 -65 -2 -2 -18 3
-36 12 -70 35 -161 -18 -161 -94 0 -25 8 -49 22 -67 l21 -27 -31 16 c-46 24
-65 68 -60 134 4 47 10 60 37 84 26 23 40 28 85 28 39 0 60 -6 80 -21z m-1467
-319 c10 0 12 -6 7 -22 -8 -28 -4 -24 -35 -31 -20 -5 -28 -3 -31 11 -7 29 3
54 18 48 8 -3 14 0 15 7 0 9 2 9 6 0 2 -7 11 -13 20 -13z m1276 -12 c9 -10 13
-18 7 -18 -5 0 -10 -6 -10 -13 0 -9 -12 -14 -30 -14 -21 0 -29 4 -26 13 3 8 1
16 -4 19 -13 8 9 31 29 31 9 0 24 -9 34 -18z m-1867 -23 c13 -31 13 -42 -1
-90 -10 -33 -13 -64 -9 -77 4 -13 7 -29 6 -35 -3 -15 24 -17 33 -3 3 6 1 10
-4 10 -6 0 -11 7 -11 15 0 19 5 19 38 -2 39 -24 72 -55 72 -67 0 -5 -9 0 -20
12 -24 26 -57 28 -88 6 -26 -18 -30 -79 -8 -129 8 -19 10 -38 5 -52 -9 -24 -3
-53 11 -53 5 0 17 12 28 27 13 17 25 24 36 20 27 -11 18 -28 -24 -45 -25 -11
-40 -24 -40 -34 0 -28 -1 -31 -20 -68 -9 -19 -20 -48 -24 -65 l-7 -30 20 25
c15 19 27 24 53 22 32 -3 77 -32 50 -32 -7 0 -12 5 -12 10 0 6 -13 10 -30 10
-44 0 -65 -36 -50 -90 8 -31 19 -45 44 -56 29 -14 36 -14 70 0 29 12 37 21 36
38 -3 36 -1 41 14 29 10 -8 16 -9 21 -1 3 5 -5 14 -18 19 -14 6 -28 14 -31 20
-6 8 61 -14 72 -24 7 -7 -20 -45 -28 -40 -5 3 -11 1 -14 -4 -4 -5 2 -11 11
-14 16 -3 16 -5 -2 -12 -11 -5 -31 -17 -44 -27 -46 -35 -108 -12 -142 55 -24
46 -28 112 -15 247 10 94 10 119 2 250 -3 59 -1 118 4 135 6 18 6 51 1 83 -4
28 -6 52 -4 52 2 0 11 -16 19 -35z m2421 -42 c3 -199 1 -266 -12 -302 -9 -28
-10 -42 -2 -57 6 -10 12 -44 13 -74 2 -30 6 -90 9 -132 6 -68 4 -83 -15 -123
-33 -67 -89 -83 -166 -46 -21 11 -40 18 -41 17 -1 -1 2 -18 6 -39 12 -52 -4
-46 -19 7 -7 25 -21 53 -33 63 -20 18 -20 18 -15 -34 5 -54 46 -123 72 -123 7
0 21 19 30 43 l17 42 19 -24 c24 -28 25 -41 5 -41 -8 0 -15 5 -15 10 0 6 -5
10 -11 10 -5 0 -7 -5 -4 -10 4 -6 2 -17 -4 -24 -8 -10 -8 -16 3 -25 12 -10 16
-8 21 8 7 22 25 29 25 10 0 -20 -21 -49 -35 -49 -21 0 -18 -17 4 -30 11 -5 22
-10 25 -10 12 0 46 66 46 90 0 19 2 22 10 10 6 -10 1 -30 -19 -67 -22 -40 -26
-55 -16 -63 14 -11 25 -3 25 19 0 9 10 27 21 41 17 20 19 21 13 5 -4 -11 -14
-41 -23 -66 -15 -43 -20 -48 -65 -62 l-49 -16 32 33 32 33 -35 26 c-39 31 -46
32 -46 14 0 -15 -41 -37 -69 -37 -22 0 -52 32 -43 46 4 6 22 14 39 20 31 8 32
11 20 33 -17 35 -71 63 -117 63 -83 -1 -71 -24 24 -47 l51 -13 -38 -1 c-21 -1
-37 -4 -35 -8 43 -85 49 -105 38 -137 -11 -34 -39 -65 -77 -85 -13 -7 -76 -11
-160 -10 -76 0 -178 -4 -226 -8 -49 -5 -91 -5 -93 -1 -6 9 22 12 77 9 26 -2
44 5 67 24 l32 27 0 -23 c0 -18 3 -20 12 -11 7 7 22 12 33 12 34 0 36 10 9 39
l-25 26 22 17 c21 18 22 55 1 51 -7 -2 -12 2 -12 8 0 21 34 3 40 -20 3 -14 12
-27 19 -29 9 -3 11 2 6 18 -5 15 -4 20 4 16 6 -4 11 -17 11 -30 0 -19 -4 -22
-29 -18 -38 5 -49 -15 -17 -30 14 -6 26 -17 26 -25 0 -8 11 -13 29 -13 16 0
48 -7 71 -15 23 -8 45 -15 47 -15 2 0 -12 16 -32 35 -23 21 -34 39 -29 46 5 9
10 6 15 -10 12 -32 69 -53 107 -40 50 17 71 80 42 126 -21 35 -55 41 -76 14
-8 -10 -10 0 -6 43 4 55 4 56 -22 56 -39 0 -60 -39 -52 -94 6 -37 4 -48 -13
-65 l-20 -20 -11 37 c-14 53 -13 61 17 100 l26 35 -29 -7 c-51 -12 -193 -86
-205 -107 -13 -24 3 -49 32 -49 11 0 19 -4 19 -10 0 -17 -26 -11 -45 10 -11
12 -31 20 -52 20 -46 0 -73 -29 -73 -81 0 -22 -4 -38 -9 -35 -5 3 -14 -1 -21
-9 -10 -12 -29 -15 -79 -13 -36 2 -82 -1 -101 -6 -41 -10 -32 4 12 19 21 8 46
8 80 1 60 -12 80 -2 90 45 8 41 59 89 93 89 16 0 41 16 70 46 25 25 70 56 99
70 52 24 243 67 273 62 9 -2 18 3 20 10 3 6 -1 12 -8 12 -7 0 2 16 21 35 31
32 34 39 41 132 11 142 61 260 118 278 15 4 17 14 14 53 -4 39 0 54 22 87 44
66 95 93 95 49 0 -10 -7 -13 -24 -8 -13 3 -27 1 -30 -5 -4 -6 1 -11 11 -12 12
0 7 -6 -14 -15 -59 -25 -70 -83 -27 -140 28 -36 26 -42 -5 -22 -27 17 -75 -5
-68 -31 2 -10 -3 -22 -13 -29 -21 -13 -50 -93 -50 -136 0 -17 4 -26 8 -20 16
23 82 54 116 54 31 0 44 -8 81 -46 42 -43 45 -44 45 -21 0 13 -11 40 -24 59
-15 22 -21 40 -16 49 12 18 3 29 -23 29 -12 0 -28 9 -35 20 -17 27 -5 46 16
27 44 -37 73 -18 53 35 -7 19 -6 29 7 42 26 26 22 94 -7 117 -23 18 -23 19 -2
19 28 0 37 40 22 102 -14 63 -14 91 1 123 6 14 12 25 12 25 1 0 2 -35 3 -77z
m-1599 -13 c31 -14 47 -29 57 -54 20 -48 19 -51 -11 -27 -37 29 -94 28 -132
-4 -35 -30 -56 -76 -50 -110 5 -22 3 -23 -10 -13 -8 7 -21 28 -29 47 -29 68
10 150 81 170 44 13 46 13 94 -9z m849 10 c24 0 73 -52 83 -88 12 -45 -1 -101
-31 -128 -20 -18 -20 -18 -14 8 8 32 -19 93 -50 114 -37 24 -88 28 -123 10
-30 -15 -32 -15 -32 0 0 22 63 81 92 87 13 3 32 3 43 1 11 -2 25 -4 32 -4z
m-1632 -71 c8 -35 1 -47 -18 -31 -8 7 -12 24 -9 42 5 36 18 31 27 -11z m2344
-5 c-13 -34 -24 -16 -14 23 4 17 10 22 16 16 6 -6 6 -20 -2 -39z m-1140 -127
c25 6 26 5 8 -14 -16 -19 -16 -21 -1 -34 16 -13 15 -14 -11 -19 -20 -4 -31
-13 -36 -30 l-6 -25 -8 28 c-5 21 -13 27 -33 27 -25 0 -25 1 -9 17 16 16 16
18 -3 38 l-20 22 28 -5 c24 -3 31 1 37 20 l7 23 11 -27 c9 -23 15 -26 36 -21z
m-252 -10 c1 -16 -2 -25 -8 -21 -5 3 -16 0 -24 -6 -12 -10 -15 -9 -15 4 0 9
-4 16 -9 16 -5 0 -7 9 -4 19 4 14 13 19 31 18 21 -2 27 -8 29 -30z m472 11 c7
-11 7 -18 1 -18 -5 0 -10 -7 -10 -16 0 -10 -4 -12 -12 -7 -7 4 -20 6 -29 5
-11 -2 -15 5 -15 20 1 13 4 25 8 28 15 12 46 5 57 -12z m-1359 -60 c0 -14 -7
-18 -35 -15 -19 1 -35 6 -35 10 0 5 14 6 30 2 32 -7 39 5 15 25 -10 9 -15 9
-15 1 0 -6 -7 -11 -15 -11 -20 0 -19 10 3 26 14 10 20 10 35 -3 9 -9 17 -24
17 -35z m2248 23 c26 -35 20 -61 -15 -61 -14 0 -22 4 -18 10 4 6 11 8 16 5 5
-4 12 1 16 10 7 19 -13 36 -34 28 -16 -6 -17 9 -1 25 15 15 11 17 36 -17z
m-2182 -94 c49 -41 86 -136 96 -247 10 -104 37 -166 84 -197 14 -9 70 -27 125
-40 55 -13 117 -32 137 -42 53 -27 125 -81 118 -88 -3 -4 -16 3 -29 15 -31 29
-38 28 -30 -8 3 -17 1 -30 -4 -30 -5 0 -9 15 -8 34 1 30 -4 37 -35 52 -19 9
-54 23 -77 30 l-42 13 19 -37 c11 -20 20 -46 20 -57 0 -31 -24 -103 -39 -117
-11 -11 -12 -9 -2 9 12 23 5 52 -16 68 -11 8 -12 17 -4 38 23 60 0 107 -52
107 -18 0 -19 -5 -12 -56 5 -45 4 -55 -7 -52 -7 3 -13 16 -13 29 0 13 -4 25
-10 26 -5 2 -10 -5 -10 -14 0 -9 -7 -19 -15 -21 -24 -8 -39 -35 -40 -69 0 -39
43 -93 74 -93 33 0 66 28 66 56 0 14 4 22 10 19 18 -11 4 -67 -21 -82 -23 -13
-22 -14 16 -6 22 4 61 7 88 7 48 -1 60 8 32 24 -13 7 -11 11 10 22 27 15 32
29 13 48 -20 20 -41 15 -35 -9 3 -13 1 -19 -6 -16 -17 5 -20 30 -5 50 12 16
16 15 51 -18 20 -19 37 -37 37 -39 0 -2 -9 -6 -20 -9 -28 -7 -25 -36 6 -47 19
-8 31 -7 41 2 10 8 17 8 21 1 22 -33 94 -43 124 -16 61 55 -41 149 -108 98
-10 -8 -23 -14 -29 -15 -5 0 4 9 20 20 59 39 133 12 155 -57 18 -56 32 -63
114 -57 57 5 75 3 91 -11 19 -15 19 -16 -15 -8 -19 4 -68 6 -108 5 -67 -2 -74
-1 -79 18 -3 11 -9 20 -13 20 -13 0 -20 -28 -7 -33 9 -3 -356 -1 -445 2 -30 1
-85 59 -95 100 -11 43 -6 60 35 103 24 27 24 54 0 30 -15 -15 -68 -16 -68 -1
0 5 8 9 18 8 9 -2 40 8 67 20 l50 24 -31 9 c-42 13 -102 -4 -153 -45 -22 -17
-40 -36 -40 -41 -1 -6 4 -5 11 2 17 17 38 15 38 -3 0 -8 6 -12 13 -10 6 3 19
0 27 -5 20 -13 1 -44 -30 -48 -30 -5 -72 18 -66 35 9 23 -12 24 -33 1 -12 -12
-23 -19 -26 -16 -4 3 18 32 48 64 60 66 81 101 91 156 7 40 -6 57 -29 38 -21
-18 -18 -3 6 31 16 22 19 37 13 57 -4 15 -6 33 -5 41 4 23 -21 114 -46 169
-25 54 -53 78 -80 68 -12 -5 -13 -2 -7 11 4 10 10 36 13 58 l5 40 6 -46 c4
-36 12 -52 36 -72z m0 -49 c4 -6 2 -14 -4 -16 -7 -2 -12 -14 -12 -26 0 -12 -5
-27 -12 -34 -14 -14 -78 -17 -78 -4 0 16 13 22 25 12 17 -14 47 -1 40 18 -3 8
0 21 7 29 9 11 9 16 -3 24 -11 7 -9 9 8 9 12 0 25 -5 29 -12z m2115 2 c11 0
-22 -49 -32 -50 -9 0 -17 32 -11 48 2 7 11 11 19 8 8 -3 19 -6 24 -6z m-1913
-16 c24 -17 30 -62 10 -82 -29 -29 -98 -1 -98 39 0 16 43 59 59 59 4 0 17 -7
29 -16z m1724 -1 c36 -32 15 -93 -32 -93 -36 0 -60 23 -60 60 0 46 55 66 92
33z m206 -57 c27 -1 27 -3 3 -16 -15 -7 -24 -5 -43 11 -20 18 -20 20 -3 13 11
-4 30 -8 43 -8z m-2620 -122 c-1 -53 -6 -101 -10 -107 -5 -8 -8 -5 -8 6 0 10
-3 17 -7 15 -119 -55 -155 -75 -208 -113 -35 -24 -66 -50 -68 -57 -3 -7 -6 33
-6 89 l-1 101 48 41 c60 51 194 121 234 121 l30 0 -4 -96z m523 45 c35 -25 38
-43 5 -28 -18 9 -33 8 -57 0 -27 -9 -35 -8 -50 5 -12 11 -28 15 -46 11 l-28
-5 29 25 c25 22 36 24 74 19 24 -3 57 -15 73 -27z m1015 -156 c-19 -40 -32
-42 -48 -7 -9 19 -9 39 1 87 7 34 16 66 19 72 3 5 15 -19 25 -55 17 -59 18
-66 3 -97z m784 117 c0 -5 -6 -10 -13 -10 -7 0 -22 -6 -32 -14 -18 -13 -18
-14 8 -9 32 6 67 -19 67 -48 0 -45 -69 -66 -92 -29 -16 25 -25 25 -31 3 -3
-10 -5 0 -6 23 -1 30 5 46 22 61 33 30 77 43 77 23z m-1533 -15 c25 -18 40
-72 24 -88 -8 -8 -11 -6 -11 6 0 24 -13 21 -25 -5 -21 -48 -89 -23 -83 31 2
20 11 29 38 38 l35 11 -25 10 -25 11 25 0 c14 1 35 -6 47 -14z m502 -9 c14
-16 5 -42 -16 -50 -29 -11 -58 35 -36 57 11 12 40 8 52 -7z m499 5 c18 -11 12
-41 -11 -55 -25 -15 -51 18 -36 45 10 20 26 24 47 10z m-1358 -50 c0 -20 -32
-33 -56 -24 -21 8 -17 21 14 36 32 16 42 13 42 -12z m1026 -35 c6 -6 15 -24
18 -40 7 -27 6 -28 -21 -21 -38 9 -45 16 -78 77 l-28 52 49 -28 c27 -16 54
-34 60 -40z m185 2 c-17 -29 -38 -56 -48 -60 -36 -14 -44 -9 -41 25 3 27 11
36 53 59 28 15 53 28 58 28 4 0 -6 -24 -22 -52z m-1228 -19 c-7 -7 -21 -7 -44
-1 l-34 10 45 1 c31 1 41 -2 33 -10z m565 -21 c20 -20 15 -76 -7 -88 -43 -23
-91 4 -91 52 0 40 69 65 98 36z m1166 -21 c12 -34 0 -58 -37 -71 -33 -12 -67
15 -67 54 0 36 19 51 60 48 28 -2 37 -9 44 -31z m-1867 -24 c-3 -10 -5 -2 -5
17 0 19 2 27 5 18 2 -10 2 -26 0 -35z m253 17 c0 -5 -8 -14 -17 -19 -11 -6
-13 -11 -5 -11 7 0 10 -5 7 -10 -4 -6 -11 -7 -17 -4 -7 5 -9 -4 -5 -27 5 -28
2 -38 -18 -57 -27 -26 -42 -22 -56 16 -7 18 -6 34 2 54 13 31 27 36 35 13 5
-12 10 -13 20 -4 8 6 14 17 14 23 0 14 20 36 32 36 4 0 8 -4 8 -10z m909 -51
c-34 -17 -40 -17 -103 -2 -36 9 -63 20 -59 24 5 4 33 14 63 22 51 13 58 13 95
-6 l39 -19 -35 -19z m261 41 c25 -7 49 -15 55 -18 11 -7 -79 -32 -117 -32 -31
0 -78 19 -78 32 0 11 62 37 80 33 8 -2 35 -9 60 -15z m1258 -174 c1 -105 0
-188 -2 -185 -3 3 -8 81 -11 174 -3 94 -10 174 -14 178 -5 5 -21 7 -37 5 -34
-4 -55 -39 -62 -107 -3 -36 -13 -55 -43 -86 -40 -42 -59 -81 -59 -121 0 -18
-5 -24 -22 -24 -40 0 -97 -20 -125 -44 -15 -13 -42 -27 -60 -30 -30 -7 -93
-65 -93 -86 0 -5 -7 -16 -16 -24 -14 -15 -13 -16 15 -16 43 0 39 -15 -4 -18
-45 -3 -46 16 -6 80 20 31 43 52 70 64 26 11 37 21 29 25 -17 11 43 65 88 79
20 7 46 10 60 7 20 -3 24 0 24 18 0 52 15 89 50 124 20 20 41 48 47 62 15 35
72 99 97 110 12 4 32 7 46 6 l25 -2 3 -189z m-1420 157 c2 -13 -1 -23 -7 -23
-16 0 -14 -26 4 -60 14 -27 14 -36 -2 -95 -9 -35 -19 -62 -22 -59 -3 2 -12 33
-22 68 -16 62 -15 65 4 95 18 30 18 33 3 50 -21 23 -11 53 18 49 13 -2 22 -12
24 -25z m-1282 -77 c20 -33 44 -71 55 -84 13 -17 19 -41 19 -78 l0 -54 39 0
c53 0 89 -15 131 -54 19 -18 55 -47 79 -64 l45 -32 -217 0 -217 0 0 226 c0
255 0 254 66 140z m81 66 c-10 -10 -17 -24 -17 -30 0 -7 -4 -12 -10 -12 -5 0
-10 5 -10 12 0 15 30 48 43 48 6 0 3 -8 -6 -18z m2383 -14 l24 -33 -24 16
c-14 9 -26 24 -28 33 -5 24 1 20 28 -16z m203 -222 c-1 -131 -4 -241 -7 -243
-7 -7 -466 -9 -466 -2 0 19 45 59 78 70 20 7 53 25 73 41 24 19 52 30 87 35
50 6 51 6 57 47 9 51 37 99 74 126 25 17 29 28 33 81 5 64 24 93 58 87 13 -3
15 -35 13 -242z m-1448 187 c-8 -34 -17 -43 -80 -79 l-49 -29 30 55 c29 52 61
80 93 80 9 0 11 -8 6 -27z m135 7 c18 -18 60 -92 60 -105 0 -9 -69 33 -97 58
-29 26 -31 67 -3 67 11 0 29 -9 40 -20z m-1230 -10 c0 -5 -5 -10 -11 -10 -5 0
-7 5 -4 10 3 6 8 10 11 10 2 0 4 -4 4 -10z m25 -84 c20 -40 33 -55 53 -60 32
-7 79 -42 70 -52 -4 -3 -21 5 -38 20 -31 26 -64 34 -74 18 -3 -5 11 -14 30
-21 18 -7 34 -17 34 -23 0 -5 -7 -7 -16 -4 -9 3 -33 9 -55 12 -37 6 -39 8 -38
43 1 20 3 28 6 18 5 -21 27 -18 31 4 1 9 -9 32 -23 53 -28 41 -29 46 -16 46 5
0 21 -24 36 -54z m-44 8 c14 -38 6 -39 -20 -4 -17 24 -19 30 -6 30 8 0 20 -12
26 -26z m594 -35 c4 -6 5 -12 2 -15 -7 -7 -37 7 -37 17 0 13 27 11 35 -2z
m1105 -15 c0 -8 -4 -14 -10 -14 -5 0 -10 9 -10 21 0 11 5 17 10 14 6 -3 10
-13 10 -21z m-1326 -10 c9 -3 16 -12 16 -20 0 -17 -27 -19 -33 -1 -3 7 -6 5
-6 -5 -1 -10 4 -18 9 -18 6 0 10 -4 10 -10 0 -5 -7 -7 -15 -4 -8 4 -15 1 -15
-5 0 -6 -4 -11 -10 -11 -14 0 -12 54 2 68 14 14 20 14 42 6z m1614 -13 c3 -9
-2 -11 -17 -6 -16 5 -20 3 -15 -9 3 -9 11 -13 16 -10 6 4 8 -2 6 -11 -1 -10
-8 -20 -13 -22 -13 -4 -39 53 -30 67 9 15 47 8 53 -9z m218 -16 c-30 -24 -66
-38 -66 -27 0 10 84 62 90 56 3 -3 -8 -16 -24 -29z m-309 -17 c-3 -8 -6 -5 -6
6 -1 11 2 17 5 13 3 -3 4 -12 1 -19z m-1671 -26 c-16 -31 -34 -48 -42 -40 -2
3 4 13 14 24 10 10 21 28 25 38 4 10 10 16 13 13 3 -3 -2 -19 -10 -35z m513
24 c9 -10 9 -16 1 -21 -6 -4 -9 -13 -6 -20 5 -15 -12 -25 -31 -18 -9 4 -9 9 2
20 8 8 15 20 15 26 0 7 -4 6 -10 -3 -5 -8 -12 -11 -16 -7 -7 7 13 37 26 37 4
0 13 -6 19 -14z m837 -3 c-7 -23 8 -48 23 -39 6 4 11 3 11 -3 0 -20 -20 -21
-40 -1 -16 16 -18 24 -10 40 13 25 23 26 16 3z m548 -52 c-6 -7 -44 40 -43 54
0 6 11 -3 24 -20 13 -16 22 -32 19 -34z m-509 39 c-3 -5 -10 -10 -16 -10 -5 0
-9 5 -9 10 0 6 7 10 16 10 8 0 12 -4 9 -10z m-721 -30 c29 -14 35 -21 23 -26
-25 -9 -48 -1 -65 24 -18 27 -8 28 42 2z m556 -9 c-7 -14 -21 -21 -40 -21 -39
0 -38 6 8 29 43 22 48 21 32 -8z m-1187 -38 c-13 -2 -33 -2 -45 0 -13 2 -3 4
22 4 25 0 35 -2 23 -4z m1779 -75 c-17 -17 -1749 -15 -1766 2 -7 7 260 10 884
10 708 0 891 -3 882 -12z m544 -104 c-4 -11 -31 -14 -128 -12 l-123 2 113 5
c120 6 130 11 133 61 2 19 3 16 6 -8 3 -19 2 -40 -1 -48z m-633 -120 c305 -5
397 -10 397 -19 0 -10 -108 -14 -470 -20 -259 -4 -469 -9 -467 -12 3 -2 213
-7 468 -10 255 -3 466 -7 468 -9 2 -2 2 -6 0 -8 -10 -11 -1062 -18 -1451 -11
-418 7 -418 7 -418 29 0 18 6 21 43 22 23 0 120 2 215 3 94 1 172 6 172 11 0
4 20 5 45 2 32 -3 45 -1 45 8 0 10 -27 12 -127 6 -408 -20 -393 -20 -393 -3 0
13 59 15 538 16 295 1 716 -1 935 -5z m-2060 -11 c-7 -2 -19 -2 -25 0 -7 3 -2
5 12 5 14 0 19 -2 13 -5z m145 0 c-21 -2 -57 -2 -80 0 -24 2 -7 4 37 4 44 0
63 -2 43 -4z m32 -48 c0 -24 -2 -25 -75 -25 -41 0 -75 4 -75 9 0 19 28 30 85
34 33 2 61 4 63 5 1 1 2 -9 2 -23z m1939 -54 c189 0 342 -3 340 -5 -7 -8
-1397 -14 -1499 -7 -109 7 322 17 635 15 99 -1 335 -2 524 -3z m-1316 -8 c-34
-2 -93 -2 -130 0 -37 2 -9 3 62 3 72 0 102 -1 68 -3z m-750 -244 c120 -61 137
-73 137 -94 0 -14 -4 -25 -9 -25 -17 0 -287 141 -317 165 l-29 24 40 0 c30 1
74 -17 178 -70z m2227 57 c-54 -51 -356 -195 -525 -251 -327 -108 -725 -134
-1097 -74 -65 10 -68 12 -68 38 l0 27 108 -18 c144 -24 437 -34 577 -19 159
17 342 56 483 103 115 38 373 156 417 192 12 9 40 15 70 16 42 0 47 -2 35 -14z
m-1919 -517 c23 -16 37 -19 74 -13 44 6 47 5 94 -39 l48 -45 -74 -16 c-123
-27 -156 -23 -209 26 l-45 41 33 33 c39 40 42 40 79 13z"/>
<path d="M4250 7180 c-8 -5 -10 -10 -5 -10 6 0 17 5 25 10 8 5 11 10 5 10 -5
0 -17 -5 -25 -10z"/>
<path d="M3814 7164 c-18 -14 -18 -15 4 -4 12 6 22 13 22 15 0 8 -5 6 -26 -11z"/>
<path d="M4066 7155 c-10 -8 -22 -12 -26 -10 -4 2 -7 -2 -7 -10 0 -11 7 -9 29
6 15 11 28 22 28 25 0 6 -3 5 -24 -11z"/>
<path d="M4144 7124 c-37 -25 -89 -64 -116 -85 -43 -33 -47 -40 -31 -46 28
-12 211 -9 223 3 7 7 -6 22 -45 50 -30 21 -53 44 -52 49 2 6 28 25 57 43 30
17 49 32 43 32 -7 0 -42 -21 -79 -46z"/>
<path d="M3840 7114 c-25 -14 -47 -27 -49 -30 -5 -4 99 -54 114 -54 6 0 30 16
54 35 l44 35 -44 20 c-57 25 -65 25 -119 -6z"/>
<path d="M4258 7123 c-21 -9 -38 -19 -38 -23 0 -3 21 -21 46 -40 l46 -33 50
24 c27 13 51 26 54 31 5 8 -89 58 -108 57 -7 -1 -30 -8 -50 -16z"/>
<path d="M3403 7113 c-10 -10 -13 -14 -7 -10 7 5 25 12 41 17 23 7 24 8 7 9
-12 1 -30 -7 -41 -16z"/>
<path d="M3740 7120 c-8 -5 -52 -46 -97 -92 -69 -69 -80 -84 -66 -92 21 -11
162 8 222 31 l43 17 -78 39 -79 40 39 33 c39 34 45 42 16 24z"/>
<path d="M3498 7113 c7 -3 16 -2 19 1 4 3 -2 6 -13 5 -11 0 -14 -3 -6 -6z"/>
<path d="M4465 7110 c-3 -5 -2 -10 4 -10 5 0 13 5 16 10 3 6 2 10 -4 10 -5 0
-13 -4 -16 -10z"/>
<path d="M4713 7113 c9 -2 23 -2 30 0 6 3 -1 5 -18 5 -16 0 -22 -2 -12 -5z"/>
<path d="M3548 7103 c7 -3 16 -2 19 1 4 3 -2 6 -13 5 -11 0 -14 -3 -6 -6z"/>
<path d="M4658 7103 c7 -3 16 -2 19 1 4 3 -2 6 -13 5 -11 0 -14 -3 -6 -6z"/>
<path d="M4810 7106 c0 -2 8 -10 18 -17 15 -13 16 -12 3 4 -13 16 -21 21 -21
13z"/>
<path d="M3580 7096 c0 -2 7 -6 15 -10 8 -3 15 -1 15 4 0 6 -7 10 -15 10 -8 0
-15 -2 -15 -4z"/>
<path d="M3329 7053 l-34 -38 38 34 c20 19 37 36 37 38 0 8 -8 0 -41 -34z"/>
<path d="M4850 7077 c0 -2 15 -16 33 -33 l32 -29 -29 33 c-28 30 -36 37 -36
29z"/>
<path d="M3395 7035 c-22 -19 -49 -35 -60 -35 -11 -1 16 -12 60 -26 l79 -24
43 42 c24 23 43 45 43 49 0 4 -17 10 -37 13 -21 4 -49 9 -63 11 -18 4 -36 -4
-65 -30z"/>
<path d="M4458 7030 c-43 -22 -78 -42 -78 -45 0 -9 127 -43 185 -49 89 -10 93
0 27 71 l-57 62 -77 -39z"/>
<path d="M4677 7051 l-28 -6 43 -48 43 -47 68 18 68 17 -23 21 c-59 53 -94 63
-171 45z"/>
<path d="M3288 7003 c7 -3 16 -2 19 1 4 3 -2 6 -13 5 -11 0 -14 -3 -6 -6z"/>
<path d="M4888 6993 c7 -3 16 -2 19 1 4 3 -2 6 -13 5 -11 0 -14 -3 -6 -6z"/>
<path d="M2996 6962 c-2 -4 11 -6 30 -4 19 2 34 6 34 8 0 8 -59 4 -64 -4z"/>
<path d="M5158 6963 c12 -2 30 -2 40 0 9 3 -1 5 -23 4 -22 0 -30 -2 -17 -4z"/>
<path d="M5255 6918 c22 -27 41 -48 43 -48 7 0 -36 56 -59 75 -12 11 -5 -1 16
-27z"/>
<path d="M2940 6910 c-17 -22 -29 -40 -27 -40 3 0 20 18 37 40 17 22 29 40 27
40 -3 0 -20 -18 -37 -40z"/>
<path d="M3200 6884 c-23 -36 -39 -69 -35 -72 17 -18 245 62 245 86 0 6 -144
52 -162 52 -4 0 -25 -30 -48 -66z"/>
<path d="M4883 6927 c-40 -12 -73 -25 -73 -29 0 -9 68 -45 124 -65 52 -18 128
-33 124 -23 -13 32 -85 140 -93 139 -5 0 -43 -10 -82 -22z"/>
<path d="M2980 6864 c-35 -38 -47 -45 -71 -42 -16 3 -29 1 -29 -4 0 -4 17 -8
39 -8 21 0 65 -3 98 -6 l60 -7 31 52 c18 28 32 53 32 56 0 3 -26 5 -59 5 -57
0 -60 -1 -101 -46z"/>
<path d="M5080 6903 c0 -3 14 -29 32 -56 l32 -49 44 6 c25 3 53 6 63 6 28 0
24 10 -22 58 -39 39 -45 42 -95 42 -30 0 -54 -3 -54 -7z"/>
<path d="M2638 6733 c7 -3 16 -2 19 1 4 3 -2 6 -13 5 -11 0 -14 -3 -6 -6z"/>
<path d="M2415 6501 c-3 -5 -1 -12 5 -16 5 -3 10 1 10 9 0 18 -6 21 -15 7z"/>
<path d="M2378 6483 c7 -3 16 -2 19 1 4 3 -2 6 -13 5 -11 0 -14 -3 -6 -6z"/>
<path d="M2242 6428 c-10 -13 -29 -67 -20 -58 7 7 37 70 33 70 -1 0 -7 -6 -13
-12z"/>
<path d="M2347 6416 c-20 -8 -44 -19 -51 -25 -15 -13 -49 -101 -42 -109 7 -7
114 27 122 39 3 6 12 33 19 60 15 55 13 56 -48 35z"/>
<path d="M2186 6275 c-3 -8 -1 -15 4 -15 6 0 10 7 10 15 0 8 -2 15 -4 15 -2 0
-6 -7 -10 -15z"/>
<path d="M2255 6216 l-80 -21 5 -84 5 -84 50 46 c47 42 111 138 103 155 -2 5
-39 -1 -83 -12z"/>
<path d="M2028 6134 c-38 -20 -36 -28 2 -9 17 9 30 18 30 20 0 7 -1 6 -32 -11z"/>
<path d="M2065 6088 c-44 -29 -51 -38 -59 -81 -4 -26 -6 -50 -4 -52 2 -3 26 4
53 14 55 21 67 42 63 109 l-3 44 -50 -34z"/>
<path d="M1969 6093 c-13 -16 -12 -17 4 -4 9 7 17 15 17 17 0 8 -8 3 -21 -13z"/>
<path d="M1941 5934 c0 -11 3 -14 6 -6 3 7 2 16 -1 19 -3 4 -6 -2 -5 -13z"/>
<path d="M2080 5910 c-9 -6 -10 -10 -3 -10 6 0 15 5 18 10 8 12 4 12 -15 0z"/>
<path d="M2000 5882 c-25 -8 -47 -16 -49 -18 -2 -2 2 -38 9 -79 l13 -76 34 33
c32 31 63 77 63 94 0 4 -7 -1 -16 -12 -13 -15 -15 -16 -10 -2 3 11 -2 19 -16
24 -22 6 -22 7 6 30 31 27 29 27 -34 6z"/>
<path d="M1779 5763 c-13 -16 -12 -17 4 -4 9 7 17 15 17 17 0 8 -8 3 -21 -13z"/>
<path d="M1838 5732 c-37 -35 -42 -44 -46 -97 l-5 -58 32 19 c18 11 45 30 60
44 25 23 28 30 24 78 -3 28 -9 52 -14 52 -6 0 -28 -17 -51 -38z"/>
<path d="M1817 5516 c-83 -51 -127 -82 -80 -57 30 15 33 14 33 -10 0 -11 7
-46 16 -77 l17 -56 19 24 c33 41 68 118 78 172 6 28 9 52 8 54 -2 1 -43 -21
-91 -50z"/>
<path d="M1635 5378 l-50 -53 53 50 c48 46 57 55 49 55 -1 0 -25 -24 -52 -52z"/>
<path d="M1677 5341 c-38 -42 -41 -56 -29 -124 l7 -38 47 37 c52 39 51 34 24
128 l-11 39 -38 -42z"/>
<path d="M1582 5260 c0 -14 2 -19 5 -12 2 6 2 18 0 25 -3 6 -5 1 -5 -13z"/>
<path d="M1744 5075 c-8 -42 -17 -44 -34 -7 -7 15 -15 22 -17 15 -2 -6 5 -28
16 -49 l20 -37 11 29 c15 39 24 84 17 84 -3 0 -9 -16 -13 -35z"/>
<path d="M1599 5004 c-25 -41 -26 -71 -5 -132 8 -22 12 -43 9 -46 -4 -3 -4 -6
-1 -6 4 0 23 22 43 50 34 46 36 53 26 82 -6 18 -19 46 -30 61 l-18 29 -24 -38z"/>
<path d="M1672 4793 l-33 -42 23 -35 c13 -20 26 -36 30 -36 11 0 20 60 16 110
l-3 44 -33 -41z"/>
<path d="M1550 4740 c-6 -11 -8 -20 -6 -20 3 0 10 9 16 20 6 11 8 20 6 20 -3
0 -10 -9 -16 -20z"/>
<path d="M1572 4644 c-26 -53 -27 -78 -3 -122 l17 -34 25 39 c45 67 44 81 -1
140 -17 22 -17 21 -38 -23z"/>
<path d="M1545 4440 c3 -5 8 -10 11 -10 2 0 4 5 4 10 0 6 -5 10 -11 10 -5 0
-7 -4 -4 -10z"/>
<path d="M1616 4408 c-14 -23 -23 -44 -21 -47 3 -2 6 -2 8 0 19 32 46 89 43
89 -3 0 -16 -19 -30 -42z"/>
<path d="M1707 4353 c3 -46 2 -83 -3 -83 -5 1 -25 21 -44 45 -19 24 -36 42
-38 40 -2 -2 15 -26 39 -54 29 -34 46 -46 51 -38 11 16 9 127 -2 152 -6 13 -7
-10 -3 -62z"/>
<path d="M1587 4203 c-17 -60 -15 -71 22 -124 l26 -37 26 63 27 63 -43 45 -43
45 -15 -55z"/>
<path d="M1511 4149 c-1 -14 6 -34 15 -45 8 -10 12 -13 8 -5 -4 8 -11 28 -15
45 -6 29 -7 29 -8 5z"/>
<path d="M1700 4031 c-16 -33 -30 -67 -30 -75 0 -13 99 -106 114 -106 23 0
-17 218 -44 235 -5 3 -23 -21 -40 -54z"/>
<path d="M1540 4076 c0 -2 8 -10 18 -17 15 -13 16 -12 3 4 -13 16 -21 21 -21
13z"/>
<path d="M1584 4023 c21 -25 36 -30 36 -11 0 6 -3 8 -7 5 -3 -4 -16 1 -27 10
-21 18 -21 18 -2 -4z"/>
<path d="M1676 3808 c-13 -65 -7 -93 30 -136 19 -23 39 -42 44 -42 4 0 13 30
20 67 l13 66 -34 29 c-59 50 -66 51 -73 16z"/>
<path d="M1621 3814 c0 -11 3 -14 6 -6 3 7 2 16 -1 19 -3 4 -6 -2 -5 -13z"/>
<path d="M1612 3734 c-1 -29 3 -46 16 -55 15 -12 16 -12 5 1 -6 8 -13 33 -16
55 l-4 40 -1 -41z"/>
<path d="M1836 3694 c-6 -15 -36 -141 -36 -150 0 -2 4 -4 10 -4 5 0 39 -18 75
-40 l65 -40 -6 27 c-17 80 -49 156 -84 200 -15 19 -19 20 -24 7z"/>
<path d="M1650 3647 c0 -2 15 -16 33 -33 l32 -29 -29 33 c-28 30 -36 37 -36
29z"/>
<path d="M1792 3510 c0 -14 2 -19 5 -12 2 6 2 18 0 25 -3 6 -5 1 -5 -13z"/>
<path d="M1781 3434 c0 -11 3 -14 6 -6 3 7 2 16 -1 19 -3 4 -6 -2 -5 -13z"/>
<path d="M1835 3423 c2 -15 7 -45 10 -65 4 -27 15 -44 38 -61 36 -27 67 -40
68 -29 0 4 1 31 2 60 l2 54 -62 35 -63 35 5 -29z"/>
<path d="M1781 3394 c0 -11 3 -14 6 -6 3 7 2 16 -1 19 -3 4 -6 -2 -5 -13z"/>
<path d="M2022 3276 l3 -69 45 -13 c24 -7 46 -11 48 -9 9 8 -48 111 -73 135
l-26 24 3 -68z"/>
<path d="M1790 3302 c0 -9 82 -73 118 -91 38 -20 24 -4 -26 27 -26 17 -57 40
-70 52 -12 11 -22 17 -22 12z"/>
<path d="M2037 3111 c10 -61 15 -73 46 -91 45 -28 57 -25 57 13 0 60 -9 73
-59 89 l-48 15 4 -26z"/>
<path d="M2210 2996 c4 -55 5 -57 8 -18 3 34 7 43 20 40 12 -2 17 -14 18 -43
0 -36 3 -40 32 -46 29 -6 31 -5 20 15 -21 41 -49 75 -76 95 l-27 19 5 -62z"/>
<path d="M2230 2864 c0 -4 5 -24 12 -46 10 -34 20 -44 71 -69 l59 -30 -7 33
c-17 85 -24 95 -70 107 -50 13 -65 14 -65 5z"/>
<path d="M2171 2845 c1 -19 18 -51 18 -35 0 8 -4 22 -9 30 -5 8 -9 11 -9 5z"/>
<path d="M2210 2735 c0 -7 61 -37 66 -33 2 3 -12 12 -31 21 -19 9 -35 15 -35
12z"/>
<path d="M2465 2580 c3 -5 8 -10 11 -10 2 0 4 5 4 10 0 6 -5 10 -11 10 -5 0
-7 -4 -4 -10z"/>
<path d="M2550 2543 c36 -64 44 -71 104 -86 31 -9 56 -12 54 -8 -2 3 -12 30
-23 59 -16 45 -24 54 -55 62 -19 5 -50 10 -68 10 l-33 0 21 -37z"/>
<path d="M2759 2497 c11 -30 24 -64 30 -75 10 -20 8 -21 -36 -25 -27 -3 10 -3
81 -1 71 3 132 7 135 10 15 15 -139 118 -206 138 l-22 7 18 -54z"/>
<path d="M2638 2403 c6 -2 18 -2 25 0 6 3 1 5 -13 5 -14 0 -19 -2 -12 -5z"/>
<path d="M2917 2310 c10 -17 30 -42 44 -56 23 -22 34 -25 83 -22 l56 3 -35 53
-36 52 -65 0 -65 0 18 -30z"/>
<path d="M3013 2173 c26 -2 67 -2 90 0 23 2 2 3 -48 3 -49 0 -68 -1 -42 -3z"/>
<path d="M5245 6670 c11 -5 117 -9 236 -9 188 -1 218 -3 223 -17 3 -9 6 -129
6 -267 0 -175 3 -248 10 -241 17 17 9 506 -9 527 -12 15 -42 17 -250 16 -141
0 -228 -4 -216 -9z"/>
<path d="M3209 6514 c-20 -24 -65 -44 -99 -44 -28 0 -30 -3 -30 -36 0 -26 -8
-43 -29 -65 -16 -16 -25 -32 -20 -35 21 -13 69 54 69 96 0 15 6 20 25 20 33 0
73 21 104 54 19 20 21 26 9 26 -9 0 -21 -7 -29 -16z"/>
<path d="M5959 6416 c13 -7 30 -24 37 -37 7 -13 13 -18 14 -11 0 7 -11 24 -25
37 -13 14 -30 25 -37 25 -7 -1 -2 -7 11 -14z"/>
<path d="M5845 6358 c12 -73 17 -78 93 -93 27 -6 32 -4 32 13 0 49 -22 84 -67
103 -63 27 -66 25 -58 -23z"/>
<path d="M6011 6345 c1 -19 18 -51 18 -35 0 8 -4 22 -9 30 -5 8 -9 11 -9 5z"/>
<path d="M5890 6195 c0 -8 72 -85 79 -85 3 0 6 17 5 37 -1 31 -6 39 -25 44
-30 9 -59 11 -59 4z"/>
<path d="M6150 6186 c0 -2 8 -10 18 -17 15 -13 16 -12 3 4 -13 16 -21 21 -21
13z"/>
<path d="M6040 6121 c0 -48 0 -48 46 -66 25 -9 48 -15 51 -12 3 3 2 24 -2 47
-5 32 -14 46 -39 61 -48 29 -56 25 -56 -30z"/>
<path d="M6060 5970 c14 -50 51 -110 92 -152 l43 -43 2 40 c7 98 13 124 31
119 47 -13 -33 18 -99 39 l-77 23 8 -26z"/>
<path d="M6251 5926 c2 -2 15 -9 29 -15 24 -11 24 -11 6 3 -16 13 -49 24 -35
12z"/>
<path d="M6383 5843 c15 -16 27 -37 27 -48 0 -10 3 -16 6 -12 13 13 -7 55 -33
72 l-28 18 28 -30z"/>
<path d="M6265 5837 c-4 -13 -5 -42 -3 -66 3 -39 7 -44 57 -72 l54 -31 -7 63
c-5 52 -11 67 -34 86 -51 43 -61 46 -67 20z"/>
<path d="M6274 5608 c8 -48 53 -151 83 -187 l20 -24 15 74 c8 41 17 80 19 86
2 8 -27 30 -70 53 l-74 41 7 -43z"/>
<path d="M6550 5454 c25 -27 47 -49 50 -47 2 2 -18 25 -45 51 l-49 47 44 -51z"/>
<path d="M6455 5458 c-16 -73 -25 -121 -23 -122 2 -1 22 -17 45 -35 24 -18 47
-30 53 -26 5 3 10 32 10 63 -1 52 -4 61 -40 100 -38 42 -39 43 -45 20z"/>
<path d="M6425 5206 c4 -43 15 -104 25 -135 17 -54 18 -55 19 -20 1 19 -6 58
-13 85 -8 27 -17 69 -20 93 -9 77 -18 59 -11 -23z"/>
<path d="M6500 5192 c30 -27 57 -48 59 -46 4 3 -43 44 -88 78 -14 10 -1 -4 29
-32z"/>
<path d="M6530 5054 c-11 -27 -13 -51 -5 -42 8 8 25 68 19 68 -2 0 -9 -12 -14
-26z"/>
<path d="M6630 5056 c0 -2 8 -10 18 -17 15 -13 16 -12 3 4 -13 16 -21 21 -21
13z"/>
<path d="M6582 4970 c-35 -82 -35 -84 0 -128 18 -23 36 -41 39 -41 3 -1 13 24
23 54 16 53 16 55 -3 92 -38 71 -38 71 -59 23z"/>
<path d="M6510 4991 c0 -8 -7 -11 -15 -7 -13 5 -14 2 -4 -16 l12 -22 9 23 c5
13 6 26 3 29 -3 3 -5 0 -5 -7z"/>
<path d="M6690 4970 c6 -11 13 -20 16 -20 2 0 0 9 -6 20 -6 11 -13 20 -16 20
-2 0 0 -9 6 -20z"/>
<path d="M6521 4728 c-1 -34 -2 -64 -3 -67 0 -3 0 -22 1 -41 l2 -35 15 28 c11
20 13 46 10 95 -3 37 -5 70 -6 75 0 4 -4 7 -8 7 -5 0 -10 -28 -11 -62z"/>
<path d="M6666 4763 c-6 -14 -5 -15 5 -6 7 7 10 15 7 18 -3 3 -9 -2 -12 -12z"/>
<path d="M6604 4700 c68 -76 83 -90 58 -55 -11 17 -40 48 -63 70 l-43 40 48
-55z"/>
<path d="M6584 4595 c-41 -57 -54 -66 -54 -38 0 9 -3 14 -6 10 -3 -3 -3 -16 1
-28 8 -23 8 -23 39 13 30 35 71 98 63 98 -2 0 -21 -25 -43 -55z"/>
<path d="M6686 4597 c3 -10 9 -15 12 -12 3 3 0 11 -7 18 -10 9 -11 8 -5 -6z"/>
<path d="M6611 4500 c-23 -35 -41 -68 -41 -73 0 -22 63 -146 72 -141 4 3 -1
17 -12 31 -11 14 -20 37 -20 52 0 21 2 23 10 11 9 -13 13 -11 30 10 37 47 43
82 21 130 l-19 43 -41 -63z"/>
<path d="M6741 4474 c0 -11 3 -14 6 -6 3 7 2 16 -1 19 -3 4 -6 -2 -5 -13z"/>
<path d="M6507 4326 c-12 -31 -19 -134 -10 -150 8 -14 14 -11 43 21 19 21 23
28 9 15 -33 -29 -49 -28 -49 3 0 15 9 31 25 41 28 18 31 40 11 67 -16 21 -22
21 -29 3z"/>
<path d="M6557 4115 c-33 -37 -36 -46 -27 -69 12 -33 27 -33 62 1 27 26 35 62
22 97 -9 22 -14 20 -57 -29z"/>
<path d="M6454 3976 c-3 -21 -5 -38 -3 -40 2 -1 14 8 26 19 23 22 23 22 4 39
-19 17 -20 17 -27 -18z"/>
<path d="M6611 3914 c0 -11 3 -14 6 -6 3 7 2 16 -1 19 -3 4 -6 -2 -5 -13z"/>
<path d="M6507 3889 c-40 -33 -45 -55 -26 -122 10 -38 11 -38 30 -21 43 39 61
81 54 129 -4 25 -10 45 -14 45 -3 0 -23 -14 -44 -31z"/>
<path d="M6623 3845 c0 -27 2 -38 4 -22 2 15 2 37 0 50 -2 12 -4 0 -4 -28z"/>
<path d="M6372 3746 c-58 -85 -88 -244 -67 -359 l10 -58 43 31 c44 33 49 45
54 122 l3 47 -35 -21 c-19 -12 -39 -25 -44 -30 -19 -16 -26 -8 -26 30 0 37 2
39 95 96 52 31 98 63 102 69 3 6 -7 1 -24 -11 -17 -12 -33 -22 -36 -22 -3 0
-13 32 -23 70 -10 39 -21 70 -24 70 -3 0 -15 -15 -28 -34z"/>
<path d="M6571 3736 l-24 -31 28 27 c16 15 27 29 24 31 -2 3 -15 -10 -28 -27z"/>
<path d="M6455 3550 c3 -5 8 -10 11 -10 2 0 4 5 4 10 0 6 -5 10 -11 10 -5 0
-7 -4 -4 -10z"/>
<path d="M6232 3450 c0 -14 2 -19 5 -12 2 6 2 18 0 25 -3 6 -5 1 -5 -13z"/>
<path d="M6462 3410 c0 -14 2 -19 5 -12 2 6 2 18 0 25 -3 6 -5 1 -5 -13z"/>
<path d="M6198 3363 c-54 -56 -117 -192 -77 -167 7 4 39 17 73 28 l61 22 -10
77 -10 78 -37 -38z"/>
<path d="M6429 3353 l-24 -28 28 24 c25 23 32 31 24 31 -2 0 -14 -12 -28 -27z"/>
<path d="M6175 3146 c-79 -25 -85 -31 -85 -91 0 -30 4 -55 8 -55 4 0 28 13 53
28 39 25 46 35 55 80 6 29 10 52 10 51 -1 0 -19 -6 -41 -13z"/>
<path d="M6252 3105 c0 -16 2 -22 5 -12 2 9 2 23 0 30 -3 6 -5 -1 -5 -18z"/>
<path d="M5944 3016 c-55 -48 -116 -146 -91 -146 29 0 182 32 197 41 17 10 12
10 -110 -14 -41 -8 -77 -13 -80 -10 -3 3 22 30 55 61 53 49 91 99 82 108 -2 2
-25 -16 -53 -40z"/>
<path d="M6023 2995 c0 -38 2 -53 4 -32 2 20 2 52 0 70 -2 17 -4 1 -4 -38z"/>
<path d="M6241 3044 c0 -11 3 -14 6 -6 3 7 2 16 -1 19 -3 4 -6 -2 -5 -13z"/>
<path d="M5966 2822 c6 -4 13 -14 16 -22 3 -10 6 -8 10 8 5 18 2 22 -15 22
-13 0 -17 -3 -11 -8z"/>
<path d="M5865 2800 l-59 -16 -14 -53 c-7 -30 -11 -56 -8 -59 3 -2 29 4 58 14
50 18 54 22 71 73 10 29 16 54 15 55 -2 1 -30 -5 -63 -14z"/>
<path d="M5788 2613 c7 -3 16 -2 19 1 4 3 -2 6 -13 5 -11 0 -14 -3 -6 -6z"/>
<path d="M5541 2531 c-40 -6 -46 -10 -74 -60 l-31 -54 58 6 c66 7 80 16 107
68 28 55 32 53 -60 40z"/>
<path d="M5390 2511 c-45 -14 -114 -53 -159 -89 -33 -27 -40 -37 -29 -43 8 -5
80 -10 159 -12 79 -2 111 -2 72 0 -40 2 -73 6 -73 9 0 3 13 36 30 75 16 38 28
69 27 68 -1 0 -13 -4 -27 -8z"/>
<path d="M5599 2393 c-13 -16 -12 -17 4 -4 9 7 17 15 17 17 0 8 -8 3 -21 -13z"/>
<path d="M5548 2373 c6 -2 18 -2 25 0 6 3 1 5 -13 5 -14 0 -19 -2 -12 -5z"/>
<path d="M4990 2308 c-50 -7 -207 -74 -197 -84 12 -12 172 -53 175 -45 2 6 21
38 43 72 22 34 39 62 37 63 -2 1 -28 -1 -58 -6z"/>
<path d="M5092 2263 l-32 -48 25 -6 c54 -15 101 1 138 46 20 23 33 45 30 49
-4 3 -34 6 -67 6 l-61 0 -33 -47z"/>
<path d="M4519 2179 c-59 -8 -139 -33 -139 -44 0 -2 29 -20 65 -40 36 -20 65
-40 65 -43 0 -4 -14 -20 -32 -35 -32 -28 -32 -28 -3 -9 47 32 181 172 165 172
-8 0 -24 2 -35 4 -11 2 -50 0 -86 -5z"/>
<path d="M4686 2124 c-21 -24 -36 -47 -33 -50 3 -3 32 -8 65 -11 58 -5 60 -5
101 33 l43 38 -64 18 c-34 9 -65 17 -68 17 -3 -1 -23 -21 -44 -45z"/>
<path d="M5178 2153 c6 -2 18 -2 25 0 6 3 1 5 -13 5 -14 0 -19 -2 -12 -5z"/>
<path d="M4008 2133 c-16 -2 -28 -8 -28 -13 0 -13 110 -97 165 -125 27 -14 41
-19 30 -11 -63 47 -61 45 -45 55 33 22 99 76 100 82 1 16 -147 23 -222 12z"/>
<path d="M4878 2123 c7 -3 16 -2 19 1 4 3 -2 6 -13 5 -11 0 -14 -3 -6 -6z"/>
<path d="M3833 2062 l-53 -27 49 -28 c27 -15 60 -27 72 -26 33 1 88 22 90 34
2 9 -87 75 -100 75 -3 -1 -30 -13 -58 -28z"/>
<path d="M4255 2054 l-47 -37 29 -12 c66 -28 91 -28 138 0 25 14 43 30 40 34
-5 9 -58 35 -91 45 -15 5 -35 -4 -69 -30z"/>
<path d="M4854 2058 l-29 -33 33 29 c17 17 32 31 32 33 0 8 -8 1 -36 -29z"/>
<path d="M3710 2026 c0 -3 20 -19 45 -36 25 -17 45 -29 45 -26 0 3 -20 19 -45
36 -25 17 -45 29 -45 26z"/>
<path d="M4796 2015 c-11 -8 -15 -15 -9 -15 6 0 16 7 23 15 16 19 11 19 -14 0z"/>
<path d="M4718 2003 c6 -2 18 -2 25 0 6 3 1 5 -13 5 -14 0 -19 -2 -12 -5z"/>
<path d="M3898 1923 c7 -3 16 -2 19 1 4 3 -2 6 -13 5 -11 0 -14 -3 -6 -6z"/>
<path d="M4308 1923 c7 -3 16 -2 19 1 4 3 -2 6 -13 5 -11 0 -14 -3 -6 -6z"/>
<path d="M3458 6420 c-27 -28 -30 -36 -25 -76 6 -54 20 -73 40 -56 19 16 29 4
16 -19 -7 -15 -6 -19 6 -19 9 0 15 9 15 24 0 14 5 28 11 32 9 5 10 -4 4 -32
-13 -65 -12 -69 17 -72 48 -6 77 69 44 113 -12 17 -12 21 6 33 12 9 18 23 16
40 -4 38 -28 41 -28 3 0 -16 -4 -32 -8 -35 -5 -3 -7 8 -4 23 3 20 -3 35 -19
50 -31 29 -55 26 -91 -9z m50 -19 c-2 -5 6 -16 17 -24 16 -13 17 -17 6 -31
-15 -18 -29 -20 -50 -7 -17 11 -5 71 15 71 8 0 13 -4 12 -9z"/>
<path d="M3495 6360 c3 -5 8 -10 11 -10 2 0 4 5 4 10 0 6 -5 10 -11 10 -5 0
-7 -4 -4 -10z"/>
<path d="M3223 6195 c-9 -25 4 -29 17 -6 7 15 7 21 0 21 -6 0 -13 -7 -17 -15z"/>
<path d="M3373 6141 c7 -27 14 -38 21 -31 7 7 6 14 -2 22 -21 21 -13 30 18 23
19 -4 30 -3 30 4 0 6 -8 11 -17 11 -10 0 -28 3 -39 6 -21 5 -21 4 -11 -35z"/>
<path d="M3270 6020 c0 -5 5 -10 10 -10 6 0 10 5 10 10 0 6 -4 10 -10 10 -5 0
-10 -4 -10 -10z"/>
<path d="M3242 5800 c0 -14 2 -19 5 -12 2 6 2 18 0 25 -3 6 -5 1 -5 -13z"/>
<path d="M4727 6414 c-8 -8 1 -24 14 -24 5 0 9 7 9 15 0 15 -12 20 -23 9z"/>
<path d="M5250 6309 c0 -5 5 -7 10 -4 6 3 10 8 10 11 0 2 -4 4 -10 4 -5 0 -10
-5 -10 -11z"/>
<path d="M5360 6210 c0 -5 5 -10 10 -10 6 0 10 5 10 10 0 6 -4 10 -10 10 -5 0
-10 -4 -10 -10z"/>
<path d="M5196 6171 c-26 -5 -27 -7 -13 -19 14 -12 19 -11 33 2 20 21 17 24
-20 17z"/>
<path d="M5230 6140 c-6 -12 -8 -29 -4 -38 5 -13 9 -8 15 18 9 42 5 50 -11 20z"/>
<path d="M5295 6050 c-3 -5 1 -10 9 -10 9 0 16 5 16 10 0 6 -4 10 -9 10 -6 0
-13 -4 -16 -10z"/>
<path d="M3340 6310 c19 -13 30 -13 30 0 0 6 -10 10 -22 10 -19 0 -20 -2 -8
-10z"/>
<path d="M3704 6146 c-10 -8 -15 -18 -11 -22 4 -5 12 -2 17 5 4 8 15 11 25 7
14 -5 15 -9 5 -21 -6 -7 -19 -11 -28 -8 -13 5 -14 3 -6 -6 7 -7 20 -11 30 -9
23 4 31 47 12 59 -18 12 -21 11 -44 -5z"/>
<path d="M4863 6153 c-34 -13 0 -78 35 -66 20 8 14 22 -8 16 -13 -3 -22 1 -26
12 -7 18 13 38 30 28 5 -3 6 -1 2 5 -8 13 -13 14 -33 5z"/>
<path d="M2730 5985 l0 -65 -42 -21 c-73 -36 -158 -93 -158 -106 0 -7 22 0 53
19 28 17 78 46 110 65 l57 34 0 69 c0 40 -4 70 -10 70 -6 0 -10 -28 -10 -65z"/>
<path d="M3456 5806 c5 -20 2 -26 -11 -26 -12 0 -16 6 -12 20 6 23 -8 28 -16
6 -8 -21 17 -50 37 -43 18 7 22 52 6 62 -7 4 -9 -2 -4 -19z"/>
<path d="M5134 5816 c-3 -8 -4 -23 -2 -33 4 -23 47 -24 62 -1 15 24 -1 35 -18
12 -11 -14 -18 -16 -26 -8 -8 8 -9 14 -1 18 6 4 11 11 11 17 0 14 -20 11 -26
-5z"/>
<path d="M4132 5520 c-113 -30 -186 -74 -283 -170 -69 -68 -94 -102 -128 -170
-126 -258 -82 -529 122 -738 120 -122 256 -182 432 -189 132 -6 216 11 314 62
230 121 364 333 365 575 0 110 -16 174 -70 287 -83 174 -235 299 -421 347 -84
22 -238 20 -331 -4z m207 -382 c1 -38 1 -38 -40 -38 l-40 0 5 43 c5 32 24 168
37 263 3 16 37 -230 38 -268z m140 91 c-50 -152 -59 -167 -95 -151 l-26 12 31
53 c17 28 52 89 78 134 26 45 49 81 50 79 2 -1 -16 -58 -38 -127z m-243 -124
c3 -6 -7 -17 -21 -23 -23 -11 -26 -9 -44 26 -17 34 -81 223 -81 239 0 8 139
-222 146 -242z m-56 -44 c0 -3 -11 -14 -24 -23 -24 -17 -24 -17 -78 45 -83 96
-138 164 -138 171 0 3 54 -38 120 -91 66 -53 120 -99 120 -102z m412 97 c-125
-144 -121 -141 -152 -118 l-25 19 24 17 c13 9 70 54 128 100 58 46 107 84 110
84 2 0 -36 -46 -85 -102z m103 -99 c-145 -82 -196 -104 -206 -88 -21 32 -3 44
136 91 77 25 145 46 150 47 6 0 -30 -22 -80 -50z m-738 6 c49 -14 107 -33 130
-41 39 -14 41 -17 31 -40 -6 -13 -15 -24 -20 -24 -11 0 -215 108 -243 128 -16
11 -16 13 -3 9 10 -4 57 -18 105 -32z m437 -19 c77 -45 105 -138 67 -221 -57
-125 -222 -141 -308 -29 -23 31 -28 47 -28 99 0 49 5 69 25 97 59 87 153 107
244 54z m-294 -146 c0 -31 -4 -40 -17 -40 -33 0 -313 34 -309 37 4 5 260 40
299 42 25 1 27 -2 27 -39z m580 20 c79 -11 145 -21 147 -23 2 -3 -227 -33
-302 -40 -17 -2 -21 5 -23 41 -4 51 -16 49 178 22z m-567 -137 c-13 -10 -197
-71 -268 -89 -25 -7 40 32 164 98 l95 49 12 -23 c11 -19 10 -25 -3 -35z m455
23 c86 -43 210 -116 198 -116 -15 0 -240 72 -268 86 -25 13 -26 17 -16 39 6
14 13 25 15 25 2 0 34 -15 71 -34z m42 -191 c75 -91 70 -89 -78 29 l-112 90
22 24 23 24 40 -45 c22 -24 69 -79 105 -122z m-447 137 c16 -17 16 -20 -6 -39
-20 -19 -171 -140 -207 -167 -8 -6 3 12 25 39 106 135 150 185 160 185 7 0 19
-8 28 -18z m55 -38 c12 -4 22 -10 22 -15 0 -5 -22 -44 -49 -87 -26 -42 -58
-97 -70 -121 -12 -23 -24 -41 -26 -39 -5 5 62 224 76 251 11 19 14 19 47 11z
m216 -16 c8 -13 29 -70 46 -127 18 -57 34 -111 37 -120 3 -9 -21 29 -54 85
-33 56 -70 116 -83 134 -19 26 -20 34 -9 41 24 15 48 10 63 -13z m-94 -30 c0
-39 -32 -279 -37 -274 -3 3 -43 272 -43 294 0 7 15 12 40 12 38 0 40 -1 40
-32z"/>
<path d="M5401 3759 c-18 -20 -23 -21 -51 -9 -28 11 -34 11 -58 -7 -33 -25
-39 -64 -15 -97 20 -28 36 -34 27 -11 -5 11 1 14 25 12 25 -2 29 -5 25 -24
-11 -41 83 -61 125 -25 29 24 39 93 16 115 -19 19 -56 22 -88 6 -21 -10 -21
-10 -3 5 11 9 32 16 48 16 32 0 37 15 9 30 -28 14 -38 13 -60 -11z m-39 -81
c-6 -6 -26 -13 -44 -15 -34 -4 -29 11 7 20 39 9 50 8 37 -5z m72 6 c8 -3 12
-12 9 -20 -3 -10 2 -14 18 -14 17 0 20 -3 12 -11 -15 -15 -70 -2 -77 18 -11
27 6 39 38 27z"/>
<path d="M5223 3550 c3 -13 0 -20 -10 -20 -8 0 -11 -4 -8 -10 14 -22 35 -10
35 20 0 17 -5 30 -11 30 -6 0 -9 -9 -6 -20z"/>
<path d="M5335 3440 c3 -5 8 -10 11 -10 2 0 4 5 4 10 0 6 -5 10 -11 10 -5 0
-7 -4 -4 -10z"/>
<path d="M5100 3420 c0 -5 7 -10 15 -10 8 0 15 5 15 10 0 6 -7 10 -15 10 -8 0
-15 -4 -15 -10z"/>
<path d="M3380 3556 c0 -13 -9 -35 -21 -50 -11 -14 -16 -26 -10 -26 6 0 11 4
11 10 0 5 16 12 35 16 37 7 45 18 20 28 -8 3 -15 15 -15 26 0 11 -4 20 -10 20
-5 0 -10 -11 -10 -24z"/>
<path d="M3335 3370 c-3 -5 1 -10 10 -10 9 0 13 5 10 10 -3 6 -8 10 -10 10 -2
0 -7 -4 -10 -10z"/>
<path d="M3437 3904 c-12 -13 -7 -52 7 -57 21 -8 42 21 30 41 -12 19 -27 25
-37 16z"/>
<path d="M5143 3913 c-17 -6 -16 -48 1 -62 20 -17 46 -3 46 25 0 24 -26 45
-47 37z m30 -28 c8 -18 -11 -31 -25 -17 -11 11 -3 32 12 32 4 0 10 -7 13 -15z"/>
<path d="M2726 3769 c-3 -17 -6 -46 -6 -63 0 -27 -6 -35 -37 -50 -60 -28 -161
-96 -167 -112 -6 -17 -2 -15 59 26 22 15 70 41 108 58 l67 31 0 70 c0 73 -13
95 -24 40z"/>
<path d="M3706 3581 c-11 -12 -14 -21 -7 -26 6 -3 11 1 11 10 0 21 24 14 28
-8 2 -11 -3 -17 -14 -17 -14 0 -15 -3 -6 -12 8 -8 15 -8 27 2 18 15 20 41 3
58 -16 16 -22 15 -42 -7z"/>
<path d="M4853 3574 c-3 -9 -2 -24 4 -33 12 -18 53 -28 53 -12 0 6 -9 11 -21
11 -14 0 -19 5 -17 18 2 11 11 16 27 14 15 -2 21 0 17 7 -11 17 -56 13 -63 -5z"/>
<path d="M3010 3354 c0 -4 13 -21 29 -39 18 -21 31 -49 35 -78 l7 -45 48 -4
c32 -3 60 -14 85 -33 40 -31 60 -27 30 6 -25 27 -61 46 -106 54 -33 6 -37 11
-44 48 -4 25 -17 52 -34 69 -26 26 -50 36 -50 22z"/>
<path d="M4168 2853 c7 -3 16 -2 19 1 4 3 -2 6 -13 5 -11 0 -14 -3 -6 -6z"/>
<path d="M4283 2853 c20 -2 54 -2 75 0 20 2 3 4 -38 4 -41 0 -58 -2 -37 -4z"/>
<path d="M3382 2024 c10 -10 20 -16 22 -13 3 3 -5 11 -17 18 -21 13 -21 12 -5
-5z"/>
<path d="M3428 2003 c7 -3 16 -2 19 1 4 3 -2 6 -13 5 -11 0 -14 -3 -6 -6z"/>
<path d="M4616 1491 c-45 -50 -58 -165 -31 -260 29 -96 145 -183 204 -152 61
33 82 201 37 296 -51 107 -163 169 -210 116z"/>
<path d="M6000 1498 c-24 -40 -32 -92 -28 -183 2 -45 7 -70 15 -70 11 0 165
131 171 145 4 10 -117 140 -129 140 -5 0 -18 -14 -29 -32z"/>
</g>
</svg>
