<?xml version="1.0" encoding="iso-8859-1"?>
<!-- Uploaded to: SVG Repo, www.svgrepo.com, Generator: SVG Repo Mixer Tools -->
<svg height="800px" width="800px" version="1.1" id="Layer_1" xmlns="http://www.w3.org/2000/svg" xmlns:xlink="http://www.w3.org/1999/xlink" 
	 viewBox="0 0 512 512" xml:space="preserve">
<polygon style="fill:#C7CFE2;" points="279.947,512 87.788,512 87.788,41.413 424.212,41.413 424.212,387.291 352.079,449.645 "/>
<polygon style="opacity:0.1;enable-background:new    ;" points="424.212,354.415 247.071,354.415 247.071,512 279.947,512 
	352.079,449.645 424.212,387.291 "/>
<polygon style="fill:#DCE5FA;" points="355.387,512 279.947,512 279.947,387.291 424.212,387.291 424.212,443.175 "/>
<g>
	<path style="fill:#515262;" d="M155.399,168.499c-12.187,0-22.101-9.914-22.101-22.101V35.983C133.298,16.142,149.439,0,169.281,0
		s35.984,16.142,35.984,35.983v5.429c0,4.539-3.679,8.219-8.219,8.219c-4.54,0-8.219-3.68-8.219-8.219v-5.429
		c0-10.777-8.768-19.545-19.545-19.545c-10.778,0-19.546,8.768-19.546,19.545v110.415c0,3.123,2.54,5.663,5.663,5.663
		s5.663-2.54,5.663-5.663V84.249c0-4.539,3.679-8.219,8.219-8.219c4.54,0,8.219,3.68,8.219,8.219v62.149
		C177.5,158.585,167.587,168.499,155.399,168.499z"/>
	<path style="fill:#515262;" d="M356.292,203.82H155.708c-4.54,0-8.219-3.68-8.219-8.219s3.679-8.219,8.219-8.219h200.583
		c4.54,0,8.219,3.68,8.219,8.219S360.831,203.82,356.292,203.82z"/>
	<path style="fill:#515262;" d="M356.292,144.654H256c-4.54,0-8.219-3.68-8.219-8.219c0-4.539,3.679-8.219,8.219-8.219h100.292
		c4.54,0,8.219,3.68,8.219,8.219C364.511,140.975,360.831,144.654,356.292,144.654z"/>
	<path style="fill:#515262;" d="M356.292,250.124H155.708c-4.54,0-8.219-3.68-8.219-8.219s3.679-8.219,8.219-8.219h200.583
		c4.54,0,8.219,3.68,8.219,8.219S360.831,250.124,356.292,250.124z"/>
	<path style="fill:#515262;" d="M356.292,296.428H155.708c-4.54,0-8.219-3.68-8.219-8.219s3.679-8.219,8.219-8.219h200.583
		c4.54,0,8.219,3.68,8.219,8.219S360.831,296.428,356.292,296.428z"/>
</g>
</svg>