<?xml version="1.0" encoding="UTF-8"?><svg id="Warstwa_1" xmlns="http://www.w3.org/2000/svg" viewBox="0 0 500 500"><defs><style>.cls-1{fill:#46466d;}.cls-2{fill:#f29268;}.cls-3{fill:#b7eabe;}.cls-4{fill:#f2e6ce;stroke:#ddc69e;stroke-miterlimit:10;stroke-width:5.85px;}.cls-5{fill:#ddc69e;}.cls-6{fill:#323249;}</style></defs><rect class="cls-1" width="500" height="500"/><circle class="cls-1" cx="250" cy="250" r="234.51"/><path class="cls-4" d="M377.04,350.69c0,13.7-19.87,24.85-44.43,24.85-4.13,0-8.15-.34-11.94-.91,2.66,20.38-1.98,37.3-12,40.02-7.81,2.15-16.98-4.92-24.06-17.32-2.89,10.02-7.98,16.75-14.43,17.6-7.36.96-14.89-5.94-20.26-17.38-5.38,11.43-12.9,18.34-20.26,17.38-6.4-.85-11.49-7.47-14.38-17.38-7.08,12.23-16.13,19.24-23.94,17.09-10.02-2.72-14.66-19.64-12-40.02-3.79.57-7.81.91-11.94.91-24.56,0-44.49-11.15-44.49-24.85,0-5.21,2.83-9.96,7.7-13.92,5.94-4.87,6.45-13.75,1.53-19.64-15.85-19.3-25.19-42.79-25.19-68.03,0-66.28,64.02-119.99,143.03-119.99s143.09,53.71,143.09,119.99c0,25.24-9.28,48.73-25.24,68.03-4.87,5.89-4.36,14.77,1.58,19.64,4.81,3.96,7.64,8.77,7.64,13.92Z"/><path class="cls-6" d="M240.45,284.84c.04-1.05,1.52-1.27,1.77-.24,2.99,12.56,9.21,35.46,1.38,46.66-5.87,8.39-16.76,7.95-20.23-.54-1.85-4.53-.89-9.06,3.36-11.31,5.38-2.84,12.83-8.47,13.72-34.57Z"/><path class="cls-6" d="M255.36,294.69c-.07-1.18-1.91-1.24-2.03-.07-1.37,13.03-1.3,22.42-.49,30.42.6,5.98,3.2,9.89,7.43,11.7,4.28,1.83,9.16-.9,11.74-4.04,5.7-6.93.1-13.24-6.56-15.81-7.78-3.01-9.59-13.53-10.1-22.2Z"/><path class="cls-2" d="M225.39,164.41c3.02-3.26,8.29-.2,7.15,4.09-8.6,32.36,12.63,51.8,1.73,86.25-7.58,27.69-33.07,42.7-59.07,40.99-22.85-1.5-41.83-19.5-44.03-41.86-1.4-14.25,2.97-29.1.15-45.08-13.15-40.25-7.02-58,4.05-67.74,4.03-3.55,6.19,2.65,3.98,12.39-1.66,7.31-1.26,12.59.1,16.13,1.82,4.74,8.77,4.09,9.67-.91,6.23-34.55,16.62-48.51,37.14-58.14,20.34-9.55,20.39-11.62,29.48-25.5,5.61-8.57,10.46-7.75,10.44,4-.12,61.01-23.65,54.22-16.35,84.93.88,3.7,5.93,4.43,7.82,1.12,2.17-3.79,4.41-7.05,7.76-10.67Z"/><path class="cls-2" d="M181.71,95.16c-4.08-1.55-2.06-7.77-1.38-11.15,2.13-8.79,9.47-17.17,18.88-20.52,3.84-.79,3.99,3.57,3.57,6.53-.89,11.23-10.78,21.86-20.5,25.16l-.57-.03Z"/><ellipse class="cls-2" cx="234.97" cy="135.78" rx="8.82" ry="4.66" transform="translate(-15.32 240.68) rotate(-52.76)"/><circle class="cls-6" cx="313.64" cy="246.73" r="49.14"/><path class="cls-3" d="M322.81,247.92c-3.61,1.52,1.05,4.69-1.73,6.84-1.67,1.24-3.77-.39-5.58.07-1.26.36-2.12,1.71-3.37,2.32-1.15.64-2.68.23-3.28-.96-.95-1.71-.19-4.53-2.25-5.11-2.07-.47-4.83-.99-3.91-3.84.47-1.28,2.02-2.21,2.4-3.43.42-1.21-.23-2.49-.12-3.71.08-1.84,1.81-2.56,3.49-2.17,2.21.46,2.52-.66,3.99-1.82,1.71-1.27,3.1.62,4.61,1.21,1.25.42,2.74-.78,4.13-.56.88.11,1.64.76,1.86,1.65.32,1.17-.24,2.45.13,3.62.3,1.06,1.46,2.03,1.54,3.22.13,1.21-.79,2.13-1.8,2.62l-.11.06Z"/><path class="cls-5" d="M357.54,287.68c-1.07,1.69-2.2,3.35-3.41,4.94-.14.18-.61.74-.03.04-.13.16-.26.33-.39.5-.31.39-.62.77-.94,1.15-.59.7-1.19,1.38-1.81,2.05-1.18,1.26-2.42,2.46-3.74,3.57-.31.26-.62.52-.93.77-.17.14-.84.62-.02.02-.19.14-.37.28-.56.42-.66.48-1.33.95-2.01,1.39-1.39.89-2.83,1.7-4.33,2.4-.36.17-.72.34-1.09.5-.11.05-.22.09-.32.14,0,0,.73-.3.31-.13-.22.09-.44.18-.66.27-.8.32-1.62.61-2.44.88-1.66.54-3.35.98-5.05,1.34-.92.19-1.84.36-2.77.51-.45.07-.9.14-1.35.2-.4.06.8-.1.21-.03-.11.01-.22.03-.33.04-.27.03-.55.07-.82.1-4.85.55-9.75.61-14.63.45-1.53-.05-2.99,1.38-2.92,2.92.07,1.63,1.28,2.87,2.92,2.92,8.45.27,17.17-.07,25.32-2.52,7.01-2.11,13.33-5.9,18.48-11.11,3.19-3.24,5.93-6.93,8.36-10.76.82-1.29.31-3.28-1.05-4-1.44-.76-3.13-.33-4,1.05h0Z"/><path class="cls-5" d="M132.73,290.63c4.17,6.59,9.28,12.63,15.88,16.9s13.81,6.13,21.32,7.01c4.96.58,9.97.65,14.96.49,1.53-.05,3-1.31,2.92-2.92s-1.29-2.97-2.92-2.92c-4.4.14-8.82.1-13.21-.31-.47-.04-.95-.09-1.42-.15-.22-.02-.44-.05-.66-.08-.11-.01-.22-.03-.33-.04-.11-.01-.22-.03-.32-.04l.45.06c-.94-.15-1.89-.28-2.83-.45-1.76-.33-3.51-.73-5.23-1.24-.81-.24-1.62-.5-2.42-.79-.4-.15-.81-.3-1.21-.45-.18-.07-.35-.14-.53-.21-.09-.04-.17-.07-.26-.11.87.35.38.16.18.07-1.54-.67-3.04-1.44-4.47-2.3-.7-.42-1.38-.86-2.05-1.32-.33-.23-.65-.46-.97-.69-.15-.11-.3-.22-.45-.34-.42-.32.49.39.2.16-.09-.07-.19-.15-.28-.22-1.35-1.08-2.64-2.24-3.85-3.47-1.44-1.46-2.7-3.03-4.01-4.6.02.02.45.59.17.21-.08-.11-.16-.21-.24-.32-.16-.21-.32-.43-.48-.65-.32-.44-.64-.88-.95-1.33-.66-.95-1.3-1.92-1.92-2.9-.82-1.29-2.64-1.93-4-1.05s-1.92,2.62-1.05,4h0Z"/><path class="cls-5" d="M345.81,180.25c1.7,8.47,5.59,16.38,11.03,23.06,1.49,1.83,3.12,3.56,4.86,5.16,1.12,1.04,3.04,1.2,4.13,0,1.04-1.13,1.2-3.03,0-4.13-1.49-1.37-2.9-2.83-4.21-4.38-.31-.36-.61-.73-.9-1.09-.08-.11-.17-.21-.25-.32-.05-.06-.26-.34-.02-.02.25.33-.02-.02-.08-.11-.1-.13-.2-.27-.3-.41-.58-.79-1.14-1.59-1.68-2.41-1.11-1.69-2.12-3.46-3.02-5.27-.44-.88-.82-1.78-1.23-2.67.34.75-.03-.08-.09-.24-.09-.22-.17-.44-.26-.66-.18-.47-.36-.95-.52-1.43-.76-2.17-1.36-4.39-1.81-6.64-.3-1.5-2.17-2.5-3.6-2.04-1.59.52-2.36,1.99-2.04,3.6h0Z"/></svg>