<?xml version="1.0" encoding="UTF-8"?><svg id="Warstwa_1" xmlns="http://www.w3.org/2000/svg" viewBox="0 0 500 500"><defs><style>.cls-1{fill:#46466d;}.cls-2{fill:#bee2a1;}.cls-3{fill:#ed6b84;}.cls-4{fill:#7bc9db;stroke:#61b5c9;}.cls-4,.cls-5,.cls-6,.cls-7{stroke-miterlimit:10;stroke-width:5.85px;}.cls-5{fill:#cee5ed;stroke:#b3d6e0;}.cls-6{fill:#56af8f;stroke:#429b7b;}.cls-7{fill:#f2e0c0;stroke:#e0c399;}.cls-8{fill:#cc5672;}</style></defs><rect class="cls-1" width="500" height="500"/><circle class="cls-1" cx="247.36" cy="250" r="234.52"/><path class="cls-4" d="M391.47,229.88H106.03c-.81,0-1.04-1.1-.3-1.42l159.07-69.58c74.01-1.05,126.67,26.2,126.67,71Z"/><rect class="cls-7" x="103.26" y="231.26" width="288.22" height="135.92" rx="17.42" ry="17.42"/><rect class="cls-5" x="94.87" y="286.74" width="304.98" height="45.07" rx="10.92" ry="10.92"/><path class="cls-4" d="M106.48,228.45h280.59c2.43,0,4.4,1.97,4.4,4.4v20.09H103.26v-21.26c0-1.78,1.45-3.23,3.23-3.23Z"/><path class="cls-2" d="M153.52,137.87l33.12,2.19c1.62.11,2.15,2.06.94,3.46l-26.41,30.32c-1.22,1.4-3.22,1.14-3.55-.45l-6.72-32.51c-.31-1.49,1.1-3.1,2.62-3Z"/><path class="cls-2" d="M286.75,201.98l-57.9-48.76-14.8,51.03-52.88-46.07,10.91-12.52,33.27,28.98,14.67-50.58,64.82,54.58,20.5-24.02c1.58-1.85,4.36-2.07,6.21-.49l5.93,5.06c1.85,1.58,2.07,4.36.49,6.21l-31.21,36.57Z"/><path class="cls-6" d="M306.74,172.64l15.32,7.1,17.4.25c4.56.07,5.23,6.45.78,7.42l-11.59,2.52c-1.04.23-1.22,1.61-.26,2.07l10.01,4.89c3.99,1.95,1.95,7.86-2.44,7.05l-18.65-3.44c-.82-.15-1.52.58-1.31,1.37l3.57,13.21c.98,3.63-3.5,6.26-6.33,3.72l-15.72-14.16c-.43-.39-1.1-.39-1.54,0l-15.72,14.16c-2.83,2.55-7.31-.09-6.33-3.72l3.57-13.21c.21-.79-.49-1.52-1.31-1.37l-18.65,3.44c-4.38.81-6.43-5.1-2.44-7.05l10.01-4.89c.95-.47.78-1.85-.26-2.07l-11.59-2.52c-4.45-.97-3.78-7.35.78-7.42l17.4-.25,15.32-7.1h19.99Z"/><path class="cls-3" d="M296.74,197.2c-22.36,0-40.49-14.86-40.49-33.19,0-14.11,8.91-21.57,14.68-31.85,6.33-11.27,14.11-19.62,25.81-19.62s19.44,7.61,25.8,19.62c5.25,9.91,14.69,17.74,14.69,31.85,0,18.33-18.13,33.19-40.49,33.19"/><ellipse class="cls-8" cx="278.62" cy="137.46" rx="1.56" ry="3.47"/><ellipse class="cls-8" cx="292.53" cy="151.34" rx="1.56" ry="3.47"/><ellipse class="cls-8" cx="287.87" cy="130.1" rx="1.56" ry="3.47"/><ellipse class="cls-8" cx="329.37" cy="161.75" rx="1.56" ry="3.47"/><ellipse class="cls-8" cx="302.51" cy="151.34" rx="1.56" ry="3.47"/><ellipse class="cls-8" cx="283.29" cy="148.29" rx="1.56" ry="3.47"/><ellipse class="cls-8" cx="311.89" cy="144.77" rx="1.56" ry="3.47"/><ellipse class="cls-8" cx="307.36" cy="130.1" rx="1.56" ry="3.47"/><ellipse class="cls-8" cx="319.96" cy="157.12" rx="1.56" ry="3.47"/><ellipse class="cls-8" cx="272.16" cy="154.87" rx="1.56" ry="3.47"/><ellipse class="cls-8" cx="292.53" cy="165.22" rx="1.56" ry="3.47"/><ellipse class="cls-8" cx="307.36" cy="167.04" rx="1.56" ry="3.47"/><ellipse class="cls-8" cx="281.73" cy="165.95" rx="1.56" ry="3.47"/><ellipse class="cls-8" cx="297.75" cy="123.17" rx="1.56" ry="3.47"/><ellipse class="cls-8" cx="319.96" cy="173.92" rx="1.56" ry="3.47"/><ellipse class="cls-8" cx="269.05" cy="172.16" rx="1.56" ry="3.47"/><ellipse class="cls-8" cx="297.75" cy="138.69" rx="1.56" ry="3.47"/><ellipse class="cls-8" cx="263.08" cy="160.59" rx="1.56" ry="3.47"/><path class="cls-8" d="M289.42,182.56c-.86,0-1.56-1.55-1.56-3.47s.7-3.47,1.56-3.47,1.56,1.55,1.56,3.47-.7,3.47-1.56,3.47"/></svg>