<?xml version="1.0" encoding="iso-8859-1"?>
<!-- Uploaded to: SVG Repo, www.svgrepo.com, Generator: SVG Repo Mixer Tools -->
<svg height="800px" width="800px" version="1.1" id="Layer_1" xmlns="http://www.w3.org/2000/svg" xmlns:xlink="http://www.w3.org/1999/xlink" 
	 viewBox="0 0 504.32 504.32" xml:space="preserve">
<g transform="translate(1 -2)">
	<g>
		<ellipse style="fill:#E4F2DE;" cx="251.587" cy="253.307" rx="247.467" ry="110.933"/>
		
			<ellipse transform="matrix(0.5 0.866 -0.866 0.5 345.1861 -91.1735)" style="fill:#E4F2DE;" cx="251.553" cy="253.358" rx="247.461" ry="110.931"/>
		
			<ellipse transform="matrix(-0.5 0.866 -0.866 -0.5 596.7449 162.1895)" style="fill:#E4F2DE;" cx="251.553" cy="253.358" rx="247.461" ry="110.931"/>
	</g>
	<path style="fill:#80D6FA;" d="M208.067,362.533c-0.853,5.12-4.267,9.387-7.68,11.947c-4.267,4.267-10.24,6.827-17.067,6.827
		c-14.507,0-25.6-11.093-25.6-25.6c0-8.533,4.267-17.067,11.093-21.333c4.267-2.56,9.387-4.267,14.507-4.267
		c14.507,0,25.6,11.093,25.6,25.6C208.92,358.266,208.92,359.973,208.067,362.533z M102.254,70.693
		c-7.68-4.267-12.8-12.8-12.8-22.187c0-14.507,11.093-25.6,25.6-25.6c8.533,0,16.213,4.267,21.333,11.093
		c2.56,4.267,4.267,9.387,4.267,14.507c0,14.507-11.093,25.6-25.6,25.6C110.787,74.107,106.52,73.253,102.254,70.693z
		 M400.92,435.92c7.68,4.267,12.8,12.8,12.8,22.187c0,14.507-11.093,25.6-25.6,25.6c-9.387,0-17.067-5.12-21.333-11.947
		c-2.56-4.267-4.267-8.533-4.267-13.653c0-14.507,11.093-25.6,25.6-25.6C392.387,432.507,396.654,433.36,400.92,435.92z"/>
</g>
<path style="fill:#51565F;" d="M389.12,485.973c-16.213,0-29.867-13.653-29.867-29.867s13.653-29.867,29.867-29.867
	c3.413,0,6.827,0.853,10.24,1.707c6.827-22.187,7.68-51.2,1.707-83.627c-24.747,8.533-53.76,14.507-84.48,18.773
	c-18.773,24.747-38.4,46.08-58.027,64c26.453,22.187,52.053,35.84,75.093,40.96c2.56,0.853,3.413,2.56,3.413,5.12
	c-0.853,2.56-2.56,3.413-5.12,3.413c-24.747-5.12-52.053-19.627-80.213-43.52c-46.933,39.253-93.867,55.467-125.44,37.547
	s-40.96-66.56-30.72-127.147C34.987,322.133,0,288.853,0,253.013c0-36.693,37.547-69.12,94.72-90.453
	c-5.973-34.987-5.973-66.56,2.56-90.453C89.6,66.987,85.333,57.6,85.333,48.213c0-16.213,13.653-29.867,29.867-29.867
	S145.067,32,145.067,48.213S131.413,78.08,115.2,78.08c-3.413,0-6.827-0.853-10.24-1.707c-6.827,22.187-7.68,51.2-1.707,83.627
	c24.747-8.533,52.907-14.507,83.627-18.773c17.92-24.747,37.547-46.08,58.027-64c-25.6-22.187-52.053-35.84-75.093-40.96
	c-2.56-0.853-3.413-2.56-3.413-5.12c0.853-2.56,2.56-3.413,5.12-3.413c24.747,5.12,52.907,19.627,80.213,43.52
	c5.973-5.12,11.093-9.387,17.067-13.653c42.667-30.72,81.92-39.253,109.227-23.893c31.573,17.92,40.96,66.56,30.72,128
	c58.027,21.333,95.573,53.76,95.573,90.453c0,36.693-37.547,69.12-95.573,90.453c5.973,34.987,5.973,66.56-2.56,90.453
	c7.68,5.12,11.947,14.507,11.947,23.893C418.987,472.32,405.334,485.973,389.12,485.973z M389.12,434.773
	c-11.947,0-21.333,9.387-21.333,21.333s9.387,21.333,21.333,21.333s21.333-9.387,21.333-21.333c0-7.68-4.267-14.507-10.24-17.92l0,0
	c-0.853,0-0.853-0.853-1.707-0.853C395.947,435.627,392.534,434.773,389.12,434.773z M104.107,344.32
	c-10.24,56.32-1.707,100.693,27.307,117.76c28.16,16.213,71.68,1.707,115.2-34.987c-15.36-13.653-30.72-29.867-45.227-47.787
	c-5.12,3.413-10.24,5.12-16.213,5.12c-16.213,0-29.867-13.653-29.867-29.867s13.653-29.867,29.867-29.867
	s29.867,13.653,29.867,29.867c0,0.853,0,1.707,0,2.56c34.133,2.56,67.413,1.707,98.133-1.707
	c11.093-15.36,22.187-32.427,32.427-50.347c10.24-17.92,19.627-35.84,27.307-52.907c-7.68-17.92-17.067-35.84-27.307-53.76
	c-10.24-17.92-21.333-34.133-32.427-50.347c-38.4-4.267-81.067-4.267-119.467,0c-11.093,15.36-22.187,32.427-32.427,50.347
	s-19.627,35.84-27.307,52.907c7.68,17.067,16.213,34.133,25.6,51.2c0.853,1.707,0.853,4.267-1.707,5.973
	c-1.707,0.853-4.267,0.853-5.973-1.707c-8.533-14.507-16.213-29.867-23.04-44.373c-10.24,25.6-17.92,50.347-23.04,74.24
	c5.973,2.56,12.8,4.267,19.627,5.973c2.56,0.853,3.413,2.56,3.413,5.12c-0.853,2.56-2.56,3.413-5.12,3.413
	C116.907,348.587,110.08,346.88,104.107,344.32z M207.36,373.333c15.36,18.773,30.72,34.133,45.227,47.787
	c17.92-15.36,35.84-34.987,52.907-57.173c-29.867,2.56-61.44,3.413-93.013,0.853C210.774,368.213,209.067,370.773,207.36,373.333z
	 M184.32,332.373c-11.947,0-21.333,9.387-21.333,21.333c0,11.947,9.387,21.333,21.333,21.333c5.12,0,10.24-1.707,13.653-5.12
	l0.853-0.853l0,0c2.56-2.56,4.267-5.12,5.12-8.533l0,0c0-0.853,0-0.853,0.853-1.707c0-1.707,0.853-3.413,0.853-5.12
	C205.654,341.76,196.267,332.373,184.32,332.373z M376.32,262.4c-6.827,15.36-15.36,31.573-23.893,46.933
	c-9.387,15.36-18.773,30.72-28.16,44.373c27.307-3.413,52.907-9.387,75.947-17.067C395.094,312.747,386.56,288,376.32,262.4z
	 M381.44,251.307c11.947,28.16,21.333,56.32,26.453,81.92c53.76-19.627,87.893-49.493,87.893-81.92
	c0-33.28-34.133-62.293-88.747-81.92C401.92,194.987,393.387,223.147,381.44,251.307z M97.28,169.387
	c-53.76,19.627-87.893,49.493-87.893,81.92c0,31.573,33.28,61.44,88.747,81.92c5.12-25.6,13.653-53.76,26.453-81.92
	C111.787,223.147,102.4,194.987,97.28,169.387z M324.267,148.907c10.24,13.653,19.627,29.013,28.16,44.373
	c9.387,15.36,17.067,31.573,23.893,46.933c10.24-25.6,18.773-51.2,23.04-74.24C377.174,159.147,351.574,153.173,324.267,148.907z
	 M105.814,165.973c5.12,23.04,12.8,48.64,23.04,74.24c6.827-15.36,15.36-31.573,23.893-46.933
	c9.387-15.36,18.773-30.72,28.16-44.373C153.6,153.173,128,159.147,105.814,165.973z M317.44,139.52
	c30.72,3.413,58.88,10.24,84.48,18.773c10.24-56.32,1.707-101.547-27.307-117.76l0,0c-23.893-13.653-59.733-5.973-99.84,23.04
	c-5.12,3.413-10.24,7.68-15.36,11.947C279.04,93.44,298.667,115.627,317.44,139.52z M252.587,81.493
	c-17.92,16.213-35.84,34.987-52.907,57.173c34.133-3.413,71.68-3.413,104.96,0C288.427,116.48,270.507,97.707,252.587,81.493z
	 M106.667,65.28c2.56,1.707,5.973,2.56,9.387,2.56c11.947,0,21.333-9.387,21.333-21.333S128,25.173,116.054,25.173
	c-11.947,0-21.333,9.387-21.333,21.333c0,7.68,4.267,14.507,10.24,17.92l0,0C105.814,65.28,105.814,65.28,106.667,65.28z"/>
</svg>