<?xml version="1.0" encoding="UTF-8"?><svg id="Warstwa_1" xmlns="http://www.w3.org/2000/svg" viewBox="0 0 500 500"><defs><style>.cls-1,.cls-2{fill:#8bcc8b;}.cls-3{fill:#46466d;}.cls-4{fill:#96ede5;}.cls-5{fill:#b7eabe;stroke:#b1fcb8;}.cls-5,.cls-2{stroke-miterlimit:10;stroke-width:5.9px;}.cls-2{stroke:#79b779;}</style></defs><rect class="cls-3" width="500" height="500"/><circle class="cls-3" cx="250" cy="250" r="236.67"/><path class="cls-2" d="M358.8,260.31c-3.19,42.57-32.69,81.19-76.99,94.71-44.3,13.51-90.38-2.06-116.76-35.67,29.36-5.34,63.11-13.51,98.52-24.31,35.41-10.8,67.93-22.84,95.23-34.73Z"/><path class="cls-4" d="M438.08,197.78c4.18,13.7-28.78,36.85-81.48,60.13-27.28,11.98-59.78,24.06-95.19,34.87-35.41,10.8-69.18,18.93-98.56,24.18-56.7,10.15-96.97,9.34-101.15-4.36-4.1-13.44,27.6-36.03,78.66-58.87.13,4.54.54,9.1,1.24,13.63-6.67,4.95-9.92,9.26-8.95,12.45.94,3.09,5.64,4.8,13.27,5.27,20.24,1.32,61.23-5.99,107.05-19.96,45.82-13.98,83.8-30.76,99.86-43.15,6.07-4.65,9.01-8.69,8.07-11.78-.97-3.19-6.08-4.95-14.38-5.33-1.97-4.2-4.17-8.22-6.59-12.05,55.13-9.5,94.04-8.45,98.14,5Z"/><path class="cls-5" d="M352.08,218.43c.27.89.54,1.78.76,2.68-16.06,12.39-54.04,29.18-99.86,43.15-45.82,13.98-86.81,21.28-107.05,19.96-.32-.87-.59-1.76-.87-2.65-1.53-5.02-2.67-10.05-3.45-15.07-.7-4.53-1.12-9.09-1.24-13.63-1.32-47.45,28.98-91.85,76.63-106.38,47.6-14.52,97.51,5.36,122.94,45.45,2.43,3.83,4.62,7.85,6.59,12.05,2.15,4.6,4.01,9.41,5.55,14.43Z"/><path class="cls-4" d="M125.25,139.51l7.62,3.9c1.75.89,1.75,3.39,0,4.29l-7.62,3.9c-.45.23-.82.6-1.05,1.05l-3.9,7.62c-.89,1.75-3.39,1.75-4.29,0l-3.9-7.62c-.23-.45-.6-.82-1.05-1.05l-7.62-3.9c-1.75-.89-1.75-3.39,0-4.29l7.62-3.9c.45-.23.82-.6,1.05-1.05l3.9-7.62c.89-1.75,3.39-1.75,4.29,0l3.9,7.62c.23.45.6.82,1.05,1.05Z"/><path class="cls-4" d="M183.01,75.03l5.52,2.83c1.75.89,1.75,3.39,0,4.29l-5.52,2.83c-.45.23-.82.6-1.05,1.05l-2.83,5.52c-.89,1.75-3.39,1.75-4.29,0l-2.83-5.52c-.23-.45-.6-.82-1.05-1.05l-5.52-2.83c-1.75-.89-1.75-3.39,0-4.29l5.52-2.83c.45-.23.82-.6,1.05-1.05l2.83-5.52c.89-1.75,3.39-1.75,4.29,0l2.83,5.52c.23.45.6.82,1.05,1.05Z"/><path class="cls-4" d="M351.22,96.09l5.52,2.83c1.75.89,1.75,3.39,0,4.29l-5.52,2.83c-.45.23-.82.6-1.05,1.05l-2.83,5.52c-.89,1.75-3.39,1.75-4.29,0l-2.83-5.52c-.23-.45-.6-.82-1.05-1.05l-5.52-2.83c-1.75-.89-1.75-3.39,0-4.29l5.52-2.83c.45-.23.82-.6,1.05-1.05l2.83-5.52c.89-1.75,3.39-1.75,4.29,0l2.83,5.52c.23.45.6.82,1.05,1.05Z"/><path class="cls-4" d="M388.05,336.64l5.52,2.83c1.75.89,1.75,3.39,0,4.29l-5.52,2.83c-.45.23-.82.6-1.05,1.05l-2.83,5.52c-.89,1.75-3.39,1.75-4.29,0l-2.83-5.52c-.23-.45-.6-.82-1.05-1.05l-5.52-2.83c-1.75-.89-1.75-3.39,0-4.29l5.52-2.83c.45-.23.82-.6,1.05-1.05l2.83-5.52c.89-1.75,3.39-1.75,4.29,0l2.83,5.52c.23.45.6.82,1.05,1.05Z"/><path class="cls-4" d="M283.78,425.19l7.62,3.9c1.75.89,1.75,3.39,0,4.29l-7.62,3.9c-.45.23-.82.6-1.05,1.05l-3.9,7.62c-.89,1.75-3.39,1.75-4.29,0l-3.9-7.62c-.23-.45-.6-.82-1.05-1.05l-7.62-3.9c-1.75-.89-1.75-3.39,0-4.29l7.62-3.9c.45-.23.82-.6,1.05-1.05l3.9-7.62c.89-1.75,3.39-1.75,4.29,0l3.9,7.62c.23.45.6.82,1.05,1.05Z"/><path class="cls-4" d="M153.7,377.8l5.52,2.83c1.75.89,1.75,3.39,0,4.29l-5.52,2.83c-.45.23-.82.6-1.05,1.05l-2.83,5.52c-.89,1.75-3.39,1.75-4.29,0l-2.83-5.52c-.23-.45-.6-.82-1.05-1.05l-5.52-2.83c-1.75-.89-1.75-3.39,0-4.29l5.52-2.83c.45-.23.82-.6,1.05-1.05l2.83-5.52c.89-1.75,3.39-1.75,4.29,0l2.83,5.52c.23.45.6.82,1.05,1.05Z"/><ellipse class="cls-1" cx="254.58" cy="191.69" rx="17.08" ry="21.09" transform="translate(33.66 421.37) rotate(-83.09)"/><ellipse class="cls-1" cx="290.03" cy="174.9" rx="6.52" ry="8.05" transform="translate(35.32 398.13) rotate(-72.32)"/><ellipse class="cls-1" cx="290.03" cy="208.77" rx="7.76" ry="9.58" transform="translate(3.05 421.71) rotate(-72.32)"/></svg>