<?xml version="1.0" encoding="iso-8859-1"?>
<!-- Uploaded to: SVG Repo, www.svgrepo.com, Generator: SVG Repo Mixer Tools -->
<svg height="800px" width="800px" version="1.1" id="Layer_1" xmlns="http://www.w3.org/2000/svg" xmlns:xlink="http://www.w3.org/1999/xlink" 
	 viewBox="0 0 503.68 503.68" xml:space="preserve">
<g transform="translate(1 1)">
	<path style="fill:#FFD7D7;" d="M250.84,327.746c5.12,0,8.533,4.267,8.533,8.533s-3.413,8.533-8.533,8.533s-8.533-4.267-8.533-8.533
		S245.72,327.746,250.84,327.746L250.84,327.746z"/>
	<path style="fill:#F2EDDA;" d="M498.307,37.613v256H378.84V71.746L336.173,3.48h128C481.24,3.48,498.307,20.546,498.307,37.613z
		 M122.84,259.48v34.133H3.373v-256C3.373,20.546,20.44,3.48,37.507,3.48h51.2h34.133v51.2v34.133v34.133v34.133v34.133v34.133
		V259.48z M336.173,3.48l-42.667,68.267v221.867h-34.133V3.48H336.173z"/>
	<polygon style="fill:#ECF4F7;" points="336.173,3.48 378.84,71.746 293.507,71.746 	"/>
	<polygon style="fill:#80D6FA;" points="336.173,293.613 293.507,293.613 293.507,71.746 378.84,71.746 378.84,293.613 	"/>
	<polygon style="fill:#ECF4F7;" points="208.173,447.213 293.507,447.213 293.507,378.947 208.173,378.947 	"/>
	<polygon style="fill:#FFE079;" points="122.84,225.346 122.84,191.213 122.84,157.08 122.84,122.946 122.84,88.813 122.84,54.68 
		122.84,3.48 259.373,3.48 259.373,293.613 122.84,293.613 122.84,259.48 	"/>
	<g>
		<path style="fill:#ECF4F7;" d="M498.307,293.613v51.2c0,17.067-17.067,34.133-34.133,34.133H293.507h-85.333H37.507
			c-17.067,0-34.133-17.067-34.133-34.133v-51.2H122.84h136.533h34.133h42.667h42.667H498.307z"/>
		<path style="fill:#ECF4F7;" d="M464.173,489.88v8.533h-68.267v-8.533c0-14.507,11.093-25.6,25.6-25.6h17.067
			C453.08,464.28,464.173,475.373,464.173,489.88"/>
	</g>
</g>
<path style="fill:#51565F;" d="M465.173,503.68h-68.267c-2.56,0-4.267-1.707-4.267-4.267v-8.533
	c0-16.213,13.653-29.867,29.867-29.867h17.067c16.213,0,29.867,13.653,29.867,29.867v8.533
	C469.44,501.973,467.733,503.68,465.173,503.68z M401.173,495.147h59.733v-4.267c0-11.947-9.387-21.333-21.333-21.333h-17.067
	c-11.947,0-21.333,9.387-21.333,21.333V495.147z M345.707,503.68h-307.2c-2.56,0-4.267-1.707-4.267-4.267s1.707-4.267,4.267-4.267
	h12.8v-12.8c0-2.56,1.707-4.267,4.267-4.267c2.56,0,4.267,1.707,4.267,4.267v12.8h25.6v-12.8c0-2.56,1.707-4.267,4.267-4.267
	s4.267,1.707,4.267,4.267v12.8h25.6v-12.8c0-2.56,1.707-4.267,4.267-4.267c2.56,0,4.267,1.707,4.267,4.267v12.8h25.6v-12.8
	c0-2.56,1.707-4.267,4.267-4.267s4.267,1.707,4.267,4.267v12.8h25.6v-12.8c0-2.56,1.707-4.267,4.267-4.267s4.267,1.707,4.267,4.267
	v12.8h25.6v-12.8c0-2.56,1.707-4.267,4.267-4.267c2.56,0,4.267,1.707,4.267,4.267v12.8h25.6v-12.8c0-2.56,1.707-4.267,4.267-4.267
	s4.267,1.707,4.267,4.267v12.8h25.6v-12.8c0-2.56,1.707-4.267,4.267-4.267s4.267,1.707,4.267,4.267v12.8h25.6v-12.8
	c0-2.56,1.707-4.267,4.267-4.267s4.267,1.707,4.267,4.267v12.8h12.8c2.56,0,4.267,1.707,4.267,4.267S348.267,503.68,345.707,503.68z
	 M294.507,452.48c-2.56,0-4.267-1.707-4.267-4.267V414.08c0-2.56,1.707-4.267,4.267-4.267s4.267,1.707,4.267,4.267v34.133
	C298.773,450.773,297.067,452.48,294.507,452.48z M209.173,452.48c-2.56,0-4.267-1.707-4.267-4.267V414.08
	c0-2.56,1.707-4.267,4.267-4.267s4.267,1.707,4.267,4.267v34.133C213.44,450.773,211.733,452.48,209.173,452.48z M465.173,384.213
	H38.507c-19.627,0-38.4-18.773-38.4-38.4v-51.2c0-2.56,1.707-4.267,4.267-4.267h460.8c2.56,0,4.267,1.707,4.267,4.267
	c0,2.56-1.707,4.267-4.267,4.267H8.64v46.933c0,14.507,15.36,29.867,29.867,29.867h426.667c14.507,0,29.867-15.36,29.867-29.867
	v-307.2c0-14.507-15.36-29.867-29.867-29.867H379.84c-2.56,0-4.267-1.707-4.267-4.267s1.707-4.267,4.267-4.267h85.333
	c19.627,0,38.4,18.773,38.4,38.4v307.2C503.573,365.44,484.8,384.213,465.173,384.213z M251.84,350.08
	c-6.827,0-12.8-5.973-12.8-12.8c0-6.827,5.973-12.8,12.8-12.8c6.827,0,12.8,5.973,12.8,12.8
	C264.64,344.106,258.667,350.08,251.84,350.08z M251.84,333.013c-2.56,0-4.267,1.707-4.267,4.267c0,2.56,1.707,4.267,4.267,4.267
	s4.267-1.707,4.267-4.267C256.107,334.72,254.4,333.013,251.84,333.013z M379.84,264.746c-2.56,0-4.267-1.707-4.267-4.267v-153.6
	c0-2.56,1.707-4.267,4.267-4.267s4.267,1.707,4.267,4.267v153.6C384.107,263.04,382.4,264.746,379.84,264.746z M337.173,264.746
	c-2.56,0-4.267-1.707-4.267-4.267v-153.6c0-2.56,1.707-4.267,4.267-4.267s4.267,1.707,4.267,4.267v153.6
	C341.44,263.04,339.733,264.746,337.173,264.746z M294.507,264.746c-2.56,0-4.267-1.707-4.267-4.267V72.746
	c0-0.853,0-1.707,0.853-2.56L333.76,1.92c1.707-2.56,5.973-2.56,6.827,0l42.667,68.267c0.853,1.707,0.853,2.56,0,4.267
	c-0.853,1.707-2.56,2.56-3.413,2.56h-51.2c-2.56,0-4.267-1.707-4.267-4.267c0-2.56,1.707-4.267,4.267-4.267h43.52l-34.987-56.32
	l-38.4,61.44v186.88C298.773,263.04,297.067,264.746,294.507,264.746z M260.373,264.746c-2.56,0-4.267-1.707-4.267-4.267V8.746h-128
	v42.667h46.933c2.56,0,4.267,1.707,4.267,4.267s-1.707,4.267-4.267,4.267h-46.933v25.6h12.8c2.56,0,4.267,1.707,4.267,4.267
	s-1.707,4.267-4.267,4.267h-12.8v25.6h12.8c2.56,0,4.267,1.707,4.267,4.267c0,2.56-1.707,4.267-4.267,4.267h-12.8v25.6h46.933
	c2.56,0,4.267,1.707,4.267,4.267c0,2.56-1.707,4.267-4.267,4.267h-46.933v25.6h12.8c2.56,0,4.267,1.707,4.267,4.267
	c0,2.56-1.707,4.267-4.267,4.267h-12.8v25.6h12.8c2.56,0,4.267,1.707,4.267,4.267s-1.707,4.267-4.267,4.267h-12.8v29.867
	c0,2.56-1.707,4.267-4.267,4.267c-2.56,0-4.267-1.707-4.267-4.267v-256c0-2.56,1.707-4.267,4.267-4.267h136.533
	c2.56,0,4.267,1.707,4.267,4.267v256C264.64,263.04,262.933,264.746,260.373,264.746z M4.373,264.746
	c-2.56,0-4.267-1.707-4.267-4.267V38.613c0-19.627,18.773-38.4,38.4-38.4h51.2c2.56,0,4.267,1.707,4.267,4.267
	s-1.707,4.267-4.267,4.267h-51.2C24,8.746,8.64,24.106,8.64,38.613V260.48C8.64,263.04,6.933,264.746,4.373,264.746z"/>
</svg>