<?xml version="1.0" encoding="iso-8859-1"?>
<!-- Uploaded to: SVG Repo, www.svgrepo.com, Generator: SVG Repo Mixer Tools -->
<svg version="1.1" id="Layer_1" xmlns="http://www.w3.org/2000/svg" xmlns:xlink="http://www.w3.org/1999/xlink" 
	 viewBox="0 0 512 512" xml:space="preserve">
<polygon style="fill:#554F4E;" points="256,249.176 289.735,215.442 256,147.973 "/>
<polygon style="fill:#7F7774;" points="222.265,215.442 247.566,249.176 272.868,215.442 256,147.973 "/>
<polygon style="fill:#FFAB97;" points="272.868,316.647 323.469,282.912 289.735,215.442 272.868,215.442 "/>
<polygon style="fill:#FFCDC1;" points="188.531,282.912 256,354.251 289.735,282.912 272.868,215.442 222.265,215.442 "/>
<polygon style="fill:#F5AC51;" points="267.245,431.543 323.469,431.543 323.469,282.912 289.735,282.912 "/>
<polygon style="fill:#FFEAB2;" points="188.531,282.912 256,282.912 276.24,316.648 276.24,431.543 188.531,431.543 "/>
<rect x="256" y="282.917" style="fill:#FFD159;" width="33.735" height="148.626"/>
<path style="fill:#C1B8B5;" d="M512,214.207v83.585l-52.337,5.233c-5.266,22.911-14.302,44.37-26.41,63.713l33.319,40.724
	l-59.111,59.111l-40.724-33.319c-19.343,12.108-40.802,21.144-63.713,26.41L297.793,512h-83.585l-5.233-52.337
	c-22.911-5.266-44.37-14.302-63.713-26.41l-40.724,33.319l-59.111-59.111l33.319-40.724c-12.108-19.343-21.144-40.802-26.41-63.713
	L0,297.793v-83.585l52.337-5.233c5.266-22.911,14.302-44.37,26.41-63.713l-33.319-40.724l59.111-59.111l40.724,33.319
	c19.343-12.108,40.802-21.144,63.713-26.41L214.207,0h83.585l5.233,52.337c22.911,5.266,44.37,14.302,63.713,26.41l40.724-33.319
	l59.111,59.111l-33.319,40.724c12.108,19.343,21.144,40.802,26.41,63.713L512,214.207z M420.29,256
	c0-90.739-73.551-164.29-164.29-164.29c-90.729,0-164.29,73.551-164.29,164.29S165.271,420.29,256,420.29
	C346.739,420.29,420.29,346.739,420.29,256z"/>
<path style="fill:#7F7774;" d="M256,80.457c96.954,0,175.543,78.589,175.543,175.543S352.954,431.543,256,431.543l-11.253-16.879
	L256,397.785c78.308,0,141.785-63.477,141.785-141.785S334.308,114.215,256,114.215l-11.253-16.879L256,80.457z"/>
<path style="fill:#A99E9B;" d="M256,80.457v33.758c-78.308,0-141.785,63.477-141.785,141.785S177.692,397.785,256,397.785v33.758
	c-96.942,0-175.543-78.589-175.543-175.543S159.058,80.457,256,80.457z"/>
</svg>